%FSLAX45Y45*%
G04 Gerber Fmt 4.5, Leading zero omitted, Abs format (unit mm)*
G04 Created by KiCad (PCBNEW 5.1.6+dfsg1-1~bpo10+1) date 2020-11-12 19:35:08*
%MOMM*%
%LPD*%
G01*
G04 APERTURE LIST*
%TA.AperFunction,Profile*%
%ADD10C,0.050000*%
%TD*%
%ADD11C,0.200000*%
%ADD12C,0.300000*%
G04 APERTURE END LIST*
D10*
X13970000Y-10922000D02*
X13970000Y-8890000D01*
X11938000Y-10922000D02*
X13970000Y-10922000D01*
X11938000Y-8890000D02*
X11938000Y-10922000D01*
X13970000Y-8890000D02*
X11938000Y-8890000D01*
D11*
X12934000Y-9314500D02*
X12974000Y-9354500D01*
X12974000Y-9314500D02*
X12934000Y-9354500D01*
X13124500Y-10330500D02*
X13164500Y-10370500D01*
X13164500Y-10330500D02*
X13124500Y-10370500D01*
D12*
X12221928Y-11390214D02*
X12221928Y-11090214D01*
X12293357Y-11090214D01*
X12336214Y-11104500D01*
X12364786Y-11133072D01*
X12379071Y-11161643D01*
X12393357Y-11218786D01*
X12393357Y-11261643D01*
X12379071Y-11318786D01*
X12364786Y-11347357D01*
X12336214Y-11375929D01*
X12293357Y-11390214D01*
X12221928Y-11390214D01*
X12521928Y-11390214D02*
X12521928Y-11190214D01*
X12521928Y-11247357D02*
X12536214Y-11218786D01*
X12550500Y-11204500D01*
X12579071Y-11190214D01*
X12607643Y-11190214D01*
X12707643Y-11390214D02*
X12707643Y-11190214D01*
X12707643Y-11090214D02*
X12693357Y-11104500D01*
X12707643Y-11118786D01*
X12721928Y-11104500D01*
X12707643Y-11090214D01*
X12707643Y-11118786D01*
X12893357Y-11390214D02*
X12864786Y-11375929D01*
X12850500Y-11347357D01*
X12850500Y-11090214D01*
X13050500Y-11390214D02*
X13021928Y-11375929D01*
X13007643Y-11347357D01*
X13007643Y-11090214D01*
X13393357Y-11390214D02*
X13393357Y-11090214D01*
X13493357Y-11304500D01*
X13593357Y-11090214D01*
X13593357Y-11390214D01*
X13864786Y-11390214D02*
X13864786Y-11233071D01*
X13850500Y-11204500D01*
X13821928Y-11190214D01*
X13764786Y-11190214D01*
X13736214Y-11204500D01*
X13864786Y-11375929D02*
X13836214Y-11390214D01*
X13764786Y-11390214D01*
X13736214Y-11375929D01*
X13721928Y-11347357D01*
X13721928Y-11318786D01*
X13736214Y-11290214D01*
X13764786Y-11275929D01*
X13836214Y-11275929D01*
X13864786Y-11261643D01*
X14007643Y-11190214D02*
X14007643Y-11490214D01*
X14007643Y-11204500D02*
X14036214Y-11190214D01*
X14093357Y-11190214D01*
X14121928Y-11204500D01*
X14136214Y-11218786D01*
X14150500Y-11247357D01*
X14150500Y-11333071D01*
X14136214Y-11361643D01*
X14121928Y-11375929D01*
X14093357Y-11390214D01*
X14036214Y-11390214D01*
X14007643Y-11375929D01*
X14279071Y-11361643D02*
X14293357Y-11375929D01*
X14279071Y-11390214D01*
X14264786Y-11375929D01*
X14279071Y-11361643D01*
X14279071Y-11390214D01*
X14279071Y-11204500D02*
X14293357Y-11218786D01*
X14279071Y-11233071D01*
X14264786Y-11218786D01*
X14279071Y-11204500D01*
X14279071Y-11233071D01*
X11895500Y-11864500D02*
X11935500Y-11904500D01*
X11935500Y-11864500D02*
X11895500Y-11904500D01*
X12279071Y-11720214D02*
X12307643Y-11720214D01*
X12336214Y-11734500D01*
X12350500Y-11748786D01*
X12364786Y-11777357D01*
X12379071Y-11834500D01*
X12379071Y-11905929D01*
X12364786Y-11963071D01*
X12350500Y-11991643D01*
X12336214Y-12005929D01*
X12307643Y-12020214D01*
X12279071Y-12020214D01*
X12250500Y-12005929D01*
X12236214Y-11991643D01*
X12221928Y-11963071D01*
X12207643Y-11905929D01*
X12207643Y-11834500D01*
X12221928Y-11777357D01*
X12236214Y-11748786D01*
X12250500Y-11734500D01*
X12279071Y-11720214D01*
X12507643Y-11991643D02*
X12521928Y-12005929D01*
X12507643Y-12020214D01*
X12493357Y-12005929D01*
X12507643Y-11991643D01*
X12507643Y-12020214D01*
X12779071Y-11820214D02*
X12779071Y-12020214D01*
X12707643Y-11705929D02*
X12636214Y-11920214D01*
X12821928Y-11920214D01*
X12993357Y-11720214D02*
X13021928Y-11720214D01*
X13050500Y-11734500D01*
X13064786Y-11748786D01*
X13079071Y-11777357D01*
X13093357Y-11834500D01*
X13093357Y-11905929D01*
X13079071Y-11963071D01*
X13064786Y-11991643D01*
X13050500Y-12005929D01*
X13021928Y-12020214D01*
X12993357Y-12020214D01*
X12964786Y-12005929D01*
X12950500Y-11991643D01*
X12936214Y-11963071D01*
X12921928Y-11905929D01*
X12921928Y-11834500D01*
X12936214Y-11777357D01*
X12950500Y-11748786D01*
X12964786Y-11734500D01*
X12993357Y-11720214D01*
X13221928Y-12020214D02*
X13221928Y-11820214D01*
X13221928Y-11848786D02*
X13236214Y-11834500D01*
X13264786Y-11820214D01*
X13307643Y-11820214D01*
X13336214Y-11834500D01*
X13350500Y-11863071D01*
X13350500Y-12020214D01*
X13350500Y-11863071D02*
X13364786Y-11834500D01*
X13393357Y-11820214D01*
X13436214Y-11820214D01*
X13464786Y-11834500D01*
X13479071Y-11863071D01*
X13479071Y-12020214D01*
X13621928Y-12020214D02*
X13621928Y-11820214D01*
X13621928Y-11848786D02*
X13636214Y-11834500D01*
X13664786Y-11820214D01*
X13707643Y-11820214D01*
X13736214Y-11834500D01*
X13750500Y-11863071D01*
X13750500Y-12020214D01*
X13750500Y-11863071D02*
X13764786Y-11834500D01*
X13793357Y-11820214D01*
X13836214Y-11820214D01*
X13864786Y-11834500D01*
X13879071Y-11863071D01*
X13879071Y-12020214D01*
X14464786Y-11705929D02*
X14207643Y-12091643D01*
X14850500Y-11720214D02*
X14879071Y-11720214D01*
X14907643Y-11734500D01*
X14921928Y-11748786D01*
X14936214Y-11777357D01*
X14950500Y-11834500D01*
X14950500Y-11905929D01*
X14936214Y-11963071D01*
X14921928Y-11991643D01*
X14907643Y-12005929D01*
X14879071Y-12020214D01*
X14850500Y-12020214D01*
X14821928Y-12005929D01*
X14807643Y-11991643D01*
X14793357Y-11963071D01*
X14779071Y-11905929D01*
X14779071Y-11834500D01*
X14793357Y-11777357D01*
X14807643Y-11748786D01*
X14821928Y-11734500D01*
X14850500Y-11720214D01*
X15079071Y-11991643D02*
X15093357Y-12005929D01*
X15079071Y-12020214D01*
X15064786Y-12005929D01*
X15079071Y-11991643D01*
X15079071Y-12020214D01*
X15279071Y-11720214D02*
X15307643Y-11720214D01*
X15336214Y-11734500D01*
X15350500Y-11748786D01*
X15364786Y-11777357D01*
X15379071Y-11834500D01*
X15379071Y-11905929D01*
X15364786Y-11963071D01*
X15350500Y-11991643D01*
X15336214Y-12005929D01*
X15307643Y-12020214D01*
X15279071Y-12020214D01*
X15250500Y-12005929D01*
X15236214Y-11991643D01*
X15221928Y-11963071D01*
X15207643Y-11905929D01*
X15207643Y-11834500D01*
X15221928Y-11777357D01*
X15236214Y-11748786D01*
X15250500Y-11734500D01*
X15279071Y-11720214D01*
X15664786Y-12020214D02*
X15493357Y-12020214D01*
X15579071Y-12020214D02*
X15579071Y-11720214D01*
X15550500Y-11763071D01*
X15521928Y-11791643D01*
X15493357Y-11805929D01*
X15921928Y-11720214D02*
X15864786Y-11720214D01*
X15836214Y-11734500D01*
X15821928Y-11748786D01*
X15793357Y-11791643D01*
X15779071Y-11848786D01*
X15779071Y-11963071D01*
X15793357Y-11991643D01*
X15807643Y-12005929D01*
X15836214Y-12020214D01*
X15893357Y-12020214D01*
X15921928Y-12005929D01*
X15936214Y-11991643D01*
X15950500Y-11963071D01*
X15950500Y-11891643D01*
X15936214Y-11863071D01*
X15921928Y-11848786D01*
X15893357Y-11834500D01*
X15836214Y-11834500D01*
X15807643Y-11848786D01*
X15793357Y-11863071D01*
X15779071Y-11891643D01*
X16064786Y-11720214D02*
X16064786Y-11777357D01*
X16179071Y-11720214D02*
X16179071Y-11777357D01*
X16621928Y-12134500D02*
X16607643Y-12120214D01*
X16579071Y-12077357D01*
X16564786Y-12048786D01*
X16550500Y-12005929D01*
X16536214Y-11934500D01*
X16536214Y-11877357D01*
X16550500Y-11805929D01*
X16564786Y-11763071D01*
X16579071Y-11734500D01*
X16607643Y-11691643D01*
X16621928Y-11677357D01*
X16721928Y-11748786D02*
X16736214Y-11734500D01*
X16764786Y-11720214D01*
X16836214Y-11720214D01*
X16864786Y-11734500D01*
X16879071Y-11748786D01*
X16893357Y-11777357D01*
X16893357Y-11805929D01*
X16879071Y-11848786D01*
X16707643Y-12020214D01*
X16893357Y-12020214D01*
X17250500Y-12020214D02*
X17250500Y-11720214D01*
X17379071Y-12020214D02*
X17379071Y-11863071D01*
X17364786Y-11834500D01*
X17336214Y-11820214D01*
X17293357Y-11820214D01*
X17264786Y-11834500D01*
X17250500Y-11848786D01*
X17564786Y-12020214D02*
X17536214Y-12005929D01*
X17521928Y-11991643D01*
X17507643Y-11963071D01*
X17507643Y-11877357D01*
X17521928Y-11848786D01*
X17536214Y-11834500D01*
X17564786Y-11820214D01*
X17607643Y-11820214D01*
X17636214Y-11834500D01*
X17650500Y-11848786D01*
X17664786Y-11877357D01*
X17664786Y-11963071D01*
X17650500Y-11991643D01*
X17636214Y-12005929D01*
X17607643Y-12020214D01*
X17564786Y-12020214D01*
X17836214Y-12020214D02*
X17807643Y-12005929D01*
X17793357Y-11977357D01*
X17793357Y-11720214D01*
X18064786Y-12005929D02*
X18036214Y-12020214D01*
X17979071Y-12020214D01*
X17950500Y-12005929D01*
X17936214Y-11977357D01*
X17936214Y-11863071D01*
X17950500Y-11834500D01*
X17979071Y-11820214D01*
X18036214Y-11820214D01*
X18064786Y-11834500D01*
X18079071Y-11863071D01*
X18079071Y-11891643D01*
X17936214Y-11920214D01*
X18193357Y-12005929D02*
X18221928Y-12020214D01*
X18279071Y-12020214D01*
X18307643Y-12005929D01*
X18321928Y-11977357D01*
X18321928Y-11963071D01*
X18307643Y-11934500D01*
X18279071Y-11920214D01*
X18236214Y-11920214D01*
X18207643Y-11905929D01*
X18193357Y-11877357D01*
X18193357Y-11863071D01*
X18207643Y-11834500D01*
X18236214Y-11820214D01*
X18279071Y-11820214D01*
X18307643Y-11834500D01*
X18421928Y-12134500D02*
X18436214Y-12120214D01*
X18464786Y-12077357D01*
X18479071Y-12048786D01*
X18493357Y-12005929D01*
X18507643Y-11934500D01*
X18507643Y-11877357D01*
X18493357Y-11805929D01*
X18479071Y-11763071D01*
X18464786Y-11734500D01*
X18436214Y-11691643D01*
X18421928Y-11677357D01*
M02*
