%TF.GenerationSoftware,KiCad,Pcbnew,5.1.6+dfsg1-1~bpo10+1*%
%TF.CreationDate,2020-11-12T19:35:08+00:00*%
%TF.ProjectId,test,74657374-2e6b-4696-9361-645f70636258,v1*%
%TF.SameCoordinates,Original*%
%TF.FileFunction,Legend,Top*%
%TF.FilePolarity,Positive*%
%FSLAX46Y46*%
G04 Gerber Fmt 4.6, Leading zero omitted, Abs format (unit mm)*
G04 Created by KiCad (PCBNEW 5.1.6+dfsg1-1~bpo10+1) date 2020-11-12 19:35:08*
%MOMM*%
%LPD*%
G01*
G04 APERTURE LIST*
%ADD10C,0.120000*%
%ADD11C,0.010000*%
%ADD12C,0.150000*%
G04 APERTURE END LIST*
D10*
%TO.C,C1*%
X126288748Y-104500000D02*
X127711252Y-104500000D01*
X126288748Y-106320000D02*
X127711252Y-106320000D01*
%TO.C,R2*%
X123550000Y-99787064D02*
X123550000Y-98332936D01*
X125370000Y-99787064D02*
X125370000Y-98332936D01*
%TO.C,R1*%
X130535000Y-99787064D02*
X130535000Y-98332936D01*
X132355000Y-99787064D02*
X132355000Y-98332936D01*
D11*
%TO.C,LOGO1*%
G36*
X135284054Y-98196400D02*
G01*
X135397993Y-98185535D01*
X135505616Y-98153918D01*
X135604615Y-98103015D01*
X135692684Y-98034293D01*
X135767516Y-97949219D01*
X135825384Y-97852232D01*
X135865005Y-97745964D01*
X135883573Y-97638950D01*
X135882434Y-97533300D01*
X135862930Y-97431125D01*
X135826406Y-97334534D01*
X135774205Y-97245638D01*
X135707673Y-97166546D01*
X135628152Y-97099369D01*
X135536987Y-97046217D01*
X135435523Y-97009199D01*
X135325102Y-96990427D01*
X135275206Y-96988489D01*
X135187267Y-96988489D01*
X135187267Y-96936560D01*
X135190111Y-96900253D01*
X135201911Y-96873355D01*
X135225649Y-96846249D01*
X135264031Y-96807867D01*
X137455602Y-96807867D01*
X137717739Y-96807876D01*
X137958241Y-96807908D01*
X138178048Y-96807972D01*
X138378101Y-96808076D01*
X138559344Y-96808227D01*
X138722716Y-96808434D01*
X138869160Y-96808706D01*
X138999617Y-96809050D01*
X139115029Y-96809474D01*
X139216338Y-96809987D01*
X139304484Y-96810597D01*
X139380410Y-96811312D01*
X139445057Y-96812140D01*
X139499367Y-96813089D01*
X139544280Y-96814167D01*
X139580740Y-96815383D01*
X139609687Y-96816745D01*
X139632063Y-96818261D01*
X139648809Y-96819938D01*
X139660868Y-96821786D01*
X139669180Y-96823813D01*
X139674687Y-96826025D01*
X139676537Y-96827108D01*
X139683549Y-96831271D01*
X139689996Y-96834805D01*
X139695900Y-96838635D01*
X139701286Y-96843682D01*
X139706178Y-96850871D01*
X139710598Y-96861123D01*
X139714572Y-96875364D01*
X139718121Y-96894514D01*
X139721270Y-96919499D01*
X139724042Y-96951240D01*
X139726461Y-96990662D01*
X139728551Y-97038686D01*
X139730335Y-97096237D01*
X139731837Y-97164237D01*
X139733080Y-97243610D01*
X139734089Y-97335279D01*
X139734885Y-97440166D01*
X139735494Y-97559196D01*
X139735939Y-97693290D01*
X139736243Y-97843373D01*
X139736430Y-98010367D01*
X139736524Y-98195196D01*
X139736548Y-98398783D01*
X139736525Y-98622050D01*
X139736480Y-98865922D01*
X139736437Y-99131321D01*
X139736432Y-99169704D01*
X139736389Y-99436682D01*
X139736318Y-99682002D01*
X139736213Y-99906583D01*
X139736066Y-100111345D01*
X139735869Y-100297206D01*
X139735616Y-100465088D01*
X139735300Y-100615908D01*
X139734913Y-100750587D01*
X139734447Y-100870044D01*
X139733897Y-100975199D01*
X139733253Y-101066971D01*
X139732511Y-101146279D01*
X139731661Y-101214043D01*
X139730697Y-101271182D01*
X139729611Y-101318617D01*
X139728397Y-101357266D01*
X139727047Y-101388049D01*
X139725555Y-101411885D01*
X139723911Y-101429694D01*
X139722111Y-101442395D01*
X139720145Y-101450908D01*
X139718477Y-101455266D01*
X139714906Y-101463728D01*
X139712270Y-101471497D01*
X139709634Y-101478602D01*
X139706062Y-101485073D01*
X139700621Y-101490939D01*
X139692375Y-101496229D01*
X139680390Y-101500974D01*
X139663731Y-101505202D01*
X139641463Y-101508943D01*
X139612652Y-101512227D01*
X139576363Y-101515083D01*
X139531661Y-101517540D01*
X139477611Y-101519629D01*
X139413279Y-101521378D01*
X139337730Y-101522817D01*
X139250030Y-101523976D01*
X139149243Y-101524883D01*
X139034434Y-101525569D01*
X138904670Y-101526063D01*
X138759015Y-101526395D01*
X138596535Y-101526593D01*
X138416295Y-101526687D01*
X138217360Y-101526708D01*
X137998796Y-101526685D01*
X137759668Y-101526646D01*
X137499040Y-101526622D01*
X137456889Y-101526622D01*
X137193992Y-101526636D01*
X136952732Y-101526661D01*
X136732165Y-101526671D01*
X136531352Y-101526642D01*
X136349349Y-101526548D01*
X136185216Y-101526362D01*
X136038011Y-101526059D01*
X135906792Y-101525614D01*
X135796867Y-101525034D01*
X135796867Y-101222197D01*
X135854711Y-101182407D01*
X135870479Y-101171236D01*
X135884441Y-101161166D01*
X135897784Y-101152138D01*
X135911693Y-101144097D01*
X135927356Y-101136986D01*
X135945958Y-101130747D01*
X135968686Y-101125325D01*
X135996727Y-101120662D01*
X136031267Y-101116701D01*
X136073492Y-101113385D01*
X136124589Y-101110659D01*
X136185744Y-101108464D01*
X136258144Y-101106745D01*
X136342975Y-101105444D01*
X136441422Y-101104505D01*
X136554674Y-101103870D01*
X136683916Y-101103484D01*
X136830334Y-101103288D01*
X136995116Y-101103227D01*
X137179447Y-101103243D01*
X137384513Y-101103280D01*
X137507133Y-101103289D01*
X137724082Y-101103265D01*
X137919642Y-101103231D01*
X138094999Y-101103243D01*
X138251341Y-101103358D01*
X138389857Y-101103630D01*
X138511734Y-101104118D01*
X138618160Y-101104876D01*
X138710322Y-101105962D01*
X138789409Y-101107431D01*
X138856608Y-101109340D01*
X138913107Y-101111744D01*
X138960093Y-101114701D01*
X138998755Y-101118266D01*
X139030280Y-101122495D01*
X139055855Y-101127446D01*
X139076670Y-101133173D01*
X139093911Y-101139733D01*
X139108765Y-101147183D01*
X139122422Y-101155579D01*
X139136069Y-101164976D01*
X139150893Y-101175432D01*
X139159783Y-101181523D01*
X139217400Y-101220296D01*
X139217400Y-100688732D01*
X139217365Y-100565483D01*
X139217215Y-100462987D01*
X139216878Y-100379420D01*
X139216286Y-100312956D01*
X139215367Y-100261771D01*
X139214051Y-100224041D01*
X139212269Y-100197940D01*
X139209951Y-100181644D01*
X139207026Y-100173328D01*
X139203424Y-100171168D01*
X139199075Y-100173339D01*
X139197645Y-100174535D01*
X139160573Y-100199685D01*
X139107772Y-100225583D01*
X139045770Y-100249192D01*
X139019357Y-100257461D01*
X139001416Y-100262078D01*
X138980355Y-100265979D01*
X138954089Y-100269248D01*
X138920532Y-100271966D01*
X138877599Y-100274215D01*
X138823204Y-100276077D01*
X138755262Y-100277636D01*
X138671688Y-100278972D01*
X138570395Y-100280169D01*
X138449300Y-100281308D01*
X138404600Y-100281685D01*
X138279449Y-100282702D01*
X138175082Y-100283460D01*
X138089707Y-100283903D01*
X138021533Y-100283970D01*
X137968765Y-100283605D01*
X137929614Y-100282748D01*
X137902285Y-100281341D01*
X137884986Y-100279325D01*
X137875926Y-100276643D01*
X137873312Y-100273236D01*
X137875351Y-100269044D01*
X137879667Y-100264571D01*
X137892602Y-100254216D01*
X137921676Y-100232158D01*
X137964759Y-100199957D01*
X138019718Y-100159174D01*
X138084423Y-100111370D01*
X138156742Y-100058105D01*
X138234544Y-100000940D01*
X138315698Y-99941437D01*
X138398072Y-99881155D01*
X138479536Y-99821655D01*
X138557957Y-99764498D01*
X138631204Y-99711245D01*
X138697147Y-99663457D01*
X138753654Y-99622693D01*
X138798593Y-99590516D01*
X138829834Y-99568485D01*
X138836466Y-99563917D01*
X138873369Y-99540996D01*
X138921359Y-99514188D01*
X138970897Y-99488789D01*
X138977577Y-99485568D01*
X139025772Y-99463890D01*
X139063334Y-99451304D01*
X139099160Y-99445574D01*
X139141200Y-99444456D01*
X139217400Y-99445090D01*
X139217400Y-98290651D01*
X139123669Y-98381815D01*
X139073775Y-98428612D01*
X139017295Y-98478899D01*
X138963026Y-98524944D01*
X138937673Y-98545369D01*
X138898128Y-98575807D01*
X138844916Y-98615862D01*
X138779667Y-98664361D01*
X138704011Y-98720135D01*
X138619577Y-98782011D01*
X138527994Y-98848819D01*
X138430892Y-98919387D01*
X138329901Y-98992545D01*
X138226650Y-99067121D01*
X138122768Y-99141944D01*
X138019885Y-99215843D01*
X137919631Y-99287646D01*
X137823636Y-99356184D01*
X137733527Y-99420284D01*
X137650936Y-99478775D01*
X137577492Y-99530486D01*
X137514824Y-99574247D01*
X137464561Y-99608885D01*
X137428334Y-99633230D01*
X137407771Y-99646111D01*
X137403668Y-99647869D01*
X137392342Y-99639910D01*
X137365162Y-99619115D01*
X137323829Y-99586847D01*
X137270044Y-99544470D01*
X137205506Y-99493347D01*
X137131918Y-99434841D01*
X137050978Y-99370314D01*
X136964388Y-99301131D01*
X136873848Y-99228653D01*
X136781060Y-99154246D01*
X136706702Y-99094517D01*
X136706702Y-98083511D01*
X136719659Y-98077602D01*
X136741908Y-98063272D01*
X136743391Y-98062225D01*
X136773544Y-98043438D01*
X136810375Y-98023791D01*
X136818511Y-98019892D01*
X136826940Y-98016356D01*
X136837059Y-98013230D01*
X136850260Y-98010486D01*
X136867938Y-98008092D01*
X136891484Y-98006019D01*
X136922293Y-98004235D01*
X136961757Y-98002712D01*
X137011269Y-98001419D01*
X137072223Y-98000326D01*
X137146011Y-97999403D01*
X137234028Y-97998619D01*
X137337665Y-97997945D01*
X137458316Y-97997350D01*
X137597374Y-97996805D01*
X137756232Y-97996279D01*
X137935089Y-97995745D01*
X138120207Y-97995206D01*
X138284145Y-97994772D01*
X138428303Y-97994509D01*
X138554079Y-97994484D01*
X138662871Y-97994765D01*
X138756077Y-97995419D01*
X138835097Y-97996514D01*
X138901328Y-97998118D01*
X138956170Y-98000297D01*
X139001021Y-98003119D01*
X139037278Y-98006651D01*
X139066341Y-98010961D01*
X139089609Y-98016117D01*
X139108479Y-98022185D01*
X139124351Y-98029233D01*
X139138622Y-98037329D01*
X139152691Y-98046540D01*
X139165158Y-98055040D01*
X139191452Y-98072176D01*
X139209037Y-98082322D01*
X139212257Y-98083511D01*
X139213334Y-98072604D01*
X139214335Y-98041411D01*
X139215235Y-97992223D01*
X139216010Y-97927333D01*
X139216637Y-97849030D01*
X139217091Y-97759607D01*
X139217349Y-97661356D01*
X139217400Y-97592445D01*
X139217180Y-97487452D01*
X139216548Y-97390610D01*
X139215549Y-97304107D01*
X139214227Y-97230132D01*
X139212626Y-97170874D01*
X139210791Y-97128520D01*
X139208765Y-97105260D01*
X139207493Y-97101378D01*
X139192591Y-97109076D01*
X139184560Y-97117074D01*
X139167434Y-97130246D01*
X139137183Y-97147485D01*
X139112622Y-97159407D01*
X139053711Y-97186045D01*
X137876845Y-97189120D01*
X136699978Y-97192195D01*
X136699978Y-97637853D01*
X136700142Y-97735670D01*
X136700611Y-97826064D01*
X136701347Y-97906630D01*
X136702316Y-97974962D01*
X136703480Y-98028656D01*
X136704803Y-98065305D01*
X136706249Y-98082504D01*
X136706702Y-98083511D01*
X136706702Y-99094517D01*
X136687722Y-99079270D01*
X136595537Y-99005090D01*
X136506204Y-98933069D01*
X136421424Y-98864569D01*
X136342898Y-98800955D01*
X136272326Y-98743588D01*
X136211409Y-98693833D01*
X136161847Y-98653052D01*
X136141178Y-98635888D01*
X136040516Y-98549596D01*
X135957259Y-98472997D01*
X135889438Y-98404183D01*
X135835089Y-98341248D01*
X135827722Y-98331867D01*
X135797117Y-98292356D01*
X135796867Y-99424116D01*
X135844844Y-99418827D01*
X135902188Y-99422130D01*
X135970463Y-99443661D01*
X136050212Y-99483635D01*
X136122495Y-99528943D01*
X136145140Y-99545161D01*
X136182696Y-99573214D01*
X136233021Y-99611430D01*
X136293973Y-99658137D01*
X136363411Y-99711661D01*
X136439194Y-99770331D01*
X136519180Y-99832475D01*
X136601228Y-99896421D01*
X136683196Y-99960495D01*
X136762943Y-100023027D01*
X136838327Y-100082343D01*
X136907207Y-100136771D01*
X136967442Y-100184639D01*
X137016889Y-100224275D01*
X137053408Y-100254006D01*
X137074858Y-100272161D01*
X137078156Y-100275220D01*
X137070149Y-100278079D01*
X137039855Y-100280293D01*
X136987556Y-100281857D01*
X136913531Y-100282767D01*
X136818063Y-100283020D01*
X136701434Y-100282613D01*
X136581445Y-100281704D01*
X136449333Y-100280382D01*
X136337594Y-100278857D01*
X136244025Y-100276881D01*
X136166419Y-100274206D01*
X136102574Y-100270582D01*
X136050283Y-100265761D01*
X136007344Y-100259494D01*
X135971551Y-100251532D01*
X135940700Y-100241627D01*
X135912586Y-100229531D01*
X135885005Y-100214993D01*
X135859966Y-100200311D01*
X135796867Y-100162314D01*
X135796867Y-101222197D01*
X135796867Y-101525034D01*
X135790617Y-101525001D01*
X135688544Y-101524195D01*
X135599633Y-101523170D01*
X135522941Y-101521900D01*
X135457527Y-101520360D01*
X135402449Y-101518524D01*
X135356765Y-101516367D01*
X135319534Y-101513863D01*
X135289813Y-101510987D01*
X135266662Y-101507713D01*
X135249139Y-101504015D01*
X135236301Y-101499869D01*
X135227208Y-101495247D01*
X135220918Y-101490126D01*
X135216488Y-101484478D01*
X135212978Y-101478279D01*
X135209445Y-101471504D01*
X135205876Y-101465508D01*
X135203300Y-101460275D01*
X135200972Y-101452099D01*
X135198878Y-101439886D01*
X135197007Y-101422541D01*
X135195347Y-101398969D01*
X135193884Y-101368077D01*
X135192608Y-101328768D01*
X135191504Y-101279950D01*
X135190561Y-101220527D01*
X135189767Y-101149404D01*
X135189109Y-101065488D01*
X135188575Y-100967683D01*
X135188153Y-100854894D01*
X135187829Y-100726029D01*
X135187592Y-100579991D01*
X135187430Y-100415686D01*
X135187330Y-100232020D01*
X135187280Y-100027897D01*
X135187267Y-99816753D01*
X135187267Y-98196400D01*
X135284054Y-98196400D01*
G37*
X135284054Y-98196400D02*
X135397993Y-98185535D01*
X135505616Y-98153918D01*
X135604615Y-98103015D01*
X135692684Y-98034293D01*
X135767516Y-97949219D01*
X135825384Y-97852232D01*
X135865005Y-97745964D01*
X135883573Y-97638950D01*
X135882434Y-97533300D01*
X135862930Y-97431125D01*
X135826406Y-97334534D01*
X135774205Y-97245638D01*
X135707673Y-97166546D01*
X135628152Y-97099369D01*
X135536987Y-97046217D01*
X135435523Y-97009199D01*
X135325102Y-96990427D01*
X135275206Y-96988489D01*
X135187267Y-96988489D01*
X135187267Y-96936560D01*
X135190111Y-96900253D01*
X135201911Y-96873355D01*
X135225649Y-96846249D01*
X135264031Y-96807867D01*
X137455602Y-96807867D01*
X137717739Y-96807876D01*
X137958241Y-96807908D01*
X138178048Y-96807972D01*
X138378101Y-96808076D01*
X138559344Y-96808227D01*
X138722716Y-96808434D01*
X138869160Y-96808706D01*
X138999617Y-96809050D01*
X139115029Y-96809474D01*
X139216338Y-96809987D01*
X139304484Y-96810597D01*
X139380410Y-96811312D01*
X139445057Y-96812140D01*
X139499367Y-96813089D01*
X139544280Y-96814167D01*
X139580740Y-96815383D01*
X139609687Y-96816745D01*
X139632063Y-96818261D01*
X139648809Y-96819938D01*
X139660868Y-96821786D01*
X139669180Y-96823813D01*
X139674687Y-96826025D01*
X139676537Y-96827108D01*
X139683549Y-96831271D01*
X139689996Y-96834805D01*
X139695900Y-96838635D01*
X139701286Y-96843682D01*
X139706178Y-96850871D01*
X139710598Y-96861123D01*
X139714572Y-96875364D01*
X139718121Y-96894514D01*
X139721270Y-96919499D01*
X139724042Y-96951240D01*
X139726461Y-96990662D01*
X139728551Y-97038686D01*
X139730335Y-97096237D01*
X139731837Y-97164237D01*
X139733080Y-97243610D01*
X139734089Y-97335279D01*
X139734885Y-97440166D01*
X139735494Y-97559196D01*
X139735939Y-97693290D01*
X139736243Y-97843373D01*
X139736430Y-98010367D01*
X139736524Y-98195196D01*
X139736548Y-98398783D01*
X139736525Y-98622050D01*
X139736480Y-98865922D01*
X139736437Y-99131321D01*
X139736432Y-99169704D01*
X139736389Y-99436682D01*
X139736318Y-99682002D01*
X139736213Y-99906583D01*
X139736066Y-100111345D01*
X139735869Y-100297206D01*
X139735616Y-100465088D01*
X139735300Y-100615908D01*
X139734913Y-100750587D01*
X139734447Y-100870044D01*
X139733897Y-100975199D01*
X139733253Y-101066971D01*
X139732511Y-101146279D01*
X139731661Y-101214043D01*
X139730697Y-101271182D01*
X139729611Y-101318617D01*
X139728397Y-101357266D01*
X139727047Y-101388049D01*
X139725555Y-101411885D01*
X139723911Y-101429694D01*
X139722111Y-101442395D01*
X139720145Y-101450908D01*
X139718477Y-101455266D01*
X139714906Y-101463728D01*
X139712270Y-101471497D01*
X139709634Y-101478602D01*
X139706062Y-101485073D01*
X139700621Y-101490939D01*
X139692375Y-101496229D01*
X139680390Y-101500974D01*
X139663731Y-101505202D01*
X139641463Y-101508943D01*
X139612652Y-101512227D01*
X139576363Y-101515083D01*
X139531661Y-101517540D01*
X139477611Y-101519629D01*
X139413279Y-101521378D01*
X139337730Y-101522817D01*
X139250030Y-101523976D01*
X139149243Y-101524883D01*
X139034434Y-101525569D01*
X138904670Y-101526063D01*
X138759015Y-101526395D01*
X138596535Y-101526593D01*
X138416295Y-101526687D01*
X138217360Y-101526708D01*
X137998796Y-101526685D01*
X137759668Y-101526646D01*
X137499040Y-101526622D01*
X137456889Y-101526622D01*
X137193992Y-101526636D01*
X136952732Y-101526661D01*
X136732165Y-101526671D01*
X136531352Y-101526642D01*
X136349349Y-101526548D01*
X136185216Y-101526362D01*
X136038011Y-101526059D01*
X135906792Y-101525614D01*
X135796867Y-101525034D01*
X135796867Y-101222197D01*
X135854711Y-101182407D01*
X135870479Y-101171236D01*
X135884441Y-101161166D01*
X135897784Y-101152138D01*
X135911693Y-101144097D01*
X135927356Y-101136986D01*
X135945958Y-101130747D01*
X135968686Y-101125325D01*
X135996727Y-101120662D01*
X136031267Y-101116701D01*
X136073492Y-101113385D01*
X136124589Y-101110659D01*
X136185744Y-101108464D01*
X136258144Y-101106745D01*
X136342975Y-101105444D01*
X136441422Y-101104505D01*
X136554674Y-101103870D01*
X136683916Y-101103484D01*
X136830334Y-101103288D01*
X136995116Y-101103227D01*
X137179447Y-101103243D01*
X137384513Y-101103280D01*
X137507133Y-101103289D01*
X137724082Y-101103265D01*
X137919642Y-101103231D01*
X138094999Y-101103243D01*
X138251341Y-101103358D01*
X138389857Y-101103630D01*
X138511734Y-101104118D01*
X138618160Y-101104876D01*
X138710322Y-101105962D01*
X138789409Y-101107431D01*
X138856608Y-101109340D01*
X138913107Y-101111744D01*
X138960093Y-101114701D01*
X138998755Y-101118266D01*
X139030280Y-101122495D01*
X139055855Y-101127446D01*
X139076670Y-101133173D01*
X139093911Y-101139733D01*
X139108765Y-101147183D01*
X139122422Y-101155579D01*
X139136069Y-101164976D01*
X139150893Y-101175432D01*
X139159783Y-101181523D01*
X139217400Y-101220296D01*
X139217400Y-100688732D01*
X139217365Y-100565483D01*
X139217215Y-100462987D01*
X139216878Y-100379420D01*
X139216286Y-100312956D01*
X139215367Y-100261771D01*
X139214051Y-100224041D01*
X139212269Y-100197940D01*
X139209951Y-100181644D01*
X139207026Y-100173328D01*
X139203424Y-100171168D01*
X139199075Y-100173339D01*
X139197645Y-100174535D01*
X139160573Y-100199685D01*
X139107772Y-100225583D01*
X139045770Y-100249192D01*
X139019357Y-100257461D01*
X139001416Y-100262078D01*
X138980355Y-100265979D01*
X138954089Y-100269248D01*
X138920532Y-100271966D01*
X138877599Y-100274215D01*
X138823204Y-100276077D01*
X138755262Y-100277636D01*
X138671688Y-100278972D01*
X138570395Y-100280169D01*
X138449300Y-100281308D01*
X138404600Y-100281685D01*
X138279449Y-100282702D01*
X138175082Y-100283460D01*
X138089707Y-100283903D01*
X138021533Y-100283970D01*
X137968765Y-100283605D01*
X137929614Y-100282748D01*
X137902285Y-100281341D01*
X137884986Y-100279325D01*
X137875926Y-100276643D01*
X137873312Y-100273236D01*
X137875351Y-100269044D01*
X137879667Y-100264571D01*
X137892602Y-100254216D01*
X137921676Y-100232158D01*
X137964759Y-100199957D01*
X138019718Y-100159174D01*
X138084423Y-100111370D01*
X138156742Y-100058105D01*
X138234544Y-100000940D01*
X138315698Y-99941437D01*
X138398072Y-99881155D01*
X138479536Y-99821655D01*
X138557957Y-99764498D01*
X138631204Y-99711245D01*
X138697147Y-99663457D01*
X138753654Y-99622693D01*
X138798593Y-99590516D01*
X138829834Y-99568485D01*
X138836466Y-99563917D01*
X138873369Y-99540996D01*
X138921359Y-99514188D01*
X138970897Y-99488789D01*
X138977577Y-99485568D01*
X139025772Y-99463890D01*
X139063334Y-99451304D01*
X139099160Y-99445574D01*
X139141200Y-99444456D01*
X139217400Y-99445090D01*
X139217400Y-98290651D01*
X139123669Y-98381815D01*
X139073775Y-98428612D01*
X139017295Y-98478899D01*
X138963026Y-98524944D01*
X138937673Y-98545369D01*
X138898128Y-98575807D01*
X138844916Y-98615862D01*
X138779667Y-98664361D01*
X138704011Y-98720135D01*
X138619577Y-98782011D01*
X138527994Y-98848819D01*
X138430892Y-98919387D01*
X138329901Y-98992545D01*
X138226650Y-99067121D01*
X138122768Y-99141944D01*
X138019885Y-99215843D01*
X137919631Y-99287646D01*
X137823636Y-99356184D01*
X137733527Y-99420284D01*
X137650936Y-99478775D01*
X137577492Y-99530486D01*
X137514824Y-99574247D01*
X137464561Y-99608885D01*
X137428334Y-99633230D01*
X137407771Y-99646111D01*
X137403668Y-99647869D01*
X137392342Y-99639910D01*
X137365162Y-99619115D01*
X137323829Y-99586847D01*
X137270044Y-99544470D01*
X137205506Y-99493347D01*
X137131918Y-99434841D01*
X137050978Y-99370314D01*
X136964388Y-99301131D01*
X136873848Y-99228653D01*
X136781060Y-99154246D01*
X136706702Y-99094517D01*
X136706702Y-98083511D01*
X136719659Y-98077602D01*
X136741908Y-98063272D01*
X136743391Y-98062225D01*
X136773544Y-98043438D01*
X136810375Y-98023791D01*
X136818511Y-98019892D01*
X136826940Y-98016356D01*
X136837059Y-98013230D01*
X136850260Y-98010486D01*
X136867938Y-98008092D01*
X136891484Y-98006019D01*
X136922293Y-98004235D01*
X136961757Y-98002712D01*
X137011269Y-98001419D01*
X137072223Y-98000326D01*
X137146011Y-97999403D01*
X137234028Y-97998619D01*
X137337665Y-97997945D01*
X137458316Y-97997350D01*
X137597374Y-97996805D01*
X137756232Y-97996279D01*
X137935089Y-97995745D01*
X138120207Y-97995206D01*
X138284145Y-97994772D01*
X138428303Y-97994509D01*
X138554079Y-97994484D01*
X138662871Y-97994765D01*
X138756077Y-97995419D01*
X138835097Y-97996514D01*
X138901328Y-97998118D01*
X138956170Y-98000297D01*
X139001021Y-98003119D01*
X139037278Y-98006651D01*
X139066341Y-98010961D01*
X139089609Y-98016117D01*
X139108479Y-98022185D01*
X139124351Y-98029233D01*
X139138622Y-98037329D01*
X139152691Y-98046540D01*
X139165158Y-98055040D01*
X139191452Y-98072176D01*
X139209037Y-98082322D01*
X139212257Y-98083511D01*
X139213334Y-98072604D01*
X139214335Y-98041411D01*
X139215235Y-97992223D01*
X139216010Y-97927333D01*
X139216637Y-97849030D01*
X139217091Y-97759607D01*
X139217349Y-97661356D01*
X139217400Y-97592445D01*
X139217180Y-97487452D01*
X139216548Y-97390610D01*
X139215549Y-97304107D01*
X139214227Y-97230132D01*
X139212626Y-97170874D01*
X139210791Y-97128520D01*
X139208765Y-97105260D01*
X139207493Y-97101378D01*
X139192591Y-97109076D01*
X139184560Y-97117074D01*
X139167434Y-97130246D01*
X139137183Y-97147485D01*
X139112622Y-97159407D01*
X139053711Y-97186045D01*
X137876845Y-97189120D01*
X136699978Y-97192195D01*
X136699978Y-97637853D01*
X136700142Y-97735670D01*
X136700611Y-97826064D01*
X136701347Y-97906630D01*
X136702316Y-97974962D01*
X136703480Y-98028656D01*
X136704803Y-98065305D01*
X136706249Y-98082504D01*
X136706702Y-98083511D01*
X136706702Y-99094517D01*
X136687722Y-99079270D01*
X136595537Y-99005090D01*
X136506204Y-98933069D01*
X136421424Y-98864569D01*
X136342898Y-98800955D01*
X136272326Y-98743588D01*
X136211409Y-98693833D01*
X136161847Y-98653052D01*
X136141178Y-98635888D01*
X136040516Y-98549596D01*
X135957259Y-98472997D01*
X135889438Y-98404183D01*
X135835089Y-98341248D01*
X135827722Y-98331867D01*
X135797117Y-98292356D01*
X135796867Y-99424116D01*
X135844844Y-99418827D01*
X135902188Y-99422130D01*
X135970463Y-99443661D01*
X136050212Y-99483635D01*
X136122495Y-99528943D01*
X136145140Y-99545161D01*
X136182696Y-99573214D01*
X136233021Y-99611430D01*
X136293973Y-99658137D01*
X136363411Y-99711661D01*
X136439194Y-99770331D01*
X136519180Y-99832475D01*
X136601228Y-99896421D01*
X136683196Y-99960495D01*
X136762943Y-100023027D01*
X136838327Y-100082343D01*
X136907207Y-100136771D01*
X136967442Y-100184639D01*
X137016889Y-100224275D01*
X137053408Y-100254006D01*
X137074858Y-100272161D01*
X137078156Y-100275220D01*
X137070149Y-100278079D01*
X137039855Y-100280293D01*
X136987556Y-100281857D01*
X136913531Y-100282767D01*
X136818063Y-100283020D01*
X136701434Y-100282613D01*
X136581445Y-100281704D01*
X136449333Y-100280382D01*
X136337594Y-100278857D01*
X136244025Y-100276881D01*
X136166419Y-100274206D01*
X136102574Y-100270582D01*
X136050283Y-100265761D01*
X136007344Y-100259494D01*
X135971551Y-100251532D01*
X135940700Y-100241627D01*
X135912586Y-100229531D01*
X135885005Y-100214993D01*
X135859966Y-100200311D01*
X135796867Y-100162314D01*
X135796867Y-101222197D01*
X135796867Y-101525034D01*
X135790617Y-101525001D01*
X135688544Y-101524195D01*
X135599633Y-101523170D01*
X135522941Y-101521900D01*
X135457527Y-101520360D01*
X135402449Y-101518524D01*
X135356765Y-101516367D01*
X135319534Y-101513863D01*
X135289813Y-101510987D01*
X135266662Y-101507713D01*
X135249139Y-101504015D01*
X135236301Y-101499869D01*
X135227208Y-101495247D01*
X135220918Y-101490126D01*
X135216488Y-101484478D01*
X135212978Y-101478279D01*
X135209445Y-101471504D01*
X135205876Y-101465508D01*
X135203300Y-101460275D01*
X135200972Y-101452099D01*
X135198878Y-101439886D01*
X135197007Y-101422541D01*
X135195347Y-101398969D01*
X135193884Y-101368077D01*
X135192608Y-101328768D01*
X135191504Y-101279950D01*
X135190561Y-101220527D01*
X135189767Y-101149404D01*
X135189109Y-101065488D01*
X135188575Y-100967683D01*
X135188153Y-100854894D01*
X135187829Y-100726029D01*
X135187592Y-100579991D01*
X135187430Y-100415686D01*
X135187330Y-100232020D01*
X135187280Y-100027897D01*
X135187267Y-99816753D01*
X135187267Y-98196400D01*
X135284054Y-98196400D01*
G36*
X135744071Y-94921571D02*
G01*
X135765245Y-94761430D01*
X135805385Y-94597490D01*
X135864889Y-94427687D01*
X135944154Y-94249957D01*
X135949699Y-94238690D01*
X135977725Y-94180995D01*
X136001802Y-94129448D01*
X136020249Y-94087809D01*
X136031386Y-94059838D01*
X136033933Y-94050267D01*
X136038941Y-94031050D01*
X136043147Y-94026439D01*
X136053580Y-94031542D01*
X136079868Y-94047582D01*
X136119257Y-94072712D01*
X136168991Y-94105086D01*
X136226315Y-94142857D01*
X136288476Y-94184178D01*
X136352718Y-94227202D01*
X136416285Y-94270083D01*
X136476425Y-94310974D01*
X136530380Y-94348029D01*
X136575397Y-94379400D01*
X136608721Y-94403241D01*
X136627597Y-94417706D01*
X136629787Y-94419691D01*
X136625138Y-94429809D01*
X136607962Y-94452150D01*
X136581440Y-94482720D01*
X136566964Y-94498464D01*
X136491682Y-94594953D01*
X136436241Y-94701664D01*
X136401141Y-94817168D01*
X136386880Y-94940038D01*
X136388051Y-95009439D01*
X136405212Y-95130577D01*
X136441094Y-95239795D01*
X136495959Y-95337418D01*
X136570070Y-95423772D01*
X136663688Y-95499185D01*
X136777076Y-95563982D01*
X136863667Y-95601399D01*
X136999366Y-95645252D01*
X137146850Y-95677572D01*
X137302314Y-95698443D01*
X137461956Y-95707949D01*
X137621973Y-95706173D01*
X137778561Y-95693197D01*
X137927918Y-95669106D01*
X138066240Y-95633982D01*
X138189724Y-95587908D01*
X138223978Y-95571627D01*
X138338064Y-95503380D01*
X138434557Y-95422921D01*
X138512670Y-95331430D01*
X138571617Y-95230089D01*
X138610612Y-95120080D01*
X138628868Y-95002585D01*
X138630211Y-94961117D01*
X138619290Y-94839559D01*
X138586474Y-94719122D01*
X138532439Y-94601334D01*
X138457865Y-94487723D01*
X138379539Y-94396315D01*
X138335008Y-94349785D01*
X138632271Y-94168517D01*
X138706433Y-94123420D01*
X138774646Y-94082181D01*
X138834459Y-94046265D01*
X138883420Y-94017134D01*
X138919079Y-93996250D01*
X138938984Y-93985076D01*
X138942079Y-93983625D01*
X138951718Y-93991854D01*
X138968999Y-94017433D01*
X138992283Y-94057127D01*
X139019934Y-94107703D01*
X139050315Y-94165926D01*
X139081790Y-94228563D01*
X139112722Y-94292379D01*
X139141473Y-94354140D01*
X139166408Y-94410612D01*
X139185889Y-94458562D01*
X139194318Y-94482014D01*
X139232133Y-94615779D01*
X139257136Y-94753673D01*
X139270140Y-94901378D01*
X139272468Y-95028167D01*
X139271373Y-95096122D01*
X139269275Y-95161723D01*
X139266434Y-95219153D01*
X139263106Y-95262597D01*
X139261422Y-95276702D01*
X139232587Y-95415716D01*
X139187468Y-95557243D01*
X139128750Y-95694725D01*
X139059120Y-95821606D01*
X139006441Y-95899111D01*
X138898239Y-96026519D01*
X138771671Y-96144822D01*
X138629866Y-96251828D01*
X138475951Y-96345348D01*
X138313053Y-96423190D01*
X138195756Y-96467044D01*
X138012128Y-96517292D01*
X137817581Y-96550791D01*
X137616325Y-96567551D01*
X137412568Y-96567584D01*
X137210521Y-96550899D01*
X137014392Y-96517507D01*
X136828391Y-96467420D01*
X136816803Y-96463603D01*
X136654750Y-96400719D01*
X136506832Y-96323972D01*
X136368865Y-96230758D01*
X136236661Y-96118473D01*
X136191399Y-96074608D01*
X136067457Y-95938466D01*
X135964915Y-95798509D01*
X135882656Y-95652589D01*
X135819564Y-95498558D01*
X135774523Y-95334268D01*
X135757033Y-95238711D01*
X135741466Y-95079977D01*
X135744071Y-94921571D01*
G37*
X135744071Y-94921571D02*
X135765245Y-94761430D01*
X135805385Y-94597490D01*
X135864889Y-94427687D01*
X135944154Y-94249957D01*
X135949699Y-94238690D01*
X135977725Y-94180995D01*
X136001802Y-94129448D01*
X136020249Y-94087809D01*
X136031386Y-94059838D01*
X136033933Y-94050267D01*
X136038941Y-94031050D01*
X136043147Y-94026439D01*
X136053580Y-94031542D01*
X136079868Y-94047582D01*
X136119257Y-94072712D01*
X136168991Y-94105086D01*
X136226315Y-94142857D01*
X136288476Y-94184178D01*
X136352718Y-94227202D01*
X136416285Y-94270083D01*
X136476425Y-94310974D01*
X136530380Y-94348029D01*
X136575397Y-94379400D01*
X136608721Y-94403241D01*
X136627597Y-94417706D01*
X136629787Y-94419691D01*
X136625138Y-94429809D01*
X136607962Y-94452150D01*
X136581440Y-94482720D01*
X136566964Y-94498464D01*
X136491682Y-94594953D01*
X136436241Y-94701664D01*
X136401141Y-94817168D01*
X136386880Y-94940038D01*
X136388051Y-95009439D01*
X136405212Y-95130577D01*
X136441094Y-95239795D01*
X136495959Y-95337418D01*
X136570070Y-95423772D01*
X136663688Y-95499185D01*
X136777076Y-95563982D01*
X136863667Y-95601399D01*
X136999366Y-95645252D01*
X137146850Y-95677572D01*
X137302314Y-95698443D01*
X137461956Y-95707949D01*
X137621973Y-95706173D01*
X137778561Y-95693197D01*
X137927918Y-95669106D01*
X138066240Y-95633982D01*
X138189724Y-95587908D01*
X138223978Y-95571627D01*
X138338064Y-95503380D01*
X138434557Y-95422921D01*
X138512670Y-95331430D01*
X138571617Y-95230089D01*
X138610612Y-95120080D01*
X138628868Y-95002585D01*
X138630211Y-94961117D01*
X138619290Y-94839559D01*
X138586474Y-94719122D01*
X138532439Y-94601334D01*
X138457865Y-94487723D01*
X138379539Y-94396315D01*
X138335008Y-94349785D01*
X138632271Y-94168517D01*
X138706433Y-94123420D01*
X138774646Y-94082181D01*
X138834459Y-94046265D01*
X138883420Y-94017134D01*
X138919079Y-93996250D01*
X138938984Y-93985076D01*
X138942079Y-93983625D01*
X138951718Y-93991854D01*
X138968999Y-94017433D01*
X138992283Y-94057127D01*
X139019934Y-94107703D01*
X139050315Y-94165926D01*
X139081790Y-94228563D01*
X139112722Y-94292379D01*
X139141473Y-94354140D01*
X139166408Y-94410612D01*
X139185889Y-94458562D01*
X139194318Y-94482014D01*
X139232133Y-94615779D01*
X139257136Y-94753673D01*
X139270140Y-94901378D01*
X139272468Y-95028167D01*
X139271373Y-95096122D01*
X139269275Y-95161723D01*
X139266434Y-95219153D01*
X139263106Y-95262597D01*
X139261422Y-95276702D01*
X139232587Y-95415716D01*
X139187468Y-95557243D01*
X139128750Y-95694725D01*
X139059120Y-95821606D01*
X139006441Y-95899111D01*
X138898239Y-96026519D01*
X138771671Y-96144822D01*
X138629866Y-96251828D01*
X138475951Y-96345348D01*
X138313053Y-96423190D01*
X138195756Y-96467044D01*
X138012128Y-96517292D01*
X137817581Y-96550791D01*
X137616325Y-96567551D01*
X137412568Y-96567584D01*
X137210521Y-96550899D01*
X137014392Y-96517507D01*
X136828391Y-96467420D01*
X136816803Y-96463603D01*
X136654750Y-96400719D01*
X136506832Y-96323972D01*
X136368865Y-96230758D01*
X136236661Y-96118473D01*
X136191399Y-96074608D01*
X136067457Y-95938466D01*
X135964915Y-95798509D01*
X135882656Y-95652589D01*
X135819564Y-95498558D01*
X135774523Y-95334268D01*
X135757033Y-95238711D01*
X135741466Y-95079977D01*
X135744071Y-94921571D01*
G36*
X136661552Y-92576426D02*
G01*
X136681567Y-92424508D01*
X136715202Y-92289244D01*
X136762725Y-92169761D01*
X136824405Y-92065185D01*
X136887965Y-91987576D01*
X136962099Y-91918735D01*
X137041871Y-91864994D01*
X137134091Y-91822090D01*
X137177161Y-91806616D01*
X137216142Y-91793756D01*
X137252289Y-91782554D01*
X137287434Y-91772880D01*
X137323410Y-91764604D01*
X137362050Y-91757597D01*
X137405185Y-91751728D01*
X137454649Y-91746869D01*
X137512273Y-91742890D01*
X137579891Y-91739660D01*
X137659334Y-91737051D01*
X137752436Y-91734933D01*
X137861027Y-91733176D01*
X137986942Y-91731651D01*
X138132012Y-91730228D01*
X138274778Y-91728975D01*
X138430968Y-91727649D01*
X138566239Y-91726444D01*
X138682246Y-91725234D01*
X138780645Y-91723894D01*
X138863093Y-91722300D01*
X138931246Y-91720325D01*
X138986760Y-91717844D01*
X139031292Y-91714731D01*
X139066498Y-91710862D01*
X139094034Y-91706111D01*
X139115556Y-91700352D01*
X139132722Y-91693461D01*
X139147186Y-91685311D01*
X139160606Y-91675777D01*
X139174638Y-91664734D01*
X139180071Y-91660434D01*
X139202910Y-91644614D01*
X139218463Y-91637578D01*
X139218922Y-91637556D01*
X139221121Y-91648433D01*
X139223147Y-91679418D01*
X139224942Y-91728043D01*
X139226451Y-91791837D01*
X139227616Y-91868331D01*
X139228380Y-91955056D01*
X139228686Y-92049543D01*
X139228689Y-92060450D01*
X139228689Y-92483343D01*
X139132622Y-92486605D01*
X139036556Y-92489867D01*
X139087543Y-92551956D01*
X139155057Y-92649286D01*
X139209749Y-92759187D01*
X139239978Y-92845651D01*
X139254666Y-92914722D01*
X139264659Y-92998075D01*
X139269646Y-93087841D01*
X139269313Y-93176155D01*
X139263351Y-93255149D01*
X139257638Y-93291378D01*
X139219776Y-93431397D01*
X139164932Y-93557822D01*
X139093924Y-93669740D01*
X139007568Y-93766238D01*
X138906679Y-93846400D01*
X138792076Y-93909313D01*
X138665984Y-93953688D01*
X138609401Y-93966022D01*
X138547202Y-93973632D01*
X138472363Y-93977261D01*
X138438467Y-93977755D01*
X138435282Y-93977690D01*
X138435282Y-93217752D01*
X138510333Y-93208459D01*
X138574160Y-93180272D01*
X138629798Y-93131803D01*
X138634211Y-93126746D01*
X138669037Y-93078452D01*
X138691620Y-93026743D01*
X138703540Y-92966011D01*
X138706383Y-92890648D01*
X138705978Y-92872541D01*
X138703325Y-92818722D01*
X138697909Y-92778692D01*
X138687745Y-92743676D01*
X138670850Y-92704897D01*
X138665672Y-92694255D01*
X138629844Y-92633604D01*
X138587212Y-92586785D01*
X138571973Y-92574048D01*
X138515462Y-92529378D01*
X138319586Y-92529378D01*
X138240939Y-92529914D01*
X138182988Y-92531604D01*
X138143875Y-92534572D01*
X138121741Y-92538943D01*
X138115274Y-92543028D01*
X138112111Y-92558953D01*
X138109488Y-92592736D01*
X138107655Y-92639660D01*
X138106857Y-92695007D01*
X138106842Y-92703894D01*
X138112096Y-92824670D01*
X138128263Y-92927340D01*
X138155961Y-93013894D01*
X138195808Y-93086319D01*
X138242758Y-93141249D01*
X138300645Y-93185796D01*
X138363693Y-93210520D01*
X138435282Y-93217752D01*
X138435282Y-93977690D01*
X138344712Y-93975822D01*
X138265812Y-93967478D01*
X138194590Y-93951232D01*
X138123864Y-93925595D01*
X138071493Y-93901599D01*
X137976196Y-93842980D01*
X137888170Y-93764883D01*
X137809017Y-93669685D01*
X137740340Y-93559762D01*
X137683741Y-93437490D01*
X137640821Y-93305245D01*
X137625882Y-93240578D01*
X137603777Y-93104396D01*
X137589194Y-92955951D01*
X137582813Y-92804495D01*
X137584445Y-92677936D01*
X137591224Y-92516050D01*
X137532245Y-92523470D01*
X137433092Y-92542762D01*
X137352372Y-92573896D01*
X137289466Y-92617731D01*
X137243756Y-92675129D01*
X137214622Y-92746952D01*
X137201447Y-92834059D01*
X137203611Y-92937314D01*
X137207612Y-92975289D01*
X137232780Y-93116480D01*
X137273814Y-93253293D01*
X137311815Y-93347822D01*
X137331190Y-93392982D01*
X137346760Y-93431415D01*
X137356405Y-93457766D01*
X137358452Y-93465454D01*
X137349374Y-93475198D01*
X137320405Y-93491917D01*
X137271217Y-93515768D01*
X137201484Y-93546907D01*
X137110879Y-93585493D01*
X137095089Y-93592090D01*
X137022772Y-93622147D01*
X136957425Y-93649126D01*
X136901906Y-93671864D01*
X136859072Y-93689194D01*
X136831781Y-93699952D01*
X136822942Y-93703059D01*
X136818187Y-93693060D01*
X136812910Y-93666783D01*
X136809231Y-93638511D01*
X136804474Y-93608354D01*
X136795028Y-93560567D01*
X136781820Y-93499388D01*
X136765776Y-93429054D01*
X136747820Y-93353806D01*
X136740797Y-93325245D01*
X136715209Y-93220184D01*
X136695147Y-93132520D01*
X136679969Y-93057932D01*
X136669035Y-92992097D01*
X136661704Y-92930693D01*
X136657335Y-92869398D01*
X136655287Y-92803890D01*
X136654889Y-92745872D01*
X136661552Y-92576426D01*
G37*
X136661552Y-92576426D02*
X136681567Y-92424508D01*
X136715202Y-92289244D01*
X136762725Y-92169761D01*
X136824405Y-92065185D01*
X136887965Y-91987576D01*
X136962099Y-91918735D01*
X137041871Y-91864994D01*
X137134091Y-91822090D01*
X137177161Y-91806616D01*
X137216142Y-91793756D01*
X137252289Y-91782554D01*
X137287434Y-91772880D01*
X137323410Y-91764604D01*
X137362050Y-91757597D01*
X137405185Y-91751728D01*
X137454649Y-91746869D01*
X137512273Y-91742890D01*
X137579891Y-91739660D01*
X137659334Y-91737051D01*
X137752436Y-91734933D01*
X137861027Y-91733176D01*
X137986942Y-91731651D01*
X138132012Y-91730228D01*
X138274778Y-91728975D01*
X138430968Y-91727649D01*
X138566239Y-91726444D01*
X138682246Y-91725234D01*
X138780645Y-91723894D01*
X138863093Y-91722300D01*
X138931246Y-91720325D01*
X138986760Y-91717844D01*
X139031292Y-91714731D01*
X139066498Y-91710862D01*
X139094034Y-91706111D01*
X139115556Y-91700352D01*
X139132722Y-91693461D01*
X139147186Y-91685311D01*
X139160606Y-91675777D01*
X139174638Y-91664734D01*
X139180071Y-91660434D01*
X139202910Y-91644614D01*
X139218463Y-91637578D01*
X139218922Y-91637556D01*
X139221121Y-91648433D01*
X139223147Y-91679418D01*
X139224942Y-91728043D01*
X139226451Y-91791837D01*
X139227616Y-91868331D01*
X139228380Y-91955056D01*
X139228686Y-92049543D01*
X139228689Y-92060450D01*
X139228689Y-92483343D01*
X139132622Y-92486605D01*
X139036556Y-92489867D01*
X139087543Y-92551956D01*
X139155057Y-92649286D01*
X139209749Y-92759187D01*
X139239978Y-92845651D01*
X139254666Y-92914722D01*
X139264659Y-92998075D01*
X139269646Y-93087841D01*
X139269313Y-93176155D01*
X139263351Y-93255149D01*
X139257638Y-93291378D01*
X139219776Y-93431397D01*
X139164932Y-93557822D01*
X139093924Y-93669740D01*
X139007568Y-93766238D01*
X138906679Y-93846400D01*
X138792076Y-93909313D01*
X138665984Y-93953688D01*
X138609401Y-93966022D01*
X138547202Y-93973632D01*
X138472363Y-93977261D01*
X138438467Y-93977755D01*
X138435282Y-93977690D01*
X138435282Y-93217752D01*
X138510333Y-93208459D01*
X138574160Y-93180272D01*
X138629798Y-93131803D01*
X138634211Y-93126746D01*
X138669037Y-93078452D01*
X138691620Y-93026743D01*
X138703540Y-92966011D01*
X138706383Y-92890648D01*
X138705978Y-92872541D01*
X138703325Y-92818722D01*
X138697909Y-92778692D01*
X138687745Y-92743676D01*
X138670850Y-92704897D01*
X138665672Y-92694255D01*
X138629844Y-92633604D01*
X138587212Y-92586785D01*
X138571973Y-92574048D01*
X138515462Y-92529378D01*
X138319586Y-92529378D01*
X138240939Y-92529914D01*
X138182988Y-92531604D01*
X138143875Y-92534572D01*
X138121741Y-92538943D01*
X138115274Y-92543028D01*
X138112111Y-92558953D01*
X138109488Y-92592736D01*
X138107655Y-92639660D01*
X138106857Y-92695007D01*
X138106842Y-92703894D01*
X138112096Y-92824670D01*
X138128263Y-92927340D01*
X138155961Y-93013894D01*
X138195808Y-93086319D01*
X138242758Y-93141249D01*
X138300645Y-93185796D01*
X138363693Y-93210520D01*
X138435282Y-93217752D01*
X138435282Y-93977690D01*
X138344712Y-93975822D01*
X138265812Y-93967478D01*
X138194590Y-93951232D01*
X138123864Y-93925595D01*
X138071493Y-93901599D01*
X137976196Y-93842980D01*
X137888170Y-93764883D01*
X137809017Y-93669685D01*
X137740340Y-93559762D01*
X137683741Y-93437490D01*
X137640821Y-93305245D01*
X137625882Y-93240578D01*
X137603777Y-93104396D01*
X137589194Y-92955951D01*
X137582813Y-92804495D01*
X137584445Y-92677936D01*
X137591224Y-92516050D01*
X137532245Y-92523470D01*
X137433092Y-92542762D01*
X137352372Y-92573896D01*
X137289466Y-92617731D01*
X137243756Y-92675129D01*
X137214622Y-92746952D01*
X137201447Y-92834059D01*
X137203611Y-92937314D01*
X137207612Y-92975289D01*
X137232780Y-93116480D01*
X137273814Y-93253293D01*
X137311815Y-93347822D01*
X137331190Y-93392982D01*
X137346760Y-93431415D01*
X137356405Y-93457766D01*
X137358452Y-93465454D01*
X137349374Y-93475198D01*
X137320405Y-93491917D01*
X137271217Y-93515768D01*
X137201484Y-93546907D01*
X137110879Y-93585493D01*
X137095089Y-93592090D01*
X137022772Y-93622147D01*
X136957425Y-93649126D01*
X136901906Y-93671864D01*
X136859072Y-93689194D01*
X136831781Y-93699952D01*
X136822942Y-93703059D01*
X136818187Y-93693060D01*
X136812910Y-93666783D01*
X136809231Y-93638511D01*
X136804474Y-93608354D01*
X136795028Y-93560567D01*
X136781820Y-93499388D01*
X136765776Y-93429054D01*
X136747820Y-93353806D01*
X136740797Y-93325245D01*
X136715209Y-93220184D01*
X136695147Y-93132520D01*
X136679969Y-93057932D01*
X136669035Y-92992097D01*
X136661704Y-92930693D01*
X136657335Y-92869398D01*
X136655287Y-92803890D01*
X136654889Y-92745872D01*
X136661552Y-92576426D01*
G36*
X137267245Y-89063493D02*
G01*
X137501662Y-89063474D01*
X137714603Y-89063448D01*
X137907168Y-89063375D01*
X138080459Y-89063218D01*
X138235576Y-89062936D01*
X138373620Y-89062491D01*
X138495692Y-89061844D01*
X138602894Y-89060955D01*
X138696326Y-89059787D01*
X138777090Y-89058299D01*
X138846286Y-89056454D01*
X138905015Y-89054211D01*
X138954379Y-89051531D01*
X138995478Y-89048377D01*
X139029413Y-89044708D01*
X139057286Y-89040487D01*
X139080198Y-89035673D01*
X139099249Y-89030227D01*
X139115540Y-89024112D01*
X139130173Y-89017288D01*
X139144249Y-89009715D01*
X139158868Y-89001355D01*
X139167974Y-88996161D01*
X139228689Y-88961896D01*
X139228689Y-89820045D01*
X139132733Y-89820045D01*
X139089370Y-89820776D01*
X139056205Y-89822728D01*
X139038424Y-89825537D01*
X139036778Y-89826779D01*
X139043662Y-89838201D01*
X139061505Y-89860916D01*
X139080879Y-89883615D01*
X139121614Y-89938200D01*
X139162617Y-90007679D01*
X139200123Y-90084730D01*
X139230364Y-90162035D01*
X139240012Y-90192887D01*
X139254578Y-90261384D01*
X139264539Y-90344236D01*
X139269583Y-90433629D01*
X139269396Y-90521752D01*
X139263666Y-90600793D01*
X139257858Y-90638489D01*
X139219797Y-90776586D01*
X139162073Y-90903887D01*
X139085211Y-91019708D01*
X138989739Y-91123363D01*
X138876179Y-91214167D01*
X138765381Y-91280969D01*
X138648625Y-91335836D01*
X138529276Y-91377837D01*
X138403283Y-91407833D01*
X138266594Y-91426689D01*
X138115158Y-91435268D01*
X138037711Y-91435994D01*
X137980934Y-91433900D01*
X137980934Y-90604783D01*
X138074002Y-90604576D01*
X138161692Y-90601663D01*
X138238772Y-90596000D01*
X138300009Y-90587545D01*
X138312350Y-90584962D01*
X138419633Y-90553160D01*
X138506658Y-90511502D01*
X138573642Y-90459637D01*
X138620805Y-90397219D01*
X138648365Y-90323900D01*
X138656541Y-90239331D01*
X138645551Y-90143165D01*
X138629829Y-90079689D01*
X138611639Y-90030546D01*
X138585791Y-89976417D01*
X138562089Y-89935756D01*
X138515721Y-89865200D01*
X137365530Y-89865200D01*
X137321962Y-89932608D01*
X137281040Y-90011133D01*
X137254389Y-90095319D01*
X137242465Y-90180443D01*
X137245722Y-90261784D01*
X137264615Y-90334620D01*
X137280184Y-90366574D01*
X137323181Y-90424499D01*
X137379953Y-90473456D01*
X137452575Y-90514610D01*
X137543121Y-90549126D01*
X137653666Y-90578167D01*
X137659533Y-90579448D01*
X137721788Y-90589619D01*
X137799594Y-90597261D01*
X137887720Y-90602330D01*
X137980934Y-90604783D01*
X137980934Y-91433900D01*
X137824895Y-91428143D01*
X137629059Y-91406198D01*
X137450332Y-91370214D01*
X137288845Y-91320241D01*
X137144726Y-91256332D01*
X137018106Y-91178538D01*
X136909115Y-91086911D01*
X136817883Y-90981503D01*
X136786932Y-90936338D01*
X136730785Y-90835389D01*
X136691174Y-90732099D01*
X136667014Y-90622011D01*
X136657219Y-90500670D01*
X136658265Y-90408164D01*
X136669231Y-90278510D01*
X136691046Y-90165916D01*
X136724714Y-90067125D01*
X136771236Y-89978879D01*
X136805448Y-89930014D01*
X136827362Y-89900647D01*
X136842333Y-89878957D01*
X136846733Y-89870747D01*
X136835904Y-89869132D01*
X136805251Y-89867841D01*
X136757526Y-89866862D01*
X136695479Y-89866183D01*
X136621862Y-89865790D01*
X136539427Y-89865670D01*
X136450925Y-89865812D01*
X136359107Y-89866203D01*
X136266724Y-89866829D01*
X136176528Y-89867680D01*
X136091271Y-89868740D01*
X136013703Y-89869999D01*
X135946576Y-89871444D01*
X135892641Y-89873062D01*
X135854650Y-89874839D01*
X135847667Y-89875331D01*
X135777251Y-89882908D01*
X135722102Y-89894469D01*
X135674981Y-89912208D01*
X135628647Y-89938318D01*
X135619067Y-89944585D01*
X135582378Y-89969017D01*
X135582378Y-89063689D01*
X137267245Y-89063493D01*
G37*
X137267245Y-89063493D02*
X137501662Y-89063474D01*
X137714603Y-89063448D01*
X137907168Y-89063375D01*
X138080459Y-89063218D01*
X138235576Y-89062936D01*
X138373620Y-89062491D01*
X138495692Y-89061844D01*
X138602894Y-89060955D01*
X138696326Y-89059787D01*
X138777090Y-89058299D01*
X138846286Y-89056454D01*
X138905015Y-89054211D01*
X138954379Y-89051531D01*
X138995478Y-89048377D01*
X139029413Y-89044708D01*
X139057286Y-89040487D01*
X139080198Y-89035673D01*
X139099249Y-89030227D01*
X139115540Y-89024112D01*
X139130173Y-89017288D01*
X139144249Y-89009715D01*
X139158868Y-89001355D01*
X139167974Y-88996161D01*
X139228689Y-88961896D01*
X139228689Y-89820045D01*
X139132733Y-89820045D01*
X139089370Y-89820776D01*
X139056205Y-89822728D01*
X139038424Y-89825537D01*
X139036778Y-89826779D01*
X139043662Y-89838201D01*
X139061505Y-89860916D01*
X139080879Y-89883615D01*
X139121614Y-89938200D01*
X139162617Y-90007679D01*
X139200123Y-90084730D01*
X139230364Y-90162035D01*
X139240012Y-90192887D01*
X139254578Y-90261384D01*
X139264539Y-90344236D01*
X139269583Y-90433629D01*
X139269396Y-90521752D01*
X139263666Y-90600793D01*
X139257858Y-90638489D01*
X139219797Y-90776586D01*
X139162073Y-90903887D01*
X139085211Y-91019708D01*
X138989739Y-91123363D01*
X138876179Y-91214167D01*
X138765381Y-91280969D01*
X138648625Y-91335836D01*
X138529276Y-91377837D01*
X138403283Y-91407833D01*
X138266594Y-91426689D01*
X138115158Y-91435268D01*
X138037711Y-91435994D01*
X137980934Y-91433900D01*
X137980934Y-90604783D01*
X138074002Y-90604576D01*
X138161692Y-90601663D01*
X138238772Y-90596000D01*
X138300009Y-90587545D01*
X138312350Y-90584962D01*
X138419633Y-90553160D01*
X138506658Y-90511502D01*
X138573642Y-90459637D01*
X138620805Y-90397219D01*
X138648365Y-90323900D01*
X138656541Y-90239331D01*
X138645551Y-90143165D01*
X138629829Y-90079689D01*
X138611639Y-90030546D01*
X138585791Y-89976417D01*
X138562089Y-89935756D01*
X138515721Y-89865200D01*
X137365530Y-89865200D01*
X137321962Y-89932608D01*
X137281040Y-90011133D01*
X137254389Y-90095319D01*
X137242465Y-90180443D01*
X137245722Y-90261784D01*
X137264615Y-90334620D01*
X137280184Y-90366574D01*
X137323181Y-90424499D01*
X137379953Y-90473456D01*
X137452575Y-90514610D01*
X137543121Y-90549126D01*
X137653666Y-90578167D01*
X137659533Y-90579448D01*
X137721788Y-90589619D01*
X137799594Y-90597261D01*
X137887720Y-90602330D01*
X137980934Y-90604783D01*
X137980934Y-91433900D01*
X137824895Y-91428143D01*
X137629059Y-91406198D01*
X137450332Y-91370214D01*
X137288845Y-91320241D01*
X137144726Y-91256332D01*
X137018106Y-91178538D01*
X136909115Y-91086911D01*
X136817883Y-90981503D01*
X136786932Y-90936338D01*
X136730785Y-90835389D01*
X136691174Y-90732099D01*
X136667014Y-90622011D01*
X136657219Y-90500670D01*
X136658265Y-90408164D01*
X136669231Y-90278510D01*
X136691046Y-90165916D01*
X136724714Y-90067125D01*
X136771236Y-89978879D01*
X136805448Y-89930014D01*
X136827362Y-89900647D01*
X136842333Y-89878957D01*
X136846733Y-89870747D01*
X136835904Y-89869132D01*
X136805251Y-89867841D01*
X136757526Y-89866862D01*
X136695479Y-89866183D01*
X136621862Y-89865790D01*
X136539427Y-89865670D01*
X136450925Y-89865812D01*
X136359107Y-89866203D01*
X136266724Y-89866829D01*
X136176528Y-89867680D01*
X136091271Y-89868740D01*
X136013703Y-89869999D01*
X135946576Y-89871444D01*
X135892641Y-89873062D01*
X135854650Y-89874839D01*
X135847667Y-89875331D01*
X135777251Y-89882908D01*
X135722102Y-89894469D01*
X135674981Y-89912208D01*
X135628647Y-89938318D01*
X135619067Y-89944585D01*
X135582378Y-89969017D01*
X135582378Y-89063689D01*
X137267245Y-89063493D01*
G36*
X134821571Y-97523043D02*
G01*
X134845809Y-97426768D01*
X134888641Y-97340184D01*
X134948419Y-97265373D01*
X135023494Y-97204418D01*
X135112220Y-97159399D01*
X135208530Y-97133136D01*
X135305795Y-97127286D01*
X135399654Y-97142140D01*
X135487511Y-97175840D01*
X135566770Y-97226528D01*
X135634836Y-97292345D01*
X135689112Y-97371434D01*
X135727002Y-97461934D01*
X135739426Y-97513200D01*
X135746947Y-97557698D01*
X135749919Y-97591999D01*
X135748094Y-97624960D01*
X135741225Y-97665434D01*
X135734250Y-97698531D01*
X135702741Y-97791947D01*
X135651617Y-97875619D01*
X135582429Y-97947665D01*
X135496728Y-98006200D01*
X135469489Y-98020148D01*
X135433122Y-98036586D01*
X135402582Y-98046894D01*
X135370450Y-98052460D01*
X135329307Y-98054669D01*
X135283222Y-98054948D01*
X135198865Y-98050861D01*
X135129586Y-98037446D01*
X135068961Y-98012256D01*
X135010567Y-97972846D01*
X134966302Y-97934298D01*
X134900484Y-97862406D01*
X134855053Y-97787313D01*
X134827850Y-97704562D01*
X134817576Y-97626928D01*
X134821571Y-97523043D01*
G37*
X134821571Y-97523043D02*
X134845809Y-97426768D01*
X134888641Y-97340184D01*
X134948419Y-97265373D01*
X135023494Y-97204418D01*
X135112220Y-97159399D01*
X135208530Y-97133136D01*
X135305795Y-97127286D01*
X135399654Y-97142140D01*
X135487511Y-97175840D01*
X135566770Y-97226528D01*
X135634836Y-97292345D01*
X135689112Y-97371434D01*
X135727002Y-97461934D01*
X135739426Y-97513200D01*
X135746947Y-97557698D01*
X135749919Y-97591999D01*
X135748094Y-97624960D01*
X135741225Y-97665434D01*
X135734250Y-97698531D01*
X135702741Y-97791947D01*
X135651617Y-97875619D01*
X135582429Y-97947665D01*
X135496728Y-98006200D01*
X135469489Y-98020148D01*
X135433122Y-98036586D01*
X135402582Y-98046894D01*
X135370450Y-98052460D01*
X135329307Y-98054669D01*
X135283222Y-98054948D01*
X135198865Y-98050861D01*
X135129586Y-98037446D01*
X135068961Y-98012256D01*
X135010567Y-97972846D01*
X134966302Y-97934298D01*
X134900484Y-97862406D01*
X134855053Y-97787313D01*
X134827850Y-97704562D01*
X134817576Y-97626928D01*
X134821571Y-97523043D01*
%TD*%
%TO.C,C1*%
D12*
X126833333Y-103917142D02*
X126785714Y-103964761D01*
X126642857Y-104012380D01*
X126547619Y-104012380D01*
X126404761Y-103964761D01*
X126309523Y-103869523D01*
X126261904Y-103774285D01*
X126214285Y-103583809D01*
X126214285Y-103440952D01*
X126261904Y-103250476D01*
X126309523Y-103155238D01*
X126404761Y-103060000D01*
X126547619Y-103012380D01*
X126642857Y-103012380D01*
X126785714Y-103060000D01*
X126833333Y-103107619D01*
X127785714Y-104012380D02*
X127214285Y-104012380D01*
X127500000Y-104012380D02*
X127500000Y-103012380D01*
X127404761Y-103155238D01*
X127309523Y-103250476D01*
X127214285Y-103298095D01*
%TO.C,R2*%
X123092380Y-99226666D02*
X122616190Y-99560000D01*
X123092380Y-99798095D02*
X122092380Y-99798095D01*
X122092380Y-99417142D01*
X122140000Y-99321904D01*
X122187619Y-99274285D01*
X122282857Y-99226666D01*
X122425714Y-99226666D01*
X122520952Y-99274285D01*
X122568571Y-99321904D01*
X122616190Y-99417142D01*
X122616190Y-99798095D01*
X122187619Y-98845714D02*
X122140000Y-98798095D01*
X122092380Y-98702857D01*
X122092380Y-98464761D01*
X122140000Y-98369523D01*
X122187619Y-98321904D01*
X122282857Y-98274285D01*
X122378095Y-98274285D01*
X122520952Y-98321904D01*
X123092380Y-98893333D01*
X123092380Y-98274285D01*
%TO.C,R1*%
X130077380Y-99226666D02*
X129601190Y-99560000D01*
X130077380Y-99798095D02*
X129077380Y-99798095D01*
X129077380Y-99417142D01*
X129125000Y-99321904D01*
X129172619Y-99274285D01*
X129267857Y-99226666D01*
X129410714Y-99226666D01*
X129505952Y-99274285D01*
X129553571Y-99321904D01*
X129601190Y-99417142D01*
X129601190Y-99798095D01*
X130077380Y-98274285D02*
X130077380Y-98845714D01*
X130077380Y-98560000D02*
X129077380Y-98560000D01*
X129220238Y-98655238D01*
X129315476Y-98750476D01*
X129363095Y-98845714D01*
%TD*%
M02*
