%TF.GenerationSoftware,KiCad,Pcbnew,5.1.6+dfsg1-1~bpo10+1*%
%TF.CreationDate,2020-11-12T19:35:08+00:00*%
%TF.ProjectId,test,74657374-2e6b-4696-9361-645f70636258,v1*%
%TF.SameCoordinates,Original*%
%TF.FileFunction,Soldermask,Top*%
%TF.FilePolarity,Negative*%
%FSLAX46Y46*%
G04 Gerber Fmt 4.6, Leading zero omitted, Abs format (unit mm)*
G04 Created by KiCad (PCBNEW 5.1.6+dfsg1-1~bpo10+1) date 2020-11-12 19:35:08*
%MOMM*%
%LPD*%
G01*
G04 APERTURE LIST*
%ADD10C,0.100000*%
G04 APERTURE END LIST*
D10*
G36*
X128938674Y-104463465D02*
G01*
X128976367Y-104474899D01*
X129011103Y-104493466D01*
X129041548Y-104518452D01*
X129066534Y-104548897D01*
X129085101Y-104583633D01*
X129096535Y-104621326D01*
X129101000Y-104666661D01*
X129101000Y-106153339D01*
X129096535Y-106198674D01*
X129085101Y-106236367D01*
X129066534Y-106271103D01*
X129041548Y-106301548D01*
X129011103Y-106326534D01*
X128976367Y-106345101D01*
X128938674Y-106356535D01*
X128893339Y-106361000D01*
X128056661Y-106361000D01*
X128011326Y-106356535D01*
X127973633Y-106345101D01*
X127938897Y-106326534D01*
X127908452Y-106301548D01*
X127883466Y-106271103D01*
X127864899Y-106236367D01*
X127853465Y-106198674D01*
X127849000Y-106153339D01*
X127849000Y-104666661D01*
X127853465Y-104621326D01*
X127864899Y-104583633D01*
X127883466Y-104548897D01*
X127908452Y-104518452D01*
X127938897Y-104493466D01*
X127973633Y-104474899D01*
X128011326Y-104463465D01*
X128056661Y-104459000D01*
X128893339Y-104459000D01*
X128938674Y-104463465D01*
G37*
G36*
X125988674Y-104463465D02*
G01*
X126026367Y-104474899D01*
X126061103Y-104493466D01*
X126091548Y-104518452D01*
X126116534Y-104548897D01*
X126135101Y-104583633D01*
X126146535Y-104621326D01*
X126151000Y-104666661D01*
X126151000Y-106153339D01*
X126146535Y-106198674D01*
X126135101Y-106236367D01*
X126116534Y-106271103D01*
X126091548Y-106301548D01*
X126061103Y-106326534D01*
X126026367Y-106345101D01*
X125988674Y-106356535D01*
X125943339Y-106361000D01*
X125106661Y-106361000D01*
X125061326Y-106356535D01*
X125023633Y-106345101D01*
X124988897Y-106326534D01*
X124958452Y-106301548D01*
X124933466Y-106271103D01*
X124914899Y-106236367D01*
X124903465Y-106198674D01*
X124899000Y-106153339D01*
X124899000Y-104666661D01*
X124903465Y-104621326D01*
X124914899Y-104583633D01*
X124933466Y-104548897D01*
X124958452Y-104518452D01*
X124988897Y-104493466D01*
X125023633Y-104474899D01*
X125061326Y-104463465D01*
X125106661Y-104459000D01*
X125943339Y-104459000D01*
X125988674Y-104463465D01*
G37*
G36*
X132207307Y-99913498D02*
G01*
X132245318Y-99925029D01*
X132280342Y-99943749D01*
X132311049Y-99968951D01*
X132336251Y-99999658D01*
X132354971Y-100034682D01*
X132366502Y-100072693D01*
X132371000Y-100118363D01*
X132371000Y-100926637D01*
X132366502Y-100972307D01*
X132354971Y-101010318D01*
X132336251Y-101045342D01*
X132311049Y-101076049D01*
X132280342Y-101101251D01*
X132245318Y-101119971D01*
X132207307Y-101131502D01*
X132161637Y-101136000D01*
X130728363Y-101136000D01*
X130682693Y-101131502D01*
X130644682Y-101119971D01*
X130609658Y-101101251D01*
X130578951Y-101076049D01*
X130553749Y-101045342D01*
X130535029Y-101010318D01*
X130523498Y-100972307D01*
X130519000Y-100926637D01*
X130519000Y-100118363D01*
X130523498Y-100072693D01*
X130535029Y-100034682D01*
X130553749Y-99999658D01*
X130578951Y-99968951D01*
X130609658Y-99943749D01*
X130644682Y-99925029D01*
X130682693Y-99913498D01*
X130728363Y-99909000D01*
X132161637Y-99909000D01*
X132207307Y-99913498D01*
G37*
G36*
X125222307Y-99913498D02*
G01*
X125260318Y-99925029D01*
X125295342Y-99943749D01*
X125326049Y-99968951D01*
X125351251Y-99999658D01*
X125369971Y-100034682D01*
X125381502Y-100072693D01*
X125386000Y-100118363D01*
X125386000Y-100926637D01*
X125381502Y-100972307D01*
X125369971Y-101010318D01*
X125351251Y-101045342D01*
X125326049Y-101076049D01*
X125295342Y-101101251D01*
X125260318Y-101119971D01*
X125222307Y-101131502D01*
X125176637Y-101136000D01*
X123743363Y-101136000D01*
X123697693Y-101131502D01*
X123659682Y-101119971D01*
X123624658Y-101101251D01*
X123593951Y-101076049D01*
X123568749Y-101045342D01*
X123550029Y-101010318D01*
X123538498Y-100972307D01*
X123534000Y-100926637D01*
X123534000Y-100118363D01*
X123538498Y-100072693D01*
X123550029Y-100034682D01*
X123568749Y-99999658D01*
X123593951Y-99968951D01*
X123624658Y-99943749D01*
X123659682Y-99925029D01*
X123697693Y-99913498D01*
X123743363Y-99909000D01*
X125176637Y-99909000D01*
X125222307Y-99913498D01*
G37*
G36*
X132207307Y-96988498D02*
G01*
X132245318Y-97000029D01*
X132280342Y-97018749D01*
X132311049Y-97043951D01*
X132336251Y-97074658D01*
X132354971Y-97109682D01*
X132366502Y-97147693D01*
X132371000Y-97193363D01*
X132371000Y-98001637D01*
X132366502Y-98047307D01*
X132354971Y-98085318D01*
X132336251Y-98120342D01*
X132311049Y-98151049D01*
X132280342Y-98176251D01*
X132245318Y-98194971D01*
X132207307Y-98206502D01*
X132161637Y-98211000D01*
X130728363Y-98211000D01*
X130682693Y-98206502D01*
X130644682Y-98194971D01*
X130609658Y-98176251D01*
X130578951Y-98151049D01*
X130553749Y-98120342D01*
X130535029Y-98085318D01*
X130523498Y-98047307D01*
X130519000Y-98001637D01*
X130519000Y-97193363D01*
X130523498Y-97147693D01*
X130535029Y-97109682D01*
X130553749Y-97074658D01*
X130578951Y-97043951D01*
X130609658Y-97018749D01*
X130644682Y-97000029D01*
X130682693Y-96988498D01*
X130728363Y-96984000D01*
X132161637Y-96984000D01*
X132207307Y-96988498D01*
G37*
G36*
X125222307Y-96988498D02*
G01*
X125260318Y-97000029D01*
X125295342Y-97018749D01*
X125326049Y-97043951D01*
X125351251Y-97074658D01*
X125369971Y-97109682D01*
X125381502Y-97147693D01*
X125386000Y-97193363D01*
X125386000Y-98001637D01*
X125381502Y-98047307D01*
X125369971Y-98085318D01*
X125351251Y-98120342D01*
X125326049Y-98151049D01*
X125295342Y-98176251D01*
X125260318Y-98194971D01*
X125222307Y-98206502D01*
X125176637Y-98211000D01*
X123743363Y-98211000D01*
X123697693Y-98206502D01*
X123659682Y-98194971D01*
X123624658Y-98176251D01*
X123593951Y-98151049D01*
X123568749Y-98120342D01*
X123550029Y-98085318D01*
X123538498Y-98047307D01*
X123534000Y-98001637D01*
X123534000Y-97193363D01*
X123538498Y-97147693D01*
X123550029Y-97109682D01*
X123568749Y-97074658D01*
X123593951Y-97043951D01*
X123624658Y-97018749D01*
X123659682Y-97000029D01*
X123697693Y-96988498D01*
X123743363Y-96984000D01*
X125176637Y-96984000D01*
X125222307Y-96988498D01*
G37*
M02*
