%TF.GenerationSoftware,KiCad,Pcbnew,5.1.6+dfsg1-1~bpo10+1*%
%TF.CreationDate,2020-11-12T19:35:08+00:00*%
%TF.ProjectId,test,74657374-2e6b-4696-9361-645f70636258,v1*%
%TF.SameCoordinates,Original*%
%TF.FileFunction,Paste,Top*%
%TF.FilePolarity,Positive*%
%FSLAX46Y46*%
G04 Gerber Fmt 4.6, Leading zero omitted, Abs format (unit mm)*
G04 Created by KiCad (PCBNEW 5.1.6+dfsg1-1~bpo10+1) date 2020-11-12 19:35:08*
%MOMM*%
%LPD*%
G01*
G04 APERTURE LIST*
G04 APERTURE END LIST*
%TO.C,C1*%
G36*
G01*
X127900000Y-106060001D02*
X127900000Y-104759999D01*
G75*
G02*
X128149999Y-104510000I249999J0D01*
G01*
X128800001Y-104510000D01*
G75*
G02*
X129050000Y-104759999I0J-249999D01*
G01*
X129050000Y-106060001D01*
G75*
G02*
X128800001Y-106310000I-249999J0D01*
G01*
X128149999Y-106310000D01*
G75*
G02*
X127900000Y-106060001I0J249999D01*
G01*
G37*
G36*
G01*
X124950000Y-106060001D02*
X124950000Y-104759999D01*
G75*
G02*
X125199999Y-104510000I249999J0D01*
G01*
X125850001Y-104510000D01*
G75*
G02*
X126100000Y-104759999I0J-249999D01*
G01*
X126100000Y-106060001D01*
G75*
G02*
X125850001Y-106310000I-249999J0D01*
G01*
X125199999Y-106310000D01*
G75*
G02*
X124950000Y-106060001I0J249999D01*
G01*
G37*
%TD*%
%TO.C,R2*%
G36*
G01*
X125085001Y-98160000D02*
X123834999Y-98160000D01*
G75*
G02*
X123585000Y-97910001I0J249999D01*
G01*
X123585000Y-97284999D01*
G75*
G02*
X123834999Y-97035000I249999J0D01*
G01*
X125085001Y-97035000D01*
G75*
G02*
X125335000Y-97284999I0J-249999D01*
G01*
X125335000Y-97910001D01*
G75*
G02*
X125085001Y-98160000I-249999J0D01*
G01*
G37*
G36*
G01*
X125085001Y-101085000D02*
X123834999Y-101085000D01*
G75*
G02*
X123585000Y-100835001I0J249999D01*
G01*
X123585000Y-100209999D01*
G75*
G02*
X123834999Y-99960000I249999J0D01*
G01*
X125085001Y-99960000D01*
G75*
G02*
X125335000Y-100209999I0J-249999D01*
G01*
X125335000Y-100835001D01*
G75*
G02*
X125085001Y-101085000I-249999J0D01*
G01*
G37*
%TD*%
%TO.C,R1*%
G36*
G01*
X132070001Y-98160000D02*
X130819999Y-98160000D01*
G75*
G02*
X130570000Y-97910001I0J249999D01*
G01*
X130570000Y-97284999D01*
G75*
G02*
X130819999Y-97035000I249999J0D01*
G01*
X132070001Y-97035000D01*
G75*
G02*
X132320000Y-97284999I0J-249999D01*
G01*
X132320000Y-97910001D01*
G75*
G02*
X132070001Y-98160000I-249999J0D01*
G01*
G37*
G36*
G01*
X132070001Y-101085000D02*
X130819999Y-101085000D01*
G75*
G02*
X130570000Y-100835001I0J249999D01*
G01*
X130570000Y-100209999D01*
G75*
G02*
X130819999Y-99960000I249999J0D01*
G01*
X132070001Y-99960000D01*
G75*
G02*
X132320000Y-100209999I0J-249999D01*
G01*
X132320000Y-100835001D01*
G75*
G02*
X132070001Y-101085000I-249999J0D01*
G01*
G37*
%TD*%
M02*
