  0
SECTION
  2
HEADER
  9
$ANGBASE
  50
0.0
  9
$ANGDIR
  70
1
  9
$MEASUREMENT
  70
0
  0
ENDSEC
  0
SECTION
  2
TABLES
  0
TABLE
  2
LTYPE
  70
4
  0
LTYPE
  5
40F
  2
CONTINUOUS
  70
0
  3
Solid line
  72
65
  73
0
  40
0.0
  0
LTYPE
  5
410
  2
DASHDOT
 70
0
  3
Dash Dot ____ _ ____ _
 72
65
 73
4
 40
2.0
 49
1.25
 49
-0.25
 49
0.25
 49
-0.25
  0
LTYPE
  5
411
  2
DASHED
 70
0
  3
Dashed __ __ __ __ __
 72
65
 73
2
 40
0.75
 49
0.5
 49
-0.25
  0
LTYPE
  5
43B
  2
DOTTED
 70
0
  3
Dotted .  .  .  .
 72
65
 73
2
 40
0.2
 49
0.0
 49
-0.2
  0
ENDTAB
  0
TABLE
  2
STYLE
  70
4
  0
STYLE
  2
KICAD
  70
0
  40
0
  41
1
  42
1
  50
0
  71
0
  3
isocp.shx
  0
STYLE
  2
KICADB
  70
0
  40
0
  41
1
  42
1
  50
0
  71
0
  3
isocp.shx
  0
STYLE
  2
KICADI
  70
0
  40
0
  41
1
  42
1
  50
15
  71
0
  3
isocp.shx
  0
STYLE
  2
KICADBI
  70
0
  40
0
  41
1
  42
1
  50
15
  71
0
  3
isocp.shx
  0
ENDTAB
  0
TABLE
  2
LAYER
  70
1
  0
LAYER
  2
BLACK
  70
0
  62
7
  6
CONTINUOUS
  0
ENDTAB
  0
ENDSEC
  0
SECTION
  2
ENTITIES
0
LINE
8
BLACK
6
CONTINUOUS
10
4.92032
20
-4.03346
11
4.92032
21
-4.03346
0
LINE
8
BLACK
6
CONTINUOUS
10
4.92032
20
-4.03346
11
4.92047
21
-4.03348
0
LINE
8
BLACK
6
CONTINUOUS
10
4.92047
20
-4.03348
11
4.92065
21
-4.03354
0
LINE
8
BLACK
6
CONTINUOUS
10
4.92065
20
-4.03354
11
4.92083
21
-4.03363
0
LINE
8
BLACK
6
CONTINUOUS
10
4.92083
20
-4.03363
11
4.92097
21
-4.03375
0
LINE
8
BLACK
6
CONTINUOUS
10
4.92097
20
-4.03375
11
4.9211
21
-4.0339
0
LINE
8
BLACK
6
CONTINUOUS
10
4.9211
20
-4.0339
11
4.92119
21
-4.03407
0
LINE
8
BLACK
6
CONTINUOUS
10
4.92119
20
-4.03407
11
4.92125
21
-4.03426
0
LINE
8
BLACK
6
CONTINUOUS
10
4.92125
20
-4.03426
11
4.92126
21
-4.03445
0
LINE
8
BLACK
6
CONTINUOUS
10
4.92126
20
-4.03445
11
4.92126
21
-4.0345
0
LINE
8
BLACK
6
CONTINUOUS
10
4.92126
20
-4.0345
11
4.92126
21
-4.2155
0
LINE
8
BLACK
6
CONTINUOUS
10
4.92126
20
-4.2155
11
4.92126
21
-4.21555
0
LINE
8
BLACK
6
CONTINUOUS
10
4.92126
20
-4.21555
11
4.92126
21
-4.2156
0
LINE
8
BLACK
6
CONTINUOUS
10
4.92126
20
-4.2156
11
4.92126
21
-4.2156
0
LINE
8
BLACK
6
CONTINUOUS
10
4.92126
20
-4.2156
11
4.92125
21
-4.21574
0
LINE
8
BLACK
6
CONTINUOUS
10
4.92125
20
-4.21574
11
4.92119
21
-4.21593
0
LINE
8
BLACK
6
CONTINUOUS
10
4.92119
20
-4.21593
11
4.9211
21
-4.2161
0
LINE
8
BLACK
6
CONTINUOUS
10
4.9211
20
-4.2161
11
4.92097
21
-4.21625
0
LINE
8
BLACK
6
CONTINUOUS
10
4.92097
20
-4.21625
11
4.92083
21
-4.21637
0
LINE
8
BLACK
6
CONTINUOUS
10
4.92083
20
-4.21637
11
4.92065
21
-4.21646
0
LINE
8
BLACK
6
CONTINUOUS
10
4.92065
20
-4.21646
11
4.92047
21
-4.21652
0
LINE
8
BLACK
6
CONTINUOUS
10
4.92047
20
-4.21652
11
4.92028
21
-4.21654
0
LINE
8
BLACK
6
CONTINUOUS
10
4.92028
20
-4.21654
11
4.92023
21
-4.21654
0
LINE
8
BLACK
6
CONTINUOUS
10
4.92023
20
-4.21654
11
4.82977
21
-4.21654
0
LINE
8
BLACK
6
CONTINUOUS
10
4.82977
20
-4.21654
11
4.82972
21
-4.21654
0
LINE
8
BLACK
6
CONTINUOUS
10
4.82972
20
-4.21654
11
4.82953
21
-4.21652
0
LINE
8
BLACK
6
CONTINUOUS
10
4.82953
20
-4.21652
11
4.82935
21
-4.21646
0
LINE
8
BLACK
6
CONTINUOUS
10
4.82935
20
-4.21646
11
4.82917
21
-4.21637
0
LINE
8
BLACK
6
CONTINUOUS
10
4.82917
20
-4.21637
11
4.82903
21
-4.21625
0
LINE
8
BLACK
6
CONTINUOUS
10
4.82903
20
-4.21625
11
4.8289
21
-4.2161
0
LINE
8
BLACK
6
CONTINUOUS
10
4.8289
20
-4.2161
11
4.82881
21
-4.21593
0
LINE
8
BLACK
6
CONTINUOUS
10
4.82881
20
-4.21593
11
4.82875
21
-4.21574
0
LINE
8
BLACK
6
CONTINUOUS
10
4.82875
20
-4.21574
11
4.82874
21
-4.21555
0
LINE
8
BLACK
6
CONTINUOUS
10
4.82874
20
-4.21555
11
4.82874
21
-4.2155
0
LINE
8
BLACK
6
CONTINUOUS
10
4.82874
20
-4.2155
11
4.82874
21
-4.0345
0
LINE
8
BLACK
6
CONTINUOUS
10
4.82874
20
-4.0345
11
4.82874
21
-4.03445
0
LINE
8
BLACK
6
CONTINUOUS
10
4.82874
20
-4.03445
11
4.82875
21
-4.03426
0
LINE
8
BLACK
6
CONTINUOUS
10
4.82875
20
-4.03426
11
4.82881
21
-4.03407
0
LINE
8
BLACK
6
CONTINUOUS
10
4.82881
20
-4.03407
11
4.8289
21
-4.0339
0
LINE
8
BLACK
6
CONTINUOUS
10
4.8289
20
-4.0339
11
4.82903
21
-4.03375
0
LINE
8
BLACK
6
CONTINUOUS
10
4.82903
20
-4.03375
11
4.82917
21
-4.03363
0
LINE
8
BLACK
6
CONTINUOUS
10
4.82917
20
-4.03363
11
4.82935
21
-4.03354
0
LINE
8
BLACK
6
CONTINUOUS
10
4.82935
20
-4.03354
11
4.82953
21
-4.03348
0
LINE
8
BLACK
6
CONTINUOUS
10
4.82953
20
-4.03348
11
4.82968
21
-4.03346
0
LINE
8
BLACK
6
CONTINUOUS
10
4.82968
20
-4.03346
11
4.82968
21
-4.03346
0
LINE
8
BLACK
6
CONTINUOUS
10
4.82968
20
-4.03346
11
4.82972
21
-4.03346
0
LINE
8
BLACK
6
CONTINUOUS
10
4.82972
20
-4.03346
11
4.82977
21
-4.03346
0
LINE
8
BLACK
6
CONTINUOUS
10
4.82977
20
-4.03346
11
4.92023
21
-4.03346
0
LINE
8
BLACK
6
CONTINUOUS
10
4.92023
20
-4.03346
11
4.92028
21
-4.03346
0
LINE
8
BLACK
6
CONTINUOUS
10
4.92028
20
-4.03346
11
4.92032
21
-4.03346
0
LINE
8
BLACK
6
CONTINUOUS
10
4.83071
20
-4.03543
11
4.83071
21
-4.21457
0
LINE
8
BLACK
6
CONTINUOUS
10
4.83071
20
-4.21457
11
4.91929
21
-4.21457
0
LINE
8
BLACK
6
CONTINUOUS
10
4.91929
20
-4.21457
11
4.91929
21
-4.03543
0
LINE
8
BLACK
6
CONTINUOUS
10
4.91929
20
-4.03543
11
4.83071
21
-4.03543
0
LINE
8
BLACK
6
CONTINUOUS
10
5.34414
20
-4.03425
11
5.34414
21
-4.03425
0
LINE
8
BLACK
6
CONTINUOUS
10
5.34414
20
-4.03425
11
5.34429
21
-4.03427
0
LINE
8
BLACK
6
CONTINUOUS
10
5.34429
20
-4.03427
11
5.34447
21
-4.03432
0
LINE
8
BLACK
6
CONTINUOUS
10
5.34447
20
-4.03432
11
5.34464
21
-4.03441
0
LINE
8
BLACK
6
CONTINUOUS
10
5.34464
20
-4.03441
11
5.34479
21
-4.03454
0
LINE
8
BLACK
6
CONTINUOUS
10
5.34479
20
-4.03454
11
5.34492
21
-4.03469
0
LINE
8
BLACK
6
CONTINUOUS
10
5.34492
20
-4.03469
11
5.34501
21
-4.03486
0
LINE
8
BLACK
6
CONTINUOUS
10
5.34501
20
-4.03486
11
5.34506
21
-4.03504
0
LINE
8
BLACK
6
CONTINUOUS
10
5.34506
20
-4.03504
11
5.34508
21
-4.03524
0
LINE
8
BLACK
6
CONTINUOUS
10
5.34508
20
-4.03524
11
5.34508
21
-4.03528
0
LINE
8
BLACK
6
CONTINUOUS
10
5.34508
20
-4.03528
11
5.34508
21
-4.21472
0
LINE
8
BLACK
6
CONTINUOUS
10
5.34508
20
-4.21472
11
5.34508
21
-4.21476
0
LINE
8
BLACK
6
CONTINUOUS
10
5.34508
20
-4.21476
11
5.34506
21
-4.21496
0
LINE
8
BLACK
6
CONTINUOUS
10
5.34506
20
-4.21496
11
5.34501
21
-4.21514
0
LINE
8
BLACK
6
CONTINUOUS
10
5.34501
20
-4.21514
11
5.34492
21
-4.21531
0
LINE
8
BLACK
6
CONTINUOUS
10
5.34492
20
-4.21531
11
5.34479
21
-4.21546
0
LINE
8
BLACK
6
CONTINUOUS
10
5.34479
20
-4.21546
11
5.34464
21
-4.21559
0
LINE
8
BLACK
6
CONTINUOUS
10
5.34464
20
-4.21559
11
5.34447
21
-4.21568
0
LINE
8
BLACK
6
CONTINUOUS
10
5.34447
20
-4.21568
11
5.34429
21
-4.21573
0
LINE
8
BLACK
6
CONTINUOUS
10
5.34429
20
-4.21573
11
5.34418
21
-4.21574
0
LINE
8
BLACK
6
CONTINUOUS
10
5.34418
20
-4.21574
11
5.34409
21
-4.21575
0
LINE
8
BLACK
6
CONTINUOUS
10
5.34409
20
-4.21575
11
5.34405
21
-4.21575
0
LINE
8
BLACK
6
CONTINUOUS
10
5.34405
20
-4.21575
11
5.25595
21
-4.21575
0
LINE
8
BLACK
6
CONTINUOUS
10
5.25595
20
-4.21575
11
5.25591
21
-4.21575
0
LINE
8
BLACK
6
CONTINUOUS
10
5.25591
20
-4.21575
11
5.25582
21
-4.21574
0
LINE
8
BLACK
6
CONTINUOUS
10
5.25582
20
-4.21574
11
5.25571
21
-4.21573
0
LINE
8
BLACK
6
CONTINUOUS
10
5.25571
20
-4.21573
11
5.25553
21
-4.21568
0
LINE
8
BLACK
6
CONTINUOUS
10
5.25553
20
-4.21568
11
5.25536
21
-4.21559
0
LINE
8
BLACK
6
CONTINUOUS
10
5.25536
20
-4.21559
11
5.25521
21
-4.21546
0
LINE
8
BLACK
6
CONTINUOUS
10
5.25521
20
-4.21546
11
5.25508
21
-4.21531
0
LINE
8
BLACK
6
CONTINUOUS
10
5.25508
20
-4.21531
11
5.25499
21
-4.21514
0
LINE
8
BLACK
6
CONTINUOUS
10
5.25499
20
-4.21514
11
5.25494
21
-4.21496
0
LINE
8
BLACK
6
CONTINUOUS
10
5.25494
20
-4.21496
11
5.25492
21
-4.21476
0
LINE
8
BLACK
6
CONTINUOUS
10
5.25492
20
-4.21476
11
5.25492
21
-4.21472
0
LINE
8
BLACK
6
CONTINUOUS
10
5.25492
20
-4.21472
11
5.25492
21
-4.03528
0
LINE
8
BLACK
6
CONTINUOUS
10
5.25492
20
-4.03528
11
5.25492
21
-4.03524
0
LINE
8
BLACK
6
CONTINUOUS
10
5.25492
20
-4.03524
11
5.25494
21
-4.03504
0
LINE
8
BLACK
6
CONTINUOUS
10
5.25494
20
-4.03504
11
5.25499
21
-4.03486
0
LINE
8
BLACK
6
CONTINUOUS
10
5.25499
20
-4.03486
11
5.25508
21
-4.03469
0
LINE
8
BLACK
6
CONTINUOUS
10
5.25508
20
-4.03469
11
5.25521
21
-4.03454
0
LINE
8
BLACK
6
CONTINUOUS
10
5.25521
20
-4.03454
11
5.25536
21
-4.03441
0
LINE
8
BLACK
6
CONTINUOUS
10
5.25536
20
-4.03441
11
5.25553
21
-4.03432
0
LINE
8
BLACK
6
CONTINUOUS
10
5.25553
20
-4.03432
11
5.25571
21
-4.03427
0
LINE
8
BLACK
6
CONTINUOUS
10
5.25571
20
-4.03427
11
5.25586
21
-4.03425
0
LINE
8
BLACK
6
CONTINUOUS
10
5.25586
20
-4.03425
11
5.25586
21
-4.03425
0
LINE
8
BLACK
6
CONTINUOUS
10
5.25586
20
-4.03425
11
5.25591
21
-4.03425
0
LINE
8
BLACK
6
CONTINUOUS
10
5.25591
20
-4.03425
11
5.25595
21
-4.03425
0
LINE
8
BLACK
6
CONTINUOUS
10
5.25595
20
-4.03425
11
5.34405
21
-4.03425
0
LINE
8
BLACK
6
CONTINUOUS
10
5.34405
20
-4.03425
11
5.34409
21
-4.03425
0
LINE
8
BLACK
6
CONTINUOUS
10
5.34409
20
-4.03425
11
5.34414
21
-4.03425
0
LINE
8
BLACK
6
CONTINUOUS
10
5.25689
20
-4.03622
11
5.25689
21
-4.21378
0
LINE
8
BLACK
6
CONTINUOUS
10
5.25689
20
-4.21378
11
5.34311
21
-4.21378
0
LINE
8
BLACK
6
CONTINUOUS
10
5.34311
20
-4.21378
11
5.34311
21
-4.03622
0
LINE
8
BLACK
6
CONTINUOUS
10
5.34311
20
-4.03622
11
5.25689
21
-4.03622
0
LINE
8
BLACK
6
CONTINUOUS
10
5.17485
20
-4.05315
11
5.17485
21
-4.05315
0
LINE
8
BLACK
6
CONTINUOUS
10
5.17485
20
-4.05315
11
5.175
21
-4.05316
0
LINE
8
BLACK
6
CONTINUOUS
10
5.175
20
-4.05316
11
5.17518
21
-4.05322
0
LINE
8
BLACK
6
CONTINUOUS
10
5.17518
20
-4.05322
11
5.17535
21
-4.05331
0
LINE
8
BLACK
6
CONTINUOUS
10
5.17535
20
-4.05331
11
5.1755
21
-4.05343
0
LINE
8
BLACK
6
CONTINUOUS
10
5.1755
20
-4.05343
11
5.17563
21
-4.05358
0
LINE
8
BLACK
6
CONTINUOUS
10
5.17563
20
-4.05358
11
5.17572
21
-4.05376
0
LINE
8
BLACK
6
CONTINUOUS
10
5.17572
20
-4.05376
11
5.17577
21
-4.05394
0
LINE
8
BLACK
6
CONTINUOUS
10
5.17577
20
-4.05394
11
5.17579
21
-4.05413
0
LINE
8
BLACK
6
CONTINUOUS
10
5.17579
20
-4.05413
11
5.17579
21
-4.05418
0
LINE
8
BLACK
6
CONTINUOUS
10
5.17579
20
-4.05418
11
5.17579
21
-4.19582
0
LINE
8
BLACK
6
CONTINUOUS
10
5.17579
20
-4.19582
11
5.17579
21
-4.19587
0
LINE
8
BLACK
6
CONTINUOUS
10
5.17579
20
-4.19587
11
5.17579
21
-4.19591
0
LINE
8
BLACK
6
CONTINUOUS
10
5.17579
20
-4.19591
11
5.17579
21
-4.19591
0
LINE
8
BLACK
6
CONTINUOUS
10
5.17579
20
-4.19591
11
5.17577
21
-4.19606
0
LINE
8
BLACK
6
CONTINUOUS
10
5.17577
20
-4.19606
11
5.17572
21
-4.19624
0
LINE
8
BLACK
6
CONTINUOUS
10
5.17572
20
-4.19624
11
5.17563
21
-4.19642
0
LINE
8
BLACK
6
CONTINUOUS
10
5.17563
20
-4.19642
11
5.1755
21
-4.19657
0
LINE
8
BLACK
6
CONTINUOUS
10
5.1755
20
-4.19657
11
5.17535
21
-4.19669
0
LINE
8
BLACK
6
CONTINUOUS
10
5.17535
20
-4.19669
11
5.17518
21
-4.19678
0
LINE
8
BLACK
6
CONTINUOUS
10
5.17518
20
-4.19678
11
5.175
21
-4.19684
0
LINE
8
BLACK
6
CONTINUOUS
10
5.175
20
-4.19684
11
5.1748
21
-4.19686
0
LINE
8
BLACK
6
CONTINUOUS
10
5.1748
20
-4.19686
11
5.17476
21
-4.19685
0
LINE
8
BLACK
6
CONTINUOUS
10
5.17476
20
-4.19685
11
5.02524
21
-4.19685
0
LINE
8
BLACK
6
CONTINUOUS
10
5.02524
20
-4.19685
11
5.0252
21
-4.19686
0
LINE
8
BLACK
6
CONTINUOUS
10
5.0252
20
-4.19686
11
5.025
21
-4.19684
0
LINE
8
BLACK
6
CONTINUOUS
10
5.025
20
-4.19684
11
5.02482
21
-4.19678
0
LINE
8
BLACK
6
CONTINUOUS
10
5.02482
20
-4.19678
11
5.02465
21
-4.19669
0
LINE
8
BLACK
6
CONTINUOUS
10
5.02465
20
-4.19669
11
5.0245
21
-4.19657
0
LINE
8
BLACK
6
CONTINUOUS
10
5.0245
20
-4.19657
11
5.02437
21
-4.19642
0
LINE
8
BLACK
6
CONTINUOUS
10
5.02437
20
-4.19642
11
5.02428
21
-4.19624
0
LINE
8
BLACK
6
CONTINUOUS
10
5.02428
20
-4.19624
11
5.02423
21
-4.19606
0
LINE
8
BLACK
6
CONTINUOUS
10
5.02423
20
-4.19606
11
5.02421
21
-4.19587
0
LINE
8
BLACK
6
CONTINUOUS
10
5.02421
20
-4.19587
11
5.02421
21
-4.19582
0
LINE
8
BLACK
6
CONTINUOUS
10
5.02421
20
-4.19582
11
5.02421
21
-4.05418
0
LINE
8
BLACK
6
CONTINUOUS
10
5.02421
20
-4.05418
11
5.02421
21
-4.05413
0
LINE
8
BLACK
6
CONTINUOUS
10
5.02421
20
-4.05413
11
5.02423
21
-4.05394
0
LINE
8
BLACK
6
CONTINUOUS
10
5.02423
20
-4.05394
11
5.02428
21
-4.05376
0
LINE
8
BLACK
6
CONTINUOUS
10
5.02428
20
-4.05376
11
5.02437
21
-4.05358
0
LINE
8
BLACK
6
CONTINUOUS
10
5.02437
20
-4.05358
11
5.0245
21
-4.05343
0
LINE
8
BLACK
6
CONTINUOUS
10
5.0245
20
-4.05343
11
5.02465
21
-4.05331
0
LINE
8
BLACK
6
CONTINUOUS
10
5.02465
20
-4.05331
11
5.02482
21
-4.05322
0
LINE
8
BLACK
6
CONTINUOUS
10
5.02482
20
-4.05322
11
5.025
21
-4.05316
0
LINE
8
BLACK
6
CONTINUOUS
10
5.025
20
-4.05316
11
5.02515
21
-4.05315
0
LINE
8
BLACK
6
CONTINUOUS
10
5.02515
20
-4.05315
11
5.02515
21
-4.05315
0
LINE
8
BLACK
6
CONTINUOUS
10
5.02515
20
-4.05315
11
5.0252
21
-4.05314
0
LINE
8
BLACK
6
CONTINUOUS
10
5.0252
20
-4.05314
11
5.02524
21
-4.05315
0
LINE
8
BLACK
6
CONTINUOUS
10
5.02524
20
-4.05315
11
5.17476
21
-4.05315
0
LINE
8
BLACK
6
CONTINUOUS
10
5.17476
20
-4.05315
11
5.1748
21
-4.05314
0
LINE
8
BLACK
6
CONTINUOUS
10
5.1748
20
-4.05314
11
5.17485
21
-4.05315
0
LINE
8
BLACK
6
CONTINUOUS
10
5.02618
20
-4.05512
11
5.02618
21
-4.19488
0
LINE
8
BLACK
6
CONTINUOUS
10
5.02618
20
-4.19488
11
5.17382
21
-4.19488
0
LINE
8
BLACK
6
CONTINUOUS
10
5.17382
20
-4.19488
11
5.17382
21
-4.05512
0
LINE
8
BLACK
6
CONTINUOUS
10
5.17382
20
-4.05512
11
5.02618
21
-4.05512
0
LINE
8
BLACK
6
CONTINUOUS
10
5.0032
20
-3.67087
11
5.00334
21
-3.67088
0
LINE
8
BLACK
6
CONTINUOUS
10
5.00334
20
-3.67088
11
5.00353
21
-3.67094
0
LINE
8
BLACK
6
CONTINUOUS
10
5.00353
20
-3.67094
11
5.0037
21
-3.67103
0
LINE
8
BLACK
6
CONTINUOUS
10
5.0037
20
-3.67103
11
5.00385
21
-3.67115
0
LINE
8
BLACK
6
CONTINUOUS
10
5.00385
20
-3.67115
11
5.00397
21
-3.6713
0
LINE
8
BLACK
6
CONTINUOUS
10
5.00397
20
-3.6713
11
5.00406
21
-3.67147
0
LINE
8
BLACK
6
CONTINUOUS
10
5.00406
20
-3.67147
11
5.00412
21
-3.67166
0
LINE
8
BLACK
6
CONTINUOUS
10
5.00412
20
-3.67166
11
5.00414
21
-3.67185
0
LINE
8
BLACK
6
CONTINUOUS
10
5.00414
20
-3.67185
11
5.00413
21
-3.6719
0
LINE
8
BLACK
6
CONTINUOUS
10
5.00413
20
-3.6719
11
5.00413
21
-3.8781
0
LINE
8
BLACK
6
CONTINUOUS
10
5.00413
20
-3.8781
11
5.00414
21
-3.87815
0
LINE
8
BLACK
6
CONTINUOUS
10
5.00414
20
-3.87815
11
5.00412
21
-3.87834
0
LINE
8
BLACK
6
CONTINUOUS
10
5.00412
20
-3.87834
11
5.00406
21
-3.87853
0
LINE
8
BLACK
6
CONTINUOUS
10
5.00406
20
-3.87853
11
5.00397
21
-3.8787
0
LINE
8
BLACK
6
CONTINUOUS
10
5.00397
20
-3.8787
11
5.00385
21
-3.87885
0
LINE
8
BLACK
6
CONTINUOUS
10
5.00385
20
-3.87885
11
5.0037
21
-3.87897
0
LINE
8
BLACK
6
CONTINUOUS
10
5.0037
20
-3.87897
11
5.00353
21
-3.87906
0
LINE
8
BLACK
6
CONTINUOUS
10
5.00353
20
-3.87906
11
5.00334
21
-3.87912
0
LINE
8
BLACK
6
CONTINUOUS
10
5.00334
20
-3.87912
11
5.0032
21
-3.87913
0
LINE
8
BLACK
6
CONTINUOUS
10
5.0032
20
-3.87913
11
5.0032
21
-3.87913
0
LINE
8
BLACK
6
CONTINUOUS
10
5.0032
20
-3.87913
11
5.00315
21
-3.87914
0
LINE
8
BLACK
6
CONTINUOUS
10
5.00315
20
-3.87914
11
5.0031
21
-3.87913
0
LINE
8
BLACK
6
CONTINUOUS
10
5.0031
20
-3.87913
11
4.7969
21
-3.87913
0
LINE
8
BLACK
6
CONTINUOUS
10
4.7969
20
-3.87913
11
4.79685
21
-3.87914
0
LINE
8
BLACK
6
CONTINUOUS
10
4.79685
20
-3.87914
11
4.7968
21
-3.87913
0
LINE
8
BLACK
6
CONTINUOUS
10
4.7968
20
-3.87913
11
4.7968
21
-3.87913
0
LINE
8
BLACK
6
CONTINUOUS
10
4.7968
20
-3.87913
11
4.79666
21
-3.87912
0
LINE
8
BLACK
6
CONTINUOUS
10
4.79666
20
-3.87912
11
4.79647
21
-3.87906
0
LINE
8
BLACK
6
CONTINUOUS
10
4.79647
20
-3.87906
11
4.7963
21
-3.87897
0
LINE
8
BLACK
6
CONTINUOUS
10
4.7963
20
-3.87897
11
4.79615
21
-3.87885
0
LINE
8
BLACK
6
CONTINUOUS
10
4.79615
20
-3.87885
11
4.79603
21
-3.8787
0
LINE
8
BLACK
6
CONTINUOUS
10
4.79603
20
-3.8787
11
4.79594
21
-3.87853
0
LINE
8
BLACK
6
CONTINUOUS
10
4.79594
20
-3.87853
11
4.79588
21
-3.87834
0
LINE
8
BLACK
6
CONTINUOUS
10
4.79588
20
-3.87834
11
4.79586
21
-3.87815
0
LINE
8
BLACK
6
CONTINUOUS
10
4.79586
20
-3.87815
11
4.79587
21
-3.8781
0
LINE
8
BLACK
6
CONTINUOUS
10
4.79587
20
-3.8781
11
4.79587
21
-3.6719
0
LINE
8
BLACK
6
CONTINUOUS
10
4.79587
20
-3.6719
11
4.79586
21
-3.67185
0
LINE
8
BLACK
6
CONTINUOUS
10
4.79586
20
-3.67185
11
4.79588
21
-3.67166
0
LINE
8
BLACK
6
CONTINUOUS
10
4.79588
20
-3.67166
11
4.79594
21
-3.67147
0
LINE
8
BLACK
6
CONTINUOUS
10
4.79594
20
-3.67147
11
4.79603
21
-3.6713
0
LINE
8
BLACK
6
CONTINUOUS
10
4.79603
20
-3.6713
11
4.79615
21
-3.67115
0
LINE
8
BLACK
6
CONTINUOUS
10
4.79615
20
-3.67115
11
4.7963
21
-3.67103
0
LINE
8
BLACK
6
CONTINUOUS
10
4.7963
20
-3.67103
11
4.79647
21
-3.67094
0
LINE
8
BLACK
6
CONTINUOUS
10
4.79647
20
-3.67094
11
4.79666
21
-3.67088
0
LINE
8
BLACK
6
CONTINUOUS
10
4.79666
20
-3.67088
11
4.7968
21
-3.67087
0
LINE
8
BLACK
6
CONTINUOUS
10
4.7968
20
-3.67087
11
4.79685
21
-3.67086
0
LINE
8
BLACK
6
CONTINUOUS
10
4.79685
20
-3.67086
11
4.7969
21
-3.67087
0
LINE
8
BLACK
6
CONTINUOUS
10
4.7969
20
-3.67087
11
5.0031
21
-3.67087
0
LINE
8
BLACK
6
CONTINUOUS
10
5.0031
20
-3.67087
11
5.00315
21
-3.67086
0
LINE
8
BLACK
6
CONTINUOUS
10
5.00315
20
-3.67086
11
5.0032
21
-3.67087
0
LINE
8
BLACK
6
CONTINUOUS
10
4.79783
20
-3.67283
11
4.79783
21
-3.87717
0
LINE
8
BLACK
6
CONTINUOUS
10
4.79783
20
-3.87717
11
5.00217
21
-3.87717
0
LINE
8
BLACK
6
CONTINUOUS
10
5.00217
20
-3.87717
11
5.00217
21
-3.67283
0
LINE
8
BLACK
6
CONTINUOUS
10
5.00217
20
-3.67283
11
4.79783
21
-3.67283
0
LINE
8
BLACK
6
CONTINUOUS
10
5.21619
20
-3.78661
11
5.21619
21
-3.78661
0
LINE
8
BLACK
6
CONTINUOUS
10
5.21619
20
-3.78661
11
5.21633
21
-3.78663
0
LINE
8
BLACK
6
CONTINUOUS
10
5.21633
20
-3.78663
11
5.21652
21
-3.78668
0
LINE
8
BLACK
6
CONTINUOUS
10
5.21652
20
-3.78668
11
5.21669
21
-3.78678
0
LINE
8
BLACK
6
CONTINUOUS
10
5.21669
20
-3.78678
11
5.21684
21
-3.7869
0
LINE
8
BLACK
6
CONTINUOUS
10
5.21684
20
-3.7869
11
5.21696
21
-3.78705
0
LINE
8
BLACK
6
CONTINUOUS
10
5.21696
20
-3.78705
11
5.21706
21
-3.78722
0
LINE
8
BLACK
6
CONTINUOUS
10
5.21706
20
-3.78722
11
5.21711
21
-3.78741
0
LINE
8
BLACK
6
CONTINUOUS
10
5.21711
20
-3.78741
11
5.21713
21
-3.7876
0
LINE
8
BLACK
6
CONTINUOUS
10
5.21713
20
-3.7876
11
5.21713
21
-3.78765
0
LINE
8
BLACK
6
CONTINUOUS
10
5.21713
20
-3.78765
11
5.21713
21
-3.86235
0
LINE
8
BLACK
6
CONTINUOUS
10
5.21713
20
-3.86235
11
5.21713
21
-3.8624
0
LINE
8
BLACK
6
CONTINUOUS
10
5.21713
20
-3.8624
11
5.21713
21
-3.86245
0
LINE
8
BLACK
6
CONTINUOUS
10
5.21713
20
-3.86245
11
5.21713
21
-3.86245
0
LINE
8
BLACK
6
CONTINUOUS
10
5.21713
20
-3.86245
11
5.21711
21
-3.86259
0
LINE
8
BLACK
6
CONTINUOUS
10
5.21711
20
-3.86259
11
5.21706
21
-3.86278
0
LINE
8
BLACK
6
CONTINUOUS
10
5.21706
20
-3.86278
11
5.21696
21
-3.86295
0
LINE
8
BLACK
6
CONTINUOUS
10
5.21696
20
-3.86295
11
5.21684
21
-3.8631
0
LINE
8
BLACK
6
CONTINUOUS
10
5.21684
20
-3.8631
11
5.21669
21
-3.86322
0
LINE
8
BLACK
6
CONTINUOUS
10
5.21669
20
-3.86322
11
5.21652
21
-3.86332
0
LINE
8
BLACK
6
CONTINUOUS
10
5.21652
20
-3.86332
11
5.21633
21
-3.86337
0
LINE
8
BLACK
6
CONTINUOUS
10
5.21633
20
-3.86337
11
5.21614
21
-3.86339
0
LINE
8
BLACK
6
CONTINUOUS
10
5.21614
20
-3.86339
11
5.21609
21
-3.86339
0
LINE
8
BLACK
6
CONTINUOUS
10
5.21609
20
-3.86339
11
5.08391
21
-3.86339
0
LINE
8
BLACK
6
CONTINUOUS
10
5.08391
20
-3.86339
11
5.08386
21
-3.86339
0
LINE
8
BLACK
6
CONTINUOUS
10
5.08386
20
-3.86339
11
5.08367
21
-3.86337
0
LINE
8
BLACK
6
CONTINUOUS
10
5.08367
20
-3.86337
11
5.08348
21
-3.86332
0
LINE
8
BLACK
6
CONTINUOUS
10
5.08348
20
-3.86332
11
5.08331
21
-3.86322
0
LINE
8
BLACK
6
CONTINUOUS
10
5.08331
20
-3.86322
11
5.08316
21
-3.8631
0
LINE
8
BLACK
6
CONTINUOUS
10
5.08316
20
-3.8631
11
5.08304
21
-3.86295
0
LINE
8
BLACK
6
CONTINUOUS
10
5.08304
20
-3.86295
11
5.08294
21
-3.86278
0
LINE
8
BLACK
6
CONTINUOUS
10
5.08294
20
-3.86278
11
5.08289
21
-3.86259
0
LINE
8
BLACK
6
CONTINUOUS
10
5.08289
20
-3.86259
11
5.08287
21
-3.8624
0
LINE
8
BLACK
6
CONTINUOUS
10
5.08287
20
-3.8624
11
5.08287
21
-3.86235
0
LINE
8
BLACK
6
CONTINUOUS
10
5.08287
20
-3.86235
11
5.08287
21
-3.78765
0
LINE
8
BLACK
6
CONTINUOUS
10
5.08287
20
-3.78765
11
5.08287
21
-3.7876
0
LINE
8
BLACK
6
CONTINUOUS
10
5.08287
20
-3.7876
11
5.08289
21
-3.78741
0
LINE
8
BLACK
6
CONTINUOUS
10
5.08289
20
-3.78741
11
5.08294
21
-3.78722
0
LINE
8
BLACK
6
CONTINUOUS
10
5.08294
20
-3.78722
11
5.08304
21
-3.78705
0
LINE
8
BLACK
6
CONTINUOUS
10
5.08304
20
-3.78705
11
5.08316
21
-3.7869
0
LINE
8
BLACK
6
CONTINUOUS
10
5.08316
20
-3.7869
11
5.08331
21
-3.78678
0
LINE
8
BLACK
6
CONTINUOUS
10
5.08331
20
-3.78678
11
5.08348
21
-3.78668
0
LINE
8
BLACK
6
CONTINUOUS
10
5.08348
20
-3.78668
11
5.08367
21
-3.78663
0
LINE
8
BLACK
6
CONTINUOUS
10
5.08367
20
-3.78663
11
5.08381
21
-3.78661
0
LINE
8
BLACK
6
CONTINUOUS
10
5.08381
20
-3.78661
11
5.08381
21
-3.78661
0
LINE
8
BLACK
6
CONTINUOUS
10
5.08381
20
-3.78661
11
5.08386
21
-3.78661
0
LINE
8
BLACK
6
CONTINUOUS
10
5.08386
20
-3.78661
11
5.08391
21
-3.78661
0
LINE
8
BLACK
6
CONTINUOUS
10
5.08391
20
-3.78661
11
5.21609
21
-3.78661
0
LINE
8
BLACK
6
CONTINUOUS
10
5.21609
20
-3.78661
11
5.21614
21
-3.78661
0
LINE
8
BLACK
6
CONTINUOUS
10
5.21614
20
-3.78661
11
5.21619
21
-3.78661
0
LINE
8
BLACK
6
CONTINUOUS
10
5.08484
20
-3.78858
11
5.08484
21
-3.86142
0
LINE
8
BLACK
6
CONTINUOUS
10
5.08484
20
-3.86142
11
5.21516
21
-3.86142
0
LINE
8
BLACK
6
CONTINUOUS
10
5.21516
20
-3.86142
11
5.21516
21
-3.78858
0
LINE
8
BLACK
6
CONTINUOUS
10
5.21516
20
-3.78858
11
5.08484
21
-3.78858
0
LINE
8
BLACK
6
CONTINUOUS
10
5.21619
20
-3.58661
11
5.21619
21
-3.58661
0
LINE
8
BLACK
6
CONTINUOUS
10
5.21619
20
-3.58661
11
5.21633
21
-3.58663
0
LINE
8
BLACK
6
CONTINUOUS
10
5.21633
20
-3.58663
11
5.21652
21
-3.58668
0
LINE
8
BLACK
6
CONTINUOUS
10
5.21652
20
-3.58668
11
5.21669
21
-3.58678
0
LINE
8
BLACK
6
CONTINUOUS
10
5.21669
20
-3.58678
11
5.21684
21
-3.5869
0
LINE
8
BLACK
6
CONTINUOUS
10
5.21684
20
-3.5869
11
5.21696
21
-3.58705
0
LINE
8
BLACK
6
CONTINUOUS
10
5.21696
20
-3.58705
11
5.21706
21
-3.58722
0
LINE
8
BLACK
6
CONTINUOUS
10
5.21706
20
-3.58722
11
5.21711
21
-3.58741
0
LINE
8
BLACK
6
CONTINUOUS
10
5.21711
20
-3.58741
11
5.21713
21
-3.5876
0
LINE
8
BLACK
6
CONTINUOUS
10
5.21713
20
-3.5876
11
5.21713
21
-3.58765
0
LINE
8
BLACK
6
CONTINUOUS
10
5.21713
20
-3.58765
11
5.21713
21
-3.66235
0
LINE
8
BLACK
6
CONTINUOUS
10
5.21713
20
-3.66235
11
5.21713
21
-3.6624
0
LINE
8
BLACK
6
CONTINUOUS
10
5.21713
20
-3.6624
11
5.21713
21
-3.66245
0
LINE
8
BLACK
6
CONTINUOUS
10
5.21713
20
-3.66245
11
5.21713
21
-3.66245
0
LINE
8
BLACK
6
CONTINUOUS
10
5.21713
20
-3.66245
11
5.21711
21
-3.66259
0
LINE
8
BLACK
6
CONTINUOUS
10
5.21711
20
-3.66259
11
5.21706
21
-3.66278
0
LINE
8
BLACK
6
CONTINUOUS
10
5.21706
20
-3.66278
11
5.21696
21
-3.66295
0
LINE
8
BLACK
6
CONTINUOUS
10
5.21696
20
-3.66295
11
5.21684
21
-3.6631
0
LINE
8
BLACK
6
CONTINUOUS
10
5.21684
20
-3.6631
11
5.21669
21
-3.66322
0
LINE
8
BLACK
6
CONTINUOUS
10
5.21669
20
-3.66322
11
5.21652
21
-3.66332
0
LINE
8
BLACK
6
CONTINUOUS
10
5.21652
20
-3.66332
11
5.21633
21
-3.66337
0
LINE
8
BLACK
6
CONTINUOUS
10
5.21633
20
-3.66337
11
5.21614
21
-3.66339
0
LINE
8
BLACK
6
CONTINUOUS
10
5.21614
20
-3.66339
11
5.21609
21
-3.66339
0
LINE
8
BLACK
6
CONTINUOUS
10
5.21609
20
-3.66339
11
5.08391
21
-3.66339
0
LINE
8
BLACK
6
CONTINUOUS
10
5.08391
20
-3.66339
11
5.08386
21
-3.66339
0
LINE
8
BLACK
6
CONTINUOUS
10
5.08386
20
-3.66339
11
5.08367
21
-3.66337
0
LINE
8
BLACK
6
CONTINUOUS
10
5.08367
20
-3.66337
11
5.08348
21
-3.66332
0
LINE
8
BLACK
6
CONTINUOUS
10
5.08348
20
-3.66332
11
5.08331
21
-3.66322
0
LINE
8
BLACK
6
CONTINUOUS
10
5.08331
20
-3.66322
11
5.08316
21
-3.6631
0
LINE
8
BLACK
6
CONTINUOUS
10
5.08316
20
-3.6631
11
5.08304
21
-3.66295
0
LINE
8
BLACK
6
CONTINUOUS
10
5.08304
20
-3.66295
11
5.08294
21
-3.66278
0
LINE
8
BLACK
6
CONTINUOUS
10
5.08294
20
-3.66278
11
5.08289
21
-3.66259
0
LINE
8
BLACK
6
CONTINUOUS
10
5.08289
20
-3.66259
11
5.08287
21
-3.6624
0
LINE
8
BLACK
6
CONTINUOUS
10
5.08287
20
-3.6624
11
5.08287
21
-3.66235
0
LINE
8
BLACK
6
CONTINUOUS
10
5.08287
20
-3.66235
11
5.08287
21
-3.58765
0
LINE
8
BLACK
6
CONTINUOUS
10
5.08287
20
-3.58765
11
5.08287
21
-3.5876
0
LINE
8
BLACK
6
CONTINUOUS
10
5.08287
20
-3.5876
11
5.08289
21
-3.58741
0
LINE
8
BLACK
6
CONTINUOUS
10
5.08289
20
-3.58741
11
5.08294
21
-3.58722
0
LINE
8
BLACK
6
CONTINUOUS
10
5.08294
20
-3.58722
11
5.08304
21
-3.58705
0
LINE
8
BLACK
6
CONTINUOUS
10
5.08304
20
-3.58705
11
5.08316
21
-3.5869
0
LINE
8
BLACK
6
CONTINUOUS
10
5.08316
20
-3.5869
11
5.08331
21
-3.58678
0
LINE
8
BLACK
6
CONTINUOUS
10
5.08331
20
-3.58678
11
5.08348
21
-3.58668
0
LINE
8
BLACK
6
CONTINUOUS
10
5.08348
20
-3.58668
11
5.08367
21
-3.58663
0
LINE
8
BLACK
6
CONTINUOUS
10
5.08367
20
-3.58663
11
5.08381
21
-3.58661
0
LINE
8
BLACK
6
CONTINUOUS
10
5.08381
20
-3.58661
11
5.08381
21
-3.58661
0
LINE
8
BLACK
6
CONTINUOUS
10
5.08381
20
-3.58661
11
5.08386
21
-3.58661
0
LINE
8
BLACK
6
CONTINUOUS
10
5.08386
20
-3.58661
11
5.08391
21
-3.58661
0
LINE
8
BLACK
6
CONTINUOUS
10
5.08391
20
-3.58661
11
5.21609
21
-3.58661
0
LINE
8
BLACK
6
CONTINUOUS
10
5.21609
20
-3.58661
11
5.21614
21
-3.58661
0
LINE
8
BLACK
6
CONTINUOUS
10
5.21614
20
-3.58661
11
5.21619
21
-3.58661
0
LINE
8
BLACK
6
CONTINUOUS
10
5.08484
20
-3.58858
11
5.08484
21
-3.66142
0
LINE
8
BLACK
6
CONTINUOUS
10
5.08484
20
-3.66142
11
5.21516
21
-3.66142
0
LINE
8
BLACK
6
CONTINUOUS
10
5.21516
20
-3.66142
11
5.21516
21
-3.58858
0
LINE
8
BLACK
6
CONTINUOUS
10
5.21516
20
-3.58858
11
5.08484
21
-3.58858
  0
ENDSEC
  0
EOF
