  0
SECTION
  2
HEADER
  9
$ANGBASE
  50
0.0
  9
$ANGDIR
  70
1
  9
$MEASUREMENT
  70
0
  0
ENDSEC
  0
SECTION
  2
TABLES
  0
TABLE
  2
LTYPE
  70
4
  0
LTYPE
  5
40F
  2
CONTINUOUS
  70
0
  3
Solid line
  72
65
  73
0
  40
0.0
  0
LTYPE
  5
410
  2
DASHDOT
 70
0
  3
Dash Dot ____ _ ____ _
 72
65
 73
4
 40
2.0
 49
1.25
 49
-0.25
 49
0.25
 49
-0.25
  0
LTYPE
  5
411
  2
DASHED
 70
0
  3
Dashed __ __ __ __ __
 72
65
 73
2
 40
0.75
 49
0.5
 49
-0.25
  0
LTYPE
  5
43B
  2
DOTTED
 70
0
  3
Dotted .  .  .  .
 72
65
 73
2
 40
0.2
 49
0.0
 49
-0.2
  0
ENDTAB
  0
TABLE
  2
STYLE
  70
4
  0
STYLE
  2
KICAD
  70
0
  40
0
  41
1
  42
1
  50
0
  71
0
  3
isocp.shx
  0
STYLE
  2
KICADB
  70
0
  40
0
  41
1
  42
1
  50
0
  71
0
  3
isocp.shx
  0
STYLE
  2
KICADI
  70
0
  40
0
  41
1
  42
1
  50
15
  71
0
  3
isocp.shx
  0
STYLE
  2
KICADBI
  70
0
  40
0
  41
1
  42
1
  50
15
  71
0
  3
isocp.shx
  0
ENDTAB
  0
TABLE
  2
LAYER
  70
1
  0
LAYER
  2
BLACK
  70
0
  62
7
  6
CONTINUOUS
  0
ENDTAB
  0
ENDSEC
  0
SECTION
  2
ENTITIES
0
LINE
8
BLACK
6
CONTINUOUS
10
5.50005
20
-3.49902
11
5.50019
21
-3.49903
0
LINE
8
BLACK
6
CONTINUOUS
10
5.50019
20
-3.49903
11
5.50038
21
-3.49909
0
LINE
8
BLACK
6
CONTINUOUS
10
5.50038
20
-3.49909
11
5.50055
21
-3.49918
0
LINE
8
BLACK
6
CONTINUOUS
10
5.50055
20
-3.49918
11
5.5007
21
-3.4993
0
LINE
8
BLACK
6
CONTINUOUS
10
5.5007
20
-3.4993
11
5.50082
21
-3.49945
0
LINE
8
BLACK
6
CONTINUOUS
10
5.50082
20
-3.49945
11
5.50091
21
-3.49962
0
LINE
8
BLACK
6
CONTINUOUS
10
5.50091
20
-3.49962
11
5.50097
21
-3.49981
0
LINE
8
BLACK
6
CONTINUOUS
10
5.50097
20
-3.49981
11
5.50099
21
-3.5
0
LINE
8
BLACK
6
CONTINUOUS
10
5.50099
20
-3.5
11
5.50098
21
-3.50005
0
LINE
8
BLACK
6
CONTINUOUS
10
5.50098
20
-3.50005
11
5.50098
21
-4.29995
0
LINE
8
BLACK
6
CONTINUOUS
10
5.50098
20
-4.29995
11
5.50099
21
-4.3
0
LINE
8
BLACK
6
CONTINUOUS
10
5.50099
20
-4.3
11
5.50097
21
-4.30019
0
LINE
8
BLACK
6
CONTINUOUS
10
5.50097
20
-4.30019
11
5.50091
21
-4.30038
0
LINE
8
BLACK
6
CONTINUOUS
10
5.50091
20
-4.30038
11
5.50082
21
-4.30055
0
LINE
8
BLACK
6
CONTINUOUS
10
5.50082
20
-4.30055
11
5.5007
21
-4.3007
0
LINE
8
BLACK
6
CONTINUOUS
10
5.5007
20
-4.3007
11
5.50055
21
-4.30082
0
LINE
8
BLACK
6
CONTINUOUS
10
5.50055
20
-4.30082
11
5.50038
21
-4.30091
0
LINE
8
BLACK
6
CONTINUOUS
10
5.50038
20
-4.30091
11
5.50019
21
-4.30097
0
LINE
8
BLACK
6
CONTINUOUS
10
5.50019
20
-4.30097
11
5.50005
21
-4.30098
0
LINE
8
BLACK
6
CONTINUOUS
10
5.50005
20
-4.30098
11
5.50005
21
-4.30098
0
LINE
8
BLACK
6
CONTINUOUS
10
5.50005
20
-4.30098
11
5.5
21
-4.30099
0
LINE
8
BLACK
6
CONTINUOUS
10
5.5
20
-4.30099
11
5.49995
21
-4.30098
0
LINE
8
BLACK
6
CONTINUOUS
10
5.49995
20
-4.30098
11
4.70005
21
-4.30098
0
LINE
8
BLACK
6
CONTINUOUS
10
4.70005
20
-4.30098
11
4.7
21
-4.30099
0
LINE
8
BLACK
6
CONTINUOUS
10
4.7
20
-4.30099
11
4.69995
21
-4.30098
0
LINE
8
BLACK
6
CONTINUOUS
10
4.69995
20
-4.30098
11
4.69995
21
-4.30098
0
LINE
8
BLACK
6
CONTINUOUS
10
4.69995
20
-4.30098
11
4.69981
21
-4.30097
0
LINE
8
BLACK
6
CONTINUOUS
10
4.69981
20
-4.30097
11
4.69962
21
-4.30091
0
LINE
8
BLACK
6
CONTINUOUS
10
4.69962
20
-4.30091
11
4.69945
21
-4.30082
0
LINE
8
BLACK
6
CONTINUOUS
10
4.69945
20
-4.30082
11
4.6993
21
-4.3007
0
LINE
8
BLACK
6
CONTINUOUS
10
4.6993
20
-4.3007
11
4.69918
21
-4.30055
0
LINE
8
BLACK
6
CONTINUOUS
10
4.69918
20
-4.30055
11
4.69909
21
-4.30038
0
LINE
8
BLACK
6
CONTINUOUS
10
4.69909
20
-4.30038
11
4.69903
21
-4.30019
0
LINE
8
BLACK
6
CONTINUOUS
10
4.69903
20
-4.30019
11
4.69901
21
-4.3
0
LINE
8
BLACK
6
CONTINUOUS
10
4.69901
20
-4.3
11
4.69902
21
-4.29995
0
LINE
8
BLACK
6
CONTINUOUS
10
4.69902
20
-4.29995
11
4.69902
21
-3.50005
0
LINE
8
BLACK
6
CONTINUOUS
10
4.69902
20
-3.50005
11
4.69901
21
-3.5
0
LINE
8
BLACK
6
CONTINUOUS
10
4.69901
20
-3.5
11
4.69903
21
-3.49981
0
LINE
8
BLACK
6
CONTINUOUS
10
4.69903
20
-3.49981
11
4.69909
21
-3.49962
0
LINE
8
BLACK
6
CONTINUOUS
10
4.69909
20
-3.49962
11
4.69918
21
-3.49945
0
LINE
8
BLACK
6
CONTINUOUS
10
4.69918
20
-3.49945
11
4.6993
21
-3.4993
0
LINE
8
BLACK
6
CONTINUOUS
10
4.6993
20
-3.4993
11
4.69945
21
-3.49918
0
LINE
8
BLACK
6
CONTINUOUS
10
4.69945
20
-3.49918
11
4.69962
21
-3.49909
0
LINE
8
BLACK
6
CONTINUOUS
10
4.69962
20
-3.49909
11
4.69981
21
-3.49903
0
LINE
8
BLACK
6
CONTINUOUS
10
4.69981
20
-3.49903
11
4.69995
21
-3.49902
0
LINE
8
BLACK
6
CONTINUOUS
10
4.69995
20
-3.49902
11
4.7
21
-3.49901
0
LINE
8
BLACK
6
CONTINUOUS
10
4.7
20
-3.49901
11
4.70005
21
-3.49902
0
LINE
8
BLACK
6
CONTINUOUS
10
4.70005
20
-3.49902
11
5.49995
21
-3.49902
0
LINE
8
BLACK
6
CONTINUOUS
10
5.49995
20
-3.49902
11
5.5
21
-3.49901
0
LINE
8
BLACK
6
CONTINUOUS
10
5.5
20
-3.49901
11
5.50005
21
-3.49902
0
LINE
8
BLACK
6
CONTINUOUS
10
4.70098
20
-3.50098
11
4.70098
21
-4.29902
0
LINE
8
BLACK
6
CONTINUOUS
10
4.70098
20
-4.29902
11
5.49902
21
-4.29902
0
LINE
8
BLACK
6
CONTINUOUS
10
5.49902
20
-4.29902
11
5.49902
21
-3.50098
0
LINE
8
BLACK
6
CONTINUOUS
10
5.49902
20
-3.50098
11
4.70098
21
-3.50098
  0
ENDSEC
  0
EOF
