  0
SECTION
  2
HEADER
  9
$ANGBASE
  50
0.0
  9
$ANGDIR
  70
1
  9
$MEASUREMENT
  70
0
  0
ENDSEC
  0
SECTION
  2
TABLES
  0
TABLE
  2
LTYPE
  70
4
  0
LTYPE
  5
40F
  2
CONTINUOUS
  70
0
  3
Solid line
  72
65
  73
0
  40
0.0
  0
LTYPE
  5
410
  2
DASHDOT
 70
0
  3
Dash Dot ____ _ ____ _
 72
65
 73
4
 40
2.0
 49
1.25
 49
-0.25
 49
0.25
 49
-0.25
  0
LTYPE
  5
411
  2
DASHED
 70
0
  3
Dashed __ __ __ __ __
 72
65
 73
2
 40
0.75
 49
0.5
 49
-0.25
  0
LTYPE
  5
43B
  2
DOTTED
 70
0
  3
Dotted .  .  .  .
 72
65
 73
2
 40
0.2
 49
0.0
 49
-0.2
  0
ENDTAB
  0
TABLE
  2
STYLE
  70
4
  0
STYLE
  2
KICAD
  70
0
  40
0
  41
1
  42
1
  50
0
  71
0
  3
isocp.shx
  0
STYLE
  2
KICADB
  70
0
  40
0
  41
1
  42
1
  50
0
  71
0
  3
isocp.shx
  0
STYLE
  2
KICADI
  70
0
  40
0
  41
1
  42
1
  50
15
  71
0
  3
isocp.shx
  0
STYLE
  2
KICADBI
  70
0
  40
0
  41
1
  42
1
  50
15
  71
0
  3
isocp.shx
  0
ENDTAB
  0
TABLE
  2
LAYER
  70
1
  0
LAYER
  2
BLACK
  70
0
  62
7
  6
CONTINUOUS
  0
ENDTAB
  0
ENDSEC
  0
SECTION
  2
ENTITIES
0
LINE
8
BLACK
6
CONTINUOUS
10
4.90251
20
-4.16062
11
4.90436
21
-4.16118
0
LINE
8
BLACK
6
CONTINUOUS
10
4.90436
20
-4.16118
11
4.90606
21
-4.16209
0
LINE
8
BLACK
6
CONTINUOUS
10
4.90606
20
-4.16209
11
4.90755
21
-4.16332
0
LINE
8
BLACK
6
CONTINUOUS
10
4.90755
20
-4.16332
11
4.90877
21
-4.16481
0
LINE
8
BLACK
6
CONTINUOUS
10
4.90877
20
-4.16481
11
4.90968
21
-4.16651
0
LINE
8
BLACK
6
CONTINUOUS
10
4.90968
20
-4.16651
11
4.91024
21
-4.16836
0
LINE
8
BLACK
6
CONTINUOUS
10
4.91024
20
-4.16836
11
4.91043
21
-4.17028
0
LINE
8
BLACK
6
CONTINUOUS
10
4.91043
20
-4.17028
11
4.91043
21
-4.19587
0
LINE
8
BLACK
6
CONTINUOUS
10
4.91043
20
-4.19587
11
4.91024
21
-4.19779
0
LINE
8
BLACK
6
CONTINUOUS
10
4.91024
20
-4.19779
11
4.90968
21
-4.19963
0
LINE
8
BLACK
6
CONTINUOUS
10
4.90968
20
-4.19963
11
4.90877
21
-4.20133
0
LINE
8
BLACK
6
CONTINUOUS
10
4.90877
20
-4.20133
11
4.90755
21
-4.20283
0
LINE
8
BLACK
6
CONTINUOUS
10
4.90755
20
-4.20283
11
4.90606
21
-4.20405
0
LINE
8
BLACK
6
CONTINUOUS
10
4.90606
20
-4.20405
11
4.90436
21
-4.20496
0
LINE
8
BLACK
6
CONTINUOUS
10
4.90436
20
-4.20496
11
4.90251
21
-4.20552
0
LINE
8
BLACK
6
CONTINUOUS
10
4.90251
20
-4.20552
11
4.90059
21
-4.20571
0
LINE
8
BLACK
6
CONTINUOUS
10
4.90059
20
-4.20571
11
4.84941
21
-4.20571
0
LINE
8
BLACK
6
CONTINUOUS
10
4.84941
20
-4.20571
11
4.84749
21
-4.20552
0
LINE
8
BLACK
6
CONTINUOUS
10
4.84749
20
-4.20552
11
4.84564
21
-4.20496
0
LINE
8
BLACK
6
CONTINUOUS
10
4.84564
20
-4.20496
11
4.84394
21
-4.20405
0
LINE
8
BLACK
6
CONTINUOUS
10
4.84394
20
-4.20405
11
4.84245
21
-4.20283
0
LINE
8
BLACK
6
CONTINUOUS
10
4.84245
20
-4.20283
11
4.84123
21
-4.20133
0
LINE
8
BLACK
6
CONTINUOUS
10
4.84123
20
-4.20133
11
4.84032
21
-4.19963
0
LINE
8
BLACK
6
CONTINUOUS
10
4.84032
20
-4.19963
11
4.83976
21
-4.19779
0
LINE
8
BLACK
6
CONTINUOUS
10
4.83976
20
-4.19779
11
4.83957
21
-4.19587
0
LINE
8
BLACK
6
CONTINUOUS
10
4.83957
20
-4.19587
11
4.83957
21
-4.17028
0
LINE
8
BLACK
6
CONTINUOUS
10
4.83957
20
-4.17028
11
4.83976
21
-4.16836
0
LINE
8
BLACK
6
CONTINUOUS
10
4.83976
20
-4.16836
11
4.84032
21
-4.16651
0
LINE
8
BLACK
6
CONTINUOUS
10
4.84032
20
-4.16651
11
4.84123
21
-4.16481
0
LINE
8
BLACK
6
CONTINUOUS
10
4.84123
20
-4.16481
11
4.84245
21
-4.16332
0
LINE
8
BLACK
6
CONTINUOUS
10
4.84245
20
-4.16332
11
4.84394
21
-4.16209
0
LINE
8
BLACK
6
CONTINUOUS
10
4.84394
20
-4.16209
11
4.84564
21
-4.16118
0
LINE
8
BLACK
6
CONTINUOUS
10
4.84564
20
-4.16118
11
4.84749
21
-4.16062
0
LINE
8
BLACK
6
CONTINUOUS
10
4.84749
20
-4.16062
11
4.84941
21
-4.16043
0
LINE
8
BLACK
6
CONTINUOUS
10
4.84941
20
-4.16043
11
4.90059
21
-4.16043
0
LINE
8
BLACK
6
CONTINUOUS
10
4.90059
20
-4.16043
11
4.90251
21
-4.16062
0
LINE
8
BLACK
6
CONTINUOUS
10
5.32653
20
-4.1557
11
5.32837
21
-4.15626
0
LINE
8
BLACK
6
CONTINUOUS
10
5.32837
20
-4.15626
11
5.33007
21
-4.15717
0
LINE
8
BLACK
6
CONTINUOUS
10
5.33007
20
-4.15717
11
5.33157
21
-4.15839
0
LINE
8
BLACK
6
CONTINUOUS
10
5.33157
20
-4.15839
11
5.33279
21
-4.15989
0
LINE
8
BLACK
6
CONTINUOUS
10
5.33279
20
-4.15989
11
5.3337
21
-4.16159
0
LINE
8
BLACK
6
CONTINUOUS
10
5.3337
20
-4.16159
11
5.33426
21
-4.16343
0
LINE
8
BLACK
6
CONTINUOUS
10
5.33426
20
-4.16343
11
5.33445
21
-4.16535
0
LINE
8
BLACK
6
CONTINUOUS
10
5.33445
20
-4.16535
11
5.33445
21
-4.19488
0
LINE
8
BLACK
6
CONTINUOUS
10
5.33445
20
-4.19488
11
5.33426
21
-4.1968
0
LINE
8
BLACK
6
CONTINUOUS
10
5.33426
20
-4.1968
11
5.3337
21
-4.19865
0
LINE
8
BLACK
6
CONTINUOUS
10
5.3337
20
-4.19865
11
5.33279
21
-4.20035
0
LINE
8
BLACK
6
CONTINUOUS
10
5.33279
20
-4.20035
11
5.33157
21
-4.20184
0
LINE
8
BLACK
6
CONTINUOUS
10
5.33157
20
-4.20184
11
5.33007
21
-4.20307
0
LINE
8
BLACK
6
CONTINUOUS
10
5.33007
20
-4.20307
11
5.32837
21
-4.20398
0
LINE
8
BLACK
6
CONTINUOUS
10
5.32837
20
-4.20398
11
5.32653
21
-4.20454
0
LINE
8
BLACK
6
CONTINUOUS
10
5.32653
20
-4.20454
11
5.32461
21
-4.20472
0
LINE
8
BLACK
6
CONTINUOUS
10
5.32461
20
-4.20472
11
5.27539
21
-4.20472
0
LINE
8
BLACK
6
CONTINUOUS
10
5.27539
20
-4.20472
11
5.27347
21
-4.20454
0
LINE
8
BLACK
6
CONTINUOUS
10
5.27347
20
-4.20454
11
5.27163
21
-4.20398
0
LINE
8
BLACK
6
CONTINUOUS
10
5.27163
20
-4.20398
11
5.26993
21
-4.20307
0
LINE
8
BLACK
6
CONTINUOUS
10
5.26993
20
-4.20307
11
5.26843
21
-4.20184
0
LINE
8
BLACK
6
CONTINUOUS
10
5.26843
20
-4.20184
11
5.26721
21
-4.20035
0
LINE
8
BLACK
6
CONTINUOUS
10
5.26721
20
-4.20035
11
5.2663
21
-4.19865
0
LINE
8
BLACK
6
CONTINUOUS
10
5.2663
20
-4.19865
11
5.26574
21
-4.1968
0
LINE
8
BLACK
6
CONTINUOUS
10
5.26574
20
-4.1968
11
5.26555
21
-4.19488
0
LINE
8
BLACK
6
CONTINUOUS
10
5.26555
20
-4.19488
11
5.26555
21
-4.16535
0
LINE
8
BLACK
6
CONTINUOUS
10
5.26555
20
-4.16535
11
5.26574
21
-4.16343
0
LINE
8
BLACK
6
CONTINUOUS
10
5.26574
20
-4.16343
11
5.2663
21
-4.16159
0
LINE
8
BLACK
6
CONTINUOUS
10
5.2663
20
-4.16159
11
5.26721
21
-4.15989
0
LINE
8
BLACK
6
CONTINUOUS
10
5.26721
20
-4.15989
11
5.26843
21
-4.15839
0
LINE
8
BLACK
6
CONTINUOUS
10
5.26843
20
-4.15839
11
5.26993
21
-4.15717
0
LINE
8
BLACK
6
CONTINUOUS
10
5.26993
20
-4.15717
11
5.27163
21
-4.15626
0
LINE
8
BLACK
6
CONTINUOUS
10
5.27163
20
-4.15626
11
5.27347
21
-4.1557
0
LINE
8
BLACK
6
CONTINUOUS
10
5.27347
20
-4.1557
11
5.27539
21
-4.15551
0
LINE
8
BLACK
6
CONTINUOUS
10
5.27539
20
-4.15551
11
5.32461
21
-4.15551
0
LINE
8
BLACK
6
CONTINUOUS
10
5.32461
20
-4.15551
11
5.32653
21
-4.1557
0
LINE
8
BLACK
6
CONTINUOUS
10
5.07756
20
-4.1752
11
5.03583
21
-4.1752
0
LINE
8
BLACK
6
CONTINUOUS
10
5.03583
20
-4.1752
11
5.03583
21
-4.14961
0
LINE
8
BLACK
6
CONTINUOUS
10
5.03583
20
-4.14961
11
5.07756
21
-4.14961
0
LINE
8
BLACK
6
CONTINUOUS
10
5.07756
20
-4.14961
11
5.07756
21
-4.1752
0
LINE
8
BLACK
6
CONTINUOUS
10
5.16417
20
-4.1752
11
5.12244
21
-4.1752
0
LINE
8
BLACK
6
CONTINUOUS
10
5.12244
20
-4.1752
11
5.12244
21
-4.14961
0
LINE
8
BLACK
6
CONTINUOUS
10
5.12244
20
-4.14961
11
5.16417
21
-4.14961
0
LINE
8
BLACK
6
CONTINUOUS
10
5.16417
20
-4.14961
11
5.16417
21
-4.1752
0
LINE
8
BLACK
6
CONTINUOUS
10
5.07756
20
-4.1378
11
5.03583
21
-4.1378
0
LINE
8
BLACK
6
CONTINUOUS
10
5.03583
20
-4.1378
11
5.03583
21
-4.1122
0
LINE
8
BLACK
6
CONTINUOUS
10
5.03583
20
-4.1122
11
5.07756
21
-4.1122
0
LINE
8
BLACK
6
CONTINUOUS
10
5.07756
20
-4.1122
11
5.07756
21
-4.1378
0
LINE
8
BLACK
6
CONTINUOUS
10
5.07756
20
-4.10039
11
5.03583
21
-4.10039
0
LINE
8
BLACK
6
CONTINUOUS
10
5.03583
20
-4.10039
11
5.03583
21
-4.0748
0
LINE
8
BLACK
6
CONTINUOUS
10
5.03583
20
-4.0748
11
5.07756
21
-4.0748
0
LINE
8
BLACK
6
CONTINUOUS
10
5.07756
20
-4.0748
11
5.07756
21
-4.10039
0
LINE
8
BLACK
6
CONTINUOUS
10
5.16417
20
-4.10039
11
5.12244
21
-4.10039
0
LINE
8
BLACK
6
CONTINUOUS
10
5.12244
20
-4.10039
11
5.12244
21
-4.0748
0
LINE
8
BLACK
6
CONTINUOUS
10
5.12244
20
-4.0748
11
5.16417
21
-4.0748
0
LINE
8
BLACK
6
CONTINUOUS
10
5.16417
20
-4.0748
11
5.16417
21
-4.10039
0
LINE
8
BLACK
6
CONTINUOUS
10
5.32653
20
-4.04546
11
5.32837
21
-4.04602
0
LINE
8
BLACK
6
CONTINUOUS
10
5.32837
20
-4.04602
11
5.33007
21
-4.04693
0
LINE
8
BLACK
6
CONTINUOUS
10
5.33007
20
-4.04693
11
5.33157
21
-4.04816
0
LINE
8
BLACK
6
CONTINUOUS
10
5.33157
20
-4.04816
11
5.33279
21
-4.04965
0
LINE
8
BLACK
6
CONTINUOUS
10
5.33279
20
-4.04965
11
5.3337
21
-4.05135
0
LINE
8
BLACK
6
CONTINUOUS
10
5.3337
20
-4.05135
11
5.33426
21
-4.0532
0
LINE
8
BLACK
6
CONTINUOUS
10
5.33426
20
-4.0532
11
5.33445
21
-4.05512
0
LINE
8
BLACK
6
CONTINUOUS
10
5.33445
20
-4.05512
11
5.33445
21
-4.08465
0
LINE
8
BLACK
6
CONTINUOUS
10
5.33445
20
-4.08465
11
5.33426
21
-4.08657
0
LINE
8
BLACK
6
CONTINUOUS
10
5.33426
20
-4.08657
11
5.3337
21
-4.08841
0
LINE
8
BLACK
6
CONTINUOUS
10
5.3337
20
-4.08841
11
5.33279
21
-4.09011
0
LINE
8
BLACK
6
CONTINUOUS
10
5.33279
20
-4.09011
11
5.33157
21
-4.09161
0
LINE
8
BLACK
6
CONTINUOUS
10
5.33157
20
-4.09161
11
5.33007
21
-4.09283
0
LINE
8
BLACK
6
CONTINUOUS
10
5.33007
20
-4.09283
11
5.32837
21
-4.09374
0
LINE
8
BLACK
6
CONTINUOUS
10
5.32837
20
-4.09374
11
5.32653
21
-4.0943
0
LINE
8
BLACK
6
CONTINUOUS
10
5.32653
20
-4.0943
11
5.32461
21
-4.09449
0
LINE
8
BLACK
6
CONTINUOUS
10
5.32461
20
-4.09449
11
5.27539
21
-4.09449
0
LINE
8
BLACK
6
CONTINUOUS
10
5.27539
20
-4.09449
11
5.27347
21
-4.0943
0
LINE
8
BLACK
6
CONTINUOUS
10
5.27347
20
-4.0943
11
5.27163
21
-4.09374
0
LINE
8
BLACK
6
CONTINUOUS
10
5.27163
20
-4.09374
11
5.26993
21
-4.09283
0
LINE
8
BLACK
6
CONTINUOUS
10
5.26993
20
-4.09283
11
5.26843
21
-4.09161
0
LINE
8
BLACK
6
CONTINUOUS
10
5.26843
20
-4.09161
11
5.26721
21
-4.09011
0
LINE
8
BLACK
6
CONTINUOUS
10
5.26721
20
-4.09011
11
5.2663
21
-4.08841
0
LINE
8
BLACK
6
CONTINUOUS
10
5.2663
20
-4.08841
11
5.26574
21
-4.08657
0
LINE
8
BLACK
6
CONTINUOUS
10
5.26574
20
-4.08657
11
5.26555
21
-4.08465
0
LINE
8
BLACK
6
CONTINUOUS
10
5.26555
20
-4.08465
11
5.26555
21
-4.05512
0
LINE
8
BLACK
6
CONTINUOUS
10
5.26555
20
-4.05512
11
5.26574
21
-4.0532
0
LINE
8
BLACK
6
CONTINUOUS
10
5.26574
20
-4.0532
11
5.2663
21
-4.05135
0
LINE
8
BLACK
6
CONTINUOUS
10
5.2663
20
-4.05135
11
5.26721
21
-4.04965
0
LINE
8
BLACK
6
CONTINUOUS
10
5.26721
20
-4.04965
11
5.26843
21
-4.04816
0
LINE
8
BLACK
6
CONTINUOUS
10
5.26843
20
-4.04816
11
5.26993
21
-4.04693
0
LINE
8
BLACK
6
CONTINUOUS
10
5.26993
20
-4.04693
11
5.27163
21
-4.04602
0
LINE
8
BLACK
6
CONTINUOUS
10
5.27163
20
-4.04602
11
5.27347
21
-4.04546
0
LINE
8
BLACK
6
CONTINUOUS
10
5.27347
20
-4.04546
11
5.27539
21
-4.04528
0
LINE
8
BLACK
6
CONTINUOUS
10
5.27539
20
-4.04528
11
5.32461
21
-4.04528
0
LINE
8
BLACK
6
CONTINUOUS
10
5.32461
20
-4.04528
11
5.32653
21
-4.04546
0
LINE
8
BLACK
6
CONTINUOUS
10
4.90251
20
-4.04448
11
4.90436
21
-4.04504
0
LINE
8
BLACK
6
CONTINUOUS
10
4.90436
20
-4.04504
11
4.90606
21
-4.04595
0
LINE
8
BLACK
6
CONTINUOUS
10
4.90606
20
-4.04595
11
4.90755
21
-4.04717
0
LINE
8
BLACK
6
CONTINUOUS
10
4.90755
20
-4.04717
11
4.90877
21
-4.04867
0
LINE
8
BLACK
6
CONTINUOUS
10
4.90877
20
-4.04867
11
4.90968
21
-4.05037
0
LINE
8
BLACK
6
CONTINUOUS
10
4.90968
20
-4.05037
11
4.91024
21
-4.05221
0
LINE
8
BLACK
6
CONTINUOUS
10
4.91024
20
-4.05221
11
4.91043
21
-4.05413
0
LINE
8
BLACK
6
CONTINUOUS
10
4.91043
20
-4.05413
11
4.91043
21
-4.07972
0
LINE
8
BLACK
6
CONTINUOUS
10
4.91043
20
-4.07972
11
4.91024
21
-4.08164
0
LINE
8
BLACK
6
CONTINUOUS
10
4.91024
20
-4.08164
11
4.90968
21
-4.08349
0
LINE
8
BLACK
6
CONTINUOUS
10
4.90968
20
-4.08349
11
4.90877
21
-4.08519
0
LINE
8
BLACK
6
CONTINUOUS
10
4.90877
20
-4.08519
11
4.90755
21
-4.08668
0
LINE
8
BLACK
6
CONTINUOUS
10
4.90755
20
-4.08668
11
4.90606
21
-4.08791
0
LINE
8
BLACK
6
CONTINUOUS
10
4.90606
20
-4.08791
11
4.90436
21
-4.08882
0
LINE
8
BLACK
6
CONTINUOUS
10
4.90436
20
-4.08882
11
4.90251
21
-4.08938
0
LINE
8
BLACK
6
CONTINUOUS
10
4.90251
20
-4.08938
11
4.90059
21
-4.08957
0
LINE
8
BLACK
6
CONTINUOUS
10
4.90059
20
-4.08957
11
4.84941
21
-4.08957
0
LINE
8
BLACK
6
CONTINUOUS
10
4.84941
20
-4.08957
11
4.84749
21
-4.08938
0
LINE
8
BLACK
6
CONTINUOUS
10
4.84749
20
-4.08938
11
4.84564
21
-4.08882
0
LINE
8
BLACK
6
CONTINUOUS
10
4.84564
20
-4.08882
11
4.84394
21
-4.08791
0
LINE
8
BLACK
6
CONTINUOUS
10
4.84394
20
-4.08791
11
4.84245
21
-4.08668
0
LINE
8
BLACK
6
CONTINUOUS
10
4.84245
20
-4.08668
11
4.84123
21
-4.08519
0
LINE
8
BLACK
6
CONTINUOUS
10
4.84123
20
-4.08519
11
4.84032
21
-4.08349
0
LINE
8
BLACK
6
CONTINUOUS
10
4.84032
20
-4.08349
11
4.83976
21
-4.08164
0
LINE
8
BLACK
6
CONTINUOUS
10
4.83976
20
-4.08164
11
4.83957
21
-4.07972
0
LINE
8
BLACK
6
CONTINUOUS
10
4.83957
20
-4.07972
11
4.83957
21
-4.05413
0
LINE
8
BLACK
6
CONTINUOUS
10
4.83957
20
-4.05413
11
4.83976
21
-4.05221
0
LINE
8
BLACK
6
CONTINUOUS
10
4.83976
20
-4.05221
11
4.84032
21
-4.05037
0
LINE
8
BLACK
6
CONTINUOUS
10
4.84032
20
-4.05037
11
4.84123
21
-4.04867
0
LINE
8
BLACK
6
CONTINUOUS
10
4.84123
20
-4.04867
11
4.84245
21
-4.04717
0
LINE
8
BLACK
6
CONTINUOUS
10
4.84245
20
-4.04717
11
4.84394
21
-4.04595
0
LINE
8
BLACK
6
CONTINUOUS
10
4.84394
20
-4.04595
11
4.84564
21
-4.04504
0
LINE
8
BLACK
6
CONTINUOUS
10
4.84564
20
-4.04504
11
4.84749
21
-4.04448
0
LINE
8
BLACK
6
CONTINUOUS
10
4.84749
20
-4.04448
11
4.84941
21
-4.04429
0
LINE
8
BLACK
6
CONTINUOUS
10
4.84941
20
-4.04429
11
4.90059
21
-4.04429
0
LINE
8
BLACK
6
CONTINUOUS
10
4.90059
20
-4.04429
11
4.90251
21
-4.04448
0
LINE
8
BLACK
6
CONTINUOUS
10
4.86514
20
-3.8351
11
4.8657
21
-3.83526
0
LINE
8
BLACK
6
CONTINUOUS
10
4.8657
20
-3.83526
11
4.86621
21
-3.83554
0
LINE
8
BLACK
6
CONTINUOUS
10
4.86621
20
-3.83554
11
4.86665
21
-3.8359
0
LINE
8
BLACK
6
CONTINUOUS
10
4.86665
20
-3.8359
11
4.86702
21
-3.83635
0
LINE
8
BLACK
6
CONTINUOUS
10
4.86702
20
-3.83635
11
4.86729
21
-3.83686
0
LINE
8
BLACK
6
CONTINUOUS
10
4.86729
20
-3.83686
11
4.86746
21
-3.83742
0
LINE
8
BLACK
6
CONTINUOUS
10
4.86746
20
-3.83742
11
4.86752
21
-3.83799
0
LINE
8
BLACK
6
CONTINUOUS
10
4.86752
20
-3.83799
11
4.86752
21
-3.86555
0
LINE
8
BLACK
6
CONTINUOUS
10
4.86752
20
-3.86555
11
4.86746
21
-3.86613
0
LINE
8
BLACK
6
CONTINUOUS
10
4.86746
20
-3.86613
11
4.86729
21
-3.86668
0
LINE
8
BLACK
6
CONTINUOUS
10
4.86729
20
-3.86668
11
4.86702
21
-3.86719
0
LINE
8
BLACK
6
CONTINUOUS
10
4.86702
20
-3.86719
11
4.86665
21
-3.86764
0
LINE
8
BLACK
6
CONTINUOUS
10
4.86665
20
-3.86764
11
4.86621
21
-3.86801
0
LINE
8
BLACK
6
CONTINUOUS
10
4.86621
20
-3.86801
11
4.8657
21
-3.86828
0
LINE
8
BLACK
6
CONTINUOUS
10
4.8657
20
-3.86828
11
4.86514
21
-3.86845
0
LINE
8
BLACK
6
CONTINUOUS
10
4.86514
20
-3.86845
11
4.86457
21
-3.8685
0
LINE
8
BLACK
6
CONTINUOUS
10
4.86457
20
-3.8685
11
4.85866
21
-3.8685
0
LINE
8
BLACK
6
CONTINUOUS
10
4.85866
20
-3.8685
11
4.85809
21
-3.86845
0
LINE
8
BLACK
6
CONTINUOUS
10
4.85809
20
-3.86845
11
4.85753
21
-3.86828
0
LINE
8
BLACK
6
CONTINUOUS
10
4.85753
20
-3.86828
11
4.85702
21
-3.86801
0
LINE
8
BLACK
6
CONTINUOUS
10
4.85702
20
-3.86801
11
4.85657
21
-3.86764
0
LINE
8
BLACK
6
CONTINUOUS
10
4.85657
20
-3.86764
11
4.85621
21
-3.86719
0
LINE
8
BLACK
6
CONTINUOUS
10
4.85621
20
-3.86719
11
4.85593
21
-3.86668
0
LINE
8
BLACK
6
CONTINUOUS
10
4.85593
20
-3.86668
11
4.85577
21
-3.86613
0
LINE
8
BLACK
6
CONTINUOUS
10
4.85577
20
-3.86613
11
4.85571
21
-3.86555
0
LINE
8
BLACK
6
CONTINUOUS
10
4.85571
20
-3.86555
11
4.85571
21
-3.83799
0
LINE
8
BLACK
6
CONTINUOUS
10
4.85571
20
-3.83799
11
4.85577
21
-3.83742
0
LINE
8
BLACK
6
CONTINUOUS
10
4.85577
20
-3.83742
11
4.85593
21
-3.83686
0
LINE
8
BLACK
6
CONTINUOUS
10
4.85593
20
-3.83686
11
4.85621
21
-3.83635
0
LINE
8
BLACK
6
CONTINUOUS
10
4.85621
20
-3.83635
11
4.85657
21
-3.8359
0
LINE
8
BLACK
6
CONTINUOUS
10
4.85657
20
-3.8359
11
4.85702
21
-3.83554
0
LINE
8
BLACK
6
CONTINUOUS
10
4.85702
20
-3.83554
11
4.85753
21
-3.83526
0
LINE
8
BLACK
6
CONTINUOUS
10
4.85753
20
-3.83526
11
4.85809
21
-3.8351
0
LINE
8
BLACK
6
CONTINUOUS
10
4.85809
20
-3.8351
11
4.85866
21
-3.83504
0
LINE
8
BLACK
6
CONTINUOUS
10
4.85866
20
-3.83504
11
4.86457
21
-3.83504
0
LINE
8
BLACK
6
CONTINUOUS
10
4.86457
20
-3.83504
11
4.86514
21
-3.8351
0
LINE
8
BLACK
6
CONTINUOUS
10
4.89073
20
-3.8351
11
4.89129
21
-3.83526
0
LINE
8
BLACK
6
CONTINUOUS
10
4.89129
20
-3.83526
11
4.8918
21
-3.83554
0
LINE
8
BLACK
6
CONTINUOUS
10
4.8918
20
-3.83554
11
4.89225
21
-3.8359
0
LINE
8
BLACK
6
CONTINUOUS
10
4.89225
20
-3.8359
11
4.89261
21
-3.83635
0
LINE
8
BLACK
6
CONTINUOUS
10
4.89261
20
-3.83635
11
4.89289
21
-3.83686
0
LINE
8
BLACK
6
CONTINUOUS
10
4.89289
20
-3.83686
11
4.89305
21
-3.83742
0
LINE
8
BLACK
6
CONTINUOUS
10
4.89305
20
-3.83742
11
4.89311
21
-3.83799
0
LINE
8
BLACK
6
CONTINUOUS
10
4.89311
20
-3.83799
11
4.89311
21
-3.86555
0
LINE
8
BLACK
6
CONTINUOUS
10
4.89311
20
-3.86555
11
4.89305
21
-3.86613
0
LINE
8
BLACK
6
CONTINUOUS
10
4.89305
20
-3.86613
11
4.89289
21
-3.86668
0
LINE
8
BLACK
6
CONTINUOUS
10
4.89289
20
-3.86668
11
4.89261
21
-3.86719
0
LINE
8
BLACK
6
CONTINUOUS
10
4.89261
20
-3.86719
11
4.89225
21
-3.86764
0
LINE
8
BLACK
6
CONTINUOUS
10
4.89225
20
-3.86764
11
4.8918
21
-3.86801
0
LINE
8
BLACK
6
CONTINUOUS
10
4.8918
20
-3.86801
11
4.89129
21
-3.86828
0
LINE
8
BLACK
6
CONTINUOUS
10
4.89129
20
-3.86828
11
4.89073
21
-3.86845
0
LINE
8
BLACK
6
CONTINUOUS
10
4.89073
20
-3.86845
11
4.89016
21
-3.8685
0
LINE
8
BLACK
6
CONTINUOUS
10
4.89016
20
-3.8685
11
4.88425
21
-3.8685
0
LINE
8
BLACK
6
CONTINUOUS
10
4.88425
20
-3.8685
11
4.88368
21
-3.86845
0
LINE
8
BLACK
6
CONTINUOUS
10
4.88368
20
-3.86845
11
4.88312
21
-3.86828
0
LINE
8
BLACK
6
CONTINUOUS
10
4.88312
20
-3.86828
11
4.88261
21
-3.86801
0
LINE
8
BLACK
6
CONTINUOUS
10
4.88261
20
-3.86801
11
4.88216
21
-3.86764
0
LINE
8
BLACK
6
CONTINUOUS
10
4.88216
20
-3.86764
11
4.8818
21
-3.86719
0
LINE
8
BLACK
6
CONTINUOUS
10
4.8818
20
-3.86719
11
4.88152
21
-3.86668
0
LINE
8
BLACK
6
CONTINUOUS
10
4.88152
20
-3.86668
11
4.88136
21
-3.86613
0
LINE
8
BLACK
6
CONTINUOUS
10
4.88136
20
-3.86613
11
4.8813
21
-3.86555
0
LINE
8
BLACK
6
CONTINUOUS
10
4.8813
20
-3.86555
11
4.8813
21
-3.83799
0
LINE
8
BLACK
6
CONTINUOUS
10
4.8813
20
-3.83799
11
4.88136
21
-3.83742
0
LINE
8
BLACK
6
CONTINUOUS
10
4.88136
20
-3.83742
11
4.88152
21
-3.83686
0
LINE
8
BLACK
6
CONTINUOUS
10
4.88152
20
-3.83686
11
4.8818
21
-3.83635
0
LINE
8
BLACK
6
CONTINUOUS
10
4.8818
20
-3.83635
11
4.88216
21
-3.8359
0
LINE
8
BLACK
6
CONTINUOUS
10
4.88216
20
-3.8359
11
4.88261
21
-3.83554
0
LINE
8
BLACK
6
CONTINUOUS
10
4.88261
20
-3.83554
11
4.88312
21
-3.83526
0
LINE
8
BLACK
6
CONTINUOUS
10
4.88312
20
-3.83526
11
4.88368
21
-3.8351
0
LINE
8
BLACK
6
CONTINUOUS
10
4.88368
20
-3.8351
11
4.88425
21
-3.83504
0
LINE
8
BLACK
6
CONTINUOUS
10
4.88425
20
-3.83504
11
4.89016
21
-3.83504
0
LINE
8
BLACK
6
CONTINUOUS
10
4.89016
20
-3.83504
11
4.89073
21
-3.8351
0
LINE
8
BLACK
6
CONTINUOUS
10
4.94191
20
-3.8351
11
4.94247
21
-3.83526
0
LINE
8
BLACK
6
CONTINUOUS
10
4.94247
20
-3.83526
11
4.94298
21
-3.83554
0
LINE
8
BLACK
6
CONTINUOUS
10
4.94298
20
-3.83554
11
4.94343
21
-3.8359
0
LINE
8
BLACK
6
CONTINUOUS
10
4.94343
20
-3.8359
11
4.94379
21
-3.83635
0
LINE
8
BLACK
6
CONTINUOUS
10
4.94379
20
-3.83635
11
4.94407
21
-3.83686
0
LINE
8
BLACK
6
CONTINUOUS
10
4.94407
20
-3.83686
11
4.94423
21
-3.83742
0
LINE
8
BLACK
6
CONTINUOUS
10
4.94423
20
-3.83742
11
4.94429
21
-3.83799
0
LINE
8
BLACK
6
CONTINUOUS
10
4.94429
20
-3.83799
11
4.94429
21
-3.86555
0
LINE
8
BLACK
6
CONTINUOUS
10
4.94429
20
-3.86555
11
4.94423
21
-3.86613
0
LINE
8
BLACK
6
CONTINUOUS
10
4.94423
20
-3.86613
11
4.94407
21
-3.86668
0
LINE
8
BLACK
6
CONTINUOUS
10
4.94407
20
-3.86668
11
4.94379
21
-3.86719
0
LINE
8
BLACK
6
CONTINUOUS
10
4.94379
20
-3.86719
11
4.94343
21
-3.86764
0
LINE
8
BLACK
6
CONTINUOUS
10
4.94343
20
-3.86764
11
4.94298
21
-3.86801
0
LINE
8
BLACK
6
CONTINUOUS
10
4.94298
20
-3.86801
11
4.94247
21
-3.86828
0
LINE
8
BLACK
6
CONTINUOUS
10
4.94247
20
-3.86828
11
4.94191
21
-3.86845
0
LINE
8
BLACK
6
CONTINUOUS
10
4.94191
20
-3.86845
11
4.94134
21
-3.8685
0
LINE
8
BLACK
6
CONTINUOUS
10
4.94134
20
-3.8685
11
4.93543
21
-3.8685
0
LINE
8
BLACK
6
CONTINUOUS
10
4.93543
20
-3.8685
11
4.93486
21
-3.86845
0
LINE
8
BLACK
6
CONTINUOUS
10
4.93486
20
-3.86845
11
4.9343
21
-3.86828
0
LINE
8
BLACK
6
CONTINUOUS
10
4.9343
20
-3.86828
11
4.93379
21
-3.86801
0
LINE
8
BLACK
6
CONTINUOUS
10
4.93379
20
-3.86801
11
4.93335
21
-3.86764
0
LINE
8
BLACK
6
CONTINUOUS
10
4.93335
20
-3.86764
11
4.93298
21
-3.86719
0
LINE
8
BLACK
6
CONTINUOUS
10
4.93298
20
-3.86719
11
4.93271
21
-3.86668
0
LINE
8
BLACK
6
CONTINUOUS
10
4.93271
20
-3.86668
11
4.93254
21
-3.86613
0
LINE
8
BLACK
6
CONTINUOUS
10
4.93254
20
-3.86613
11
4.93248
21
-3.86555
0
LINE
8
BLACK
6
CONTINUOUS
10
4.93248
20
-3.86555
11
4.93248
21
-3.83799
0
LINE
8
BLACK
6
CONTINUOUS
10
4.93248
20
-3.83799
11
4.93254
21
-3.83742
0
LINE
8
BLACK
6
CONTINUOUS
10
4.93254
20
-3.83742
11
4.93271
21
-3.83686
0
LINE
8
BLACK
6
CONTINUOUS
10
4.93271
20
-3.83686
11
4.93298
21
-3.83635
0
LINE
8
BLACK
6
CONTINUOUS
10
4.93298
20
-3.83635
11
4.93335
21
-3.8359
0
LINE
8
BLACK
6
CONTINUOUS
10
4.93335
20
-3.8359
11
4.93379
21
-3.83554
0
LINE
8
BLACK
6
CONTINUOUS
10
4.93379
20
-3.83554
11
4.9343
21
-3.83526
0
LINE
8
BLACK
6
CONTINUOUS
10
4.9343
20
-3.83526
11
4.93486
21
-3.8351
0
LINE
8
BLACK
6
CONTINUOUS
10
4.93486
20
-3.8351
11
4.93543
21
-3.83504
0
LINE
8
BLACK
6
CONTINUOUS
10
4.93543
20
-3.83504
11
4.94134
21
-3.83504
0
LINE
8
BLACK
6
CONTINUOUS
10
4.94134
20
-3.83504
11
4.94191
21
-3.8351
0
LINE
8
BLACK
6
CONTINUOUS
10
4.91632
20
-3.8351
11
4.91688
21
-3.83526
0
LINE
8
BLACK
6
CONTINUOUS
10
4.91688
20
-3.83526
11
4.91739
21
-3.83554
0
LINE
8
BLACK
6
CONTINUOUS
10
4.91739
20
-3.83554
11
4.91784
21
-3.8359
0
LINE
8
BLACK
6
CONTINUOUS
10
4.91784
20
-3.8359
11
4.9182
21
-3.83635
0
LINE
8
BLACK
6
CONTINUOUS
10
4.9182
20
-3.83635
11
4.91848
21
-3.83686
0
LINE
8
BLACK
6
CONTINUOUS
10
4.91848
20
-3.83686
11
4.91864
21
-3.83742
0
LINE
8
BLACK
6
CONTINUOUS
10
4.91864
20
-3.83742
11
4.9187
21
-3.83799
0
LINE
8
BLACK
6
CONTINUOUS
10
4.9187
20
-3.83799
11
4.9187
21
-3.86555
0
LINE
8
BLACK
6
CONTINUOUS
10
4.9187
20
-3.86555
11
4.91864
21
-3.86613
0
LINE
8
BLACK
6
CONTINUOUS
10
4.91864
20
-3.86613
11
4.91848
21
-3.86668
0
LINE
8
BLACK
6
CONTINUOUS
10
4.91848
20
-3.86668
11
4.9182
21
-3.86719
0
LINE
8
BLACK
6
CONTINUOUS
10
4.9182
20
-3.86719
11
4.91784
21
-3.86764
0
LINE
8
BLACK
6
CONTINUOUS
10
4.91784
20
-3.86764
11
4.91739
21
-3.86801
0
LINE
8
BLACK
6
CONTINUOUS
10
4.91739
20
-3.86801
11
4.91688
21
-3.86828
0
LINE
8
BLACK
6
CONTINUOUS
10
4.91688
20
-3.86828
11
4.91632
21
-3.86845
0
LINE
8
BLACK
6
CONTINUOUS
10
4.91632
20
-3.86845
11
4.91575
21
-3.8685
0
LINE
8
BLACK
6
CONTINUOUS
10
4.91575
20
-3.8685
11
4.90984
21
-3.8685
0
LINE
8
BLACK
6
CONTINUOUS
10
4.90984
20
-3.8685
11
4.90927
21
-3.86845
0
LINE
8
BLACK
6
CONTINUOUS
10
4.90927
20
-3.86845
11
4.90871
21
-3.86828
0
LINE
8
BLACK
6
CONTINUOUS
10
4.90871
20
-3.86828
11
4.9082
21
-3.86801
0
LINE
8
BLACK
6
CONTINUOUS
10
4.9082
20
-3.86801
11
4.90775
21
-3.86764
0
LINE
8
BLACK
6
CONTINUOUS
10
4.90775
20
-3.86764
11
4.90739
21
-3.86719
0
LINE
8
BLACK
6
CONTINUOUS
10
4.90739
20
-3.86719
11
4.90711
21
-3.86668
0
LINE
8
BLACK
6
CONTINUOUS
10
4.90711
20
-3.86668
11
4.90695
21
-3.86613
0
LINE
8
BLACK
6
CONTINUOUS
10
4.90695
20
-3.86613
11
4.90689
21
-3.86555
0
LINE
8
BLACK
6
CONTINUOUS
10
4.90689
20
-3.86555
11
4.90689
21
-3.83799
0
LINE
8
BLACK
6
CONTINUOUS
10
4.90689
20
-3.83799
11
4.90695
21
-3.83742
0
LINE
8
BLACK
6
CONTINUOUS
10
4.90695
20
-3.83742
11
4.90711
21
-3.83686
0
LINE
8
BLACK
6
CONTINUOUS
10
4.90711
20
-3.83686
11
4.90739
21
-3.83635
0
LINE
8
BLACK
6
CONTINUOUS
10
4.90739
20
-3.83635
11
4.90775
21
-3.8359
0
LINE
8
BLACK
6
CONTINUOUS
10
4.90775
20
-3.8359
11
4.9082
21
-3.83554
0
LINE
8
BLACK
6
CONTINUOUS
10
4.9082
20
-3.83554
11
4.90871
21
-3.83526
0
LINE
8
BLACK
6
CONTINUOUS
10
4.90871
20
-3.83526
11
4.90927
21
-3.8351
0
LINE
8
BLACK
6
CONTINUOUS
10
4.90927
20
-3.8351
11
4.90984
21
-3.83504
0
LINE
8
BLACK
6
CONTINUOUS
10
4.90984
20
-3.83504
11
4.91575
21
-3.83504
0
LINE
8
BLACK
6
CONTINUOUS
10
4.91575
20
-3.83504
11
4.91632
21
-3.8351
0
LINE
8
BLACK
6
CONTINUOUS
10
5.12456
20
-3.79763
11
5.12636
21
-3.79817
0
LINE
8
BLACK
6
CONTINUOUS
10
5.12636
20
-3.79817
11
5.12802
21
-3.79906
0
LINE
8
BLACK
6
CONTINUOUS
10
5.12802
20
-3.79906
11
5.12947
21
-3.80025
0
LINE
8
BLACK
6
CONTINUOUS
10
5.12947
20
-3.80025
11
5.13067
21
-3.80171
0
LINE
8
BLACK
6
CONTINUOUS
10
5.13067
20
-3.80171
11
5.13155
21
-3.80336
0
LINE
8
BLACK
6
CONTINUOUS
10
5.13155
20
-3.80336
11
5.1321
21
-3.80517
0
LINE
8
BLACK
6
CONTINUOUS
10
5.1321
20
-3.80517
11
5.13228
21
-3.80704
0
LINE
8
BLACK
6
CONTINUOUS
10
5.13228
20
-3.80704
11
5.13228
21
-3.84296
0
LINE
8
BLACK
6
CONTINUOUS
10
5.13228
20
-3.84296
11
5.1321
21
-3.84483
0
LINE
8
BLACK
6
CONTINUOUS
10
5.1321
20
-3.84483
11
5.13155
21
-3.84664
0
LINE
8
BLACK
6
CONTINUOUS
10
5.13155
20
-3.84664
11
5.13067
21
-3.84829
0
LINE
8
BLACK
6
CONTINUOUS
10
5.13067
20
-3.84829
11
5.12947
21
-3.84975
0
LINE
8
BLACK
6
CONTINUOUS
10
5.12947
20
-3.84975
11
5.12802
21
-3.85094
0
LINE
8
BLACK
6
CONTINUOUS
10
5.12802
20
-3.85094
11
5.12636
21
-3.85183
0
LINE
8
BLACK
6
CONTINUOUS
10
5.12636
20
-3.85183
11
5.12456
21
-3.85237
0
LINE
8
BLACK
6
CONTINUOUS
10
5.12456
20
-3.85237
11
5.12269
21
-3.85256
0
LINE
8
BLACK
6
CONTINUOUS
10
5.12269
20
-3.85256
11
5.10349
21
-3.85256
0
LINE
8
BLACK
6
CONTINUOUS
10
5.10349
20
-3.85256
11
5.10162
21
-3.85237
0
LINE
8
BLACK
6
CONTINUOUS
10
5.10162
20
-3.85237
11
5.09982
21
-3.85183
0
LINE
8
BLACK
6
CONTINUOUS
10
5.09982
20
-3.85183
11
5.09816
21
-3.85094
0
LINE
8
BLACK
6
CONTINUOUS
10
5.09816
20
-3.85094
11
5.09671
21
-3.84975
0
LINE
8
BLACK
6
CONTINUOUS
10
5.09671
20
-3.84975
11
5.09551
21
-3.84829
0
LINE
8
BLACK
6
CONTINUOUS
10
5.09551
20
-3.84829
11
5.09463
21
-3.84664
0
LINE
8
BLACK
6
CONTINUOUS
10
5.09463
20
-3.84664
11
5.09408
21
-3.84483
0
LINE
8
BLACK
6
CONTINUOUS
10
5.09408
20
-3.84483
11
5.0939
21
-3.84296
0
LINE
8
BLACK
6
CONTINUOUS
10
5.0939
20
-3.84296
11
5.0939
21
-3.80704
0
LINE
8
BLACK
6
CONTINUOUS
10
5.0939
20
-3.80704
11
5.09408
21
-3.80517
0
LINE
8
BLACK
6
CONTINUOUS
10
5.09408
20
-3.80517
11
5.09463
21
-3.80336
0
LINE
8
BLACK
6
CONTINUOUS
10
5.09463
20
-3.80336
11
5.09551
21
-3.80171
0
LINE
8
BLACK
6
CONTINUOUS
10
5.09551
20
-3.80171
11
5.09671
21
-3.80025
0
LINE
8
BLACK
6
CONTINUOUS
10
5.09671
20
-3.80025
11
5.09816
21
-3.79906
0
LINE
8
BLACK
6
CONTINUOUS
10
5.09816
20
-3.79906
11
5.09982
21
-3.79817
0
LINE
8
BLACK
6
CONTINUOUS
10
5.09982
20
-3.79817
11
5.10162
21
-3.79763
0
LINE
8
BLACK
6
CONTINUOUS
10
5.10162
20
-3.79763
11
5.10349
21
-3.79744
0
LINE
8
BLACK
6
CONTINUOUS
10
5.10349
20
-3.79744
11
5.12269
21
-3.79744
0
LINE
8
BLACK
6
CONTINUOUS
10
5.12269
20
-3.79744
11
5.12456
21
-3.79763
0
LINE
8
BLACK
6
CONTINUOUS
10
5.19838
20
-3.79763
11
5.20018
21
-3.79817
0
LINE
8
BLACK
6
CONTINUOUS
10
5.20018
20
-3.79817
11
5.20184
21
-3.79906
0
LINE
8
BLACK
6
CONTINUOUS
10
5.20184
20
-3.79906
11
5.20329
21
-3.80025
0
LINE
8
BLACK
6
CONTINUOUS
10
5.20329
20
-3.80025
11
5.20449
21
-3.80171
0
LINE
8
BLACK
6
CONTINUOUS
10
5.20449
20
-3.80171
11
5.20537
21
-3.80336
0
LINE
8
BLACK
6
CONTINUOUS
10
5.20537
20
-3.80336
11
5.20592
21
-3.80517
0
LINE
8
BLACK
6
CONTINUOUS
10
5.20592
20
-3.80517
11
5.2061
21
-3.80704
0
LINE
8
BLACK
6
CONTINUOUS
10
5.2061
20
-3.80704
11
5.2061
21
-3.84296
0
LINE
8
BLACK
6
CONTINUOUS
10
5.2061
20
-3.84296
11
5.20592
21
-3.84483
0
LINE
8
BLACK
6
CONTINUOUS
10
5.20592
20
-3.84483
11
5.20537
21
-3.84664
0
LINE
8
BLACK
6
CONTINUOUS
10
5.20537
20
-3.84664
11
5.20449
21
-3.84829
0
LINE
8
BLACK
6
CONTINUOUS
10
5.20449
20
-3.84829
11
5.20329
21
-3.84975
0
LINE
8
BLACK
6
CONTINUOUS
10
5.20329
20
-3.84975
11
5.20184
21
-3.85094
0
LINE
8
BLACK
6
CONTINUOUS
10
5.20184
20
-3.85094
11
5.20018
21
-3.85183
0
LINE
8
BLACK
6
CONTINUOUS
10
5.20018
20
-3.85183
11
5.19838
21
-3.85237
0
LINE
8
BLACK
6
CONTINUOUS
10
5.19838
20
-3.85237
11
5.19651
21
-3.85256
0
LINE
8
BLACK
6
CONTINUOUS
10
5.19651
20
-3.85256
11
5.17731
21
-3.85256
0
LINE
8
BLACK
6
CONTINUOUS
10
5.17731
20
-3.85256
11
5.17544
21
-3.85237
0
LINE
8
BLACK
6
CONTINUOUS
10
5.17544
20
-3.85237
11
5.17364
21
-3.85183
0
LINE
8
BLACK
6
CONTINUOUS
10
5.17364
20
-3.85183
11
5.17198
21
-3.85094
0
LINE
8
BLACK
6
CONTINUOUS
10
5.17198
20
-3.85094
11
5.17053
21
-3.84975
0
LINE
8
BLACK
6
CONTINUOUS
10
5.17053
20
-3.84975
11
5.16933
21
-3.84829
0
LINE
8
BLACK
6
CONTINUOUS
10
5.16933
20
-3.84829
11
5.16845
21
-3.84664
0
LINE
8
BLACK
6
CONTINUOUS
10
5.16845
20
-3.84664
11
5.1679
21
-3.84483
0
LINE
8
BLACK
6
CONTINUOUS
10
5.1679
20
-3.84483
11
5.16772
21
-3.84296
0
LINE
8
BLACK
6
CONTINUOUS
10
5.16772
20
-3.84296
11
5.16772
21
-3.80704
0
LINE
8
BLACK
6
CONTINUOUS
10
5.16772
20
-3.80704
11
5.1679
21
-3.80517
0
LINE
8
BLACK
6
CONTINUOUS
10
5.1679
20
-3.80517
11
5.16845
21
-3.80336
0
LINE
8
BLACK
6
CONTINUOUS
10
5.16845
20
-3.80336
11
5.16933
21
-3.80171
0
LINE
8
BLACK
6
CONTINUOUS
10
5.16933
20
-3.80171
11
5.17053
21
-3.80025
0
LINE
8
BLACK
6
CONTINUOUS
10
5.17053
20
-3.80025
11
5.17198
21
-3.79906
0
LINE
8
BLACK
6
CONTINUOUS
10
5.17198
20
-3.79906
11
5.17364
21
-3.79817
0
LINE
8
BLACK
6
CONTINUOUS
10
5.17364
20
-3.79817
11
5.17544
21
-3.79763
0
LINE
8
BLACK
6
CONTINUOUS
10
5.17544
20
-3.79763
11
5.17731
21
-3.79744
0
LINE
8
BLACK
6
CONTINUOUS
10
5.17731
20
-3.79744
11
5.19651
21
-3.79744
0
LINE
8
BLACK
6
CONTINUOUS
10
5.19651
20
-3.79744
11
5.19838
21
-3.79763
0
LINE
8
BLACK
6
CONTINUOUS
10
4.99113
20
-3.80754
11
4.99168
21
-3.80771
0
LINE
8
BLACK
6
CONTINUOUS
10
4.99168
20
-3.80771
11
4.99219
21
-3.80798
0
LINE
8
BLACK
6
CONTINUOUS
10
4.99219
20
-3.80798
11
4.99264
21
-3.80835
0
LINE
8
BLACK
6
CONTINUOUS
10
4.99264
20
-3.80835
11
4.99301
21
-3.80879
0
LINE
8
BLACK
6
CONTINUOUS
10
4.99301
20
-3.80879
11
4.99328
21
-3.8093
0
LINE
8
BLACK
6
CONTINUOUS
10
4.99328
20
-3.8093
11
4.99345
21
-3.80986
0
LINE
8
BLACK
6
CONTINUOUS
10
4.99345
20
-3.80986
11
4.9935
21
-3.81043
0
LINE
8
BLACK
6
CONTINUOUS
10
4.9935
20
-3.81043
11
4.9935
21
-3.81634
0
LINE
8
BLACK
6
CONTINUOUS
10
4.9935
20
-3.81634
11
4.99345
21
-3.81691
0
LINE
8
BLACK
6
CONTINUOUS
10
4.99345
20
-3.81691
11
4.99328
21
-3.81747
0
LINE
8
BLACK
6
CONTINUOUS
10
4.99328
20
-3.81747
11
4.99301
21
-3.81798
0
LINE
8
BLACK
6
CONTINUOUS
10
4.99301
20
-3.81798
11
4.99264
21
-3.81843
0
LINE
8
BLACK
6
CONTINUOUS
10
4.99264
20
-3.81843
11
4.99219
21
-3.81879
0
LINE
8
BLACK
6
CONTINUOUS
10
4.99219
20
-3.81879
11
4.99168
21
-3.81907
0
LINE
8
BLACK
6
CONTINUOUS
10
4.99168
20
-3.81907
11
4.99113
21
-3.81923
0
LINE
8
BLACK
6
CONTINUOUS
10
4.99113
20
-3.81923
11
4.99055
21
-3.81929
0
LINE
8
BLACK
6
CONTINUOUS
10
4.99055
20
-3.81929
11
4.96299
21
-3.81929
0
LINE
8
BLACK
6
CONTINUOUS
10
4.96299
20
-3.81929
11
4.96242
21
-3.81923
0
LINE
8
BLACK
6
CONTINUOUS
10
4.96242
20
-3.81923
11
4.96186
21
-3.81907
0
LINE
8
BLACK
6
CONTINUOUS
10
4.96186
20
-3.81907
11
4.96135
21
-3.81879
0
LINE
8
BLACK
6
CONTINUOUS
10
4.96135
20
-3.81879
11
4.9609
21
-3.81843
0
LINE
8
BLACK
6
CONTINUOUS
10
4.9609
20
-3.81843
11
4.96054
21
-3.81798
0
LINE
8
BLACK
6
CONTINUOUS
10
4.96054
20
-3.81798
11
4.96026
21
-3.81747
0
LINE
8
BLACK
6
CONTINUOUS
10
4.96026
20
-3.81747
11
4.9601
21
-3.81691
0
LINE
8
BLACK
6
CONTINUOUS
10
4.9601
20
-3.81691
11
4.96004
21
-3.81634
0
LINE
8
BLACK
6
CONTINUOUS
10
4.96004
20
-3.81634
11
4.96004
21
-3.81043
0
LINE
8
BLACK
6
CONTINUOUS
10
4.96004
20
-3.81043
11
4.9601
21
-3.80986
0
LINE
8
BLACK
6
CONTINUOUS
10
4.9601
20
-3.80986
11
4.96026
21
-3.8093
0
LINE
8
BLACK
6
CONTINUOUS
10
4.96026
20
-3.8093
11
4.96054
21
-3.80879
0
LINE
8
BLACK
6
CONTINUOUS
10
4.96054
20
-3.80879
11
4.9609
21
-3.80835
0
LINE
8
BLACK
6
CONTINUOUS
10
4.9609
20
-3.80835
11
4.96135
21
-3.80798
0
LINE
8
BLACK
6
CONTINUOUS
10
4.96135
20
-3.80798
11
4.96186
21
-3.80771
0
LINE
8
BLACK
6
CONTINUOUS
10
4.96186
20
-3.80771
11
4.96242
21
-3.80754
0
LINE
8
BLACK
6
CONTINUOUS
10
4.96242
20
-3.80754
11
4.96299
21
-3.80748
0
LINE
8
BLACK
6
CONTINUOUS
10
4.96299
20
-3.80748
11
4.99055
21
-3.80748
0
LINE
8
BLACK
6
CONTINUOUS
10
4.99055
20
-3.80748
11
4.99113
21
-3.80754
0
LINE
8
BLACK
6
CONTINUOUS
10
4.83758
20
-3.80754
11
4.83814
21
-3.80771
0
LINE
8
BLACK
6
CONTINUOUS
10
4.83814
20
-3.80771
11
4.83865
21
-3.80798
0
LINE
8
BLACK
6
CONTINUOUS
10
4.83865
20
-3.80798
11
4.8391
21
-3.80835
0
LINE
8
BLACK
6
CONTINUOUS
10
4.8391
20
-3.80835
11
4.83946
21
-3.80879
0
LINE
8
BLACK
6
CONTINUOUS
10
4.83946
20
-3.80879
11
4.83974
21
-3.8093
0
LINE
8
BLACK
6
CONTINUOUS
10
4.83974
20
-3.8093
11
4.8399
21
-3.80986
0
LINE
8
BLACK
6
CONTINUOUS
10
4.8399
20
-3.80986
11
4.83996
21
-3.81043
0
LINE
8
BLACK
6
CONTINUOUS
10
4.83996
20
-3.81043
11
4.83996
21
-3.81634
0
LINE
8
BLACK
6
CONTINUOUS
10
4.83996
20
-3.81634
11
4.8399
21
-3.81691
0
LINE
8
BLACK
6
CONTINUOUS
10
4.8399
20
-3.81691
11
4.83974
21
-3.81747
0
LINE
8
BLACK
6
CONTINUOUS
10
4.83974
20
-3.81747
11
4.83946
21
-3.81798
0
LINE
8
BLACK
6
CONTINUOUS
10
4.83946
20
-3.81798
11
4.8391
21
-3.81843
0
LINE
8
BLACK
6
CONTINUOUS
10
4.8391
20
-3.81843
11
4.83865
21
-3.81879
0
LINE
8
BLACK
6
CONTINUOUS
10
4.83865
20
-3.81879
11
4.83814
21
-3.81907
0
LINE
8
BLACK
6
CONTINUOUS
10
4.83814
20
-3.81907
11
4.83758
21
-3.81923
0
LINE
8
BLACK
6
CONTINUOUS
10
4.83758
20
-3.81923
11
4.83701
21
-3.81929
0
LINE
8
BLACK
6
CONTINUOUS
10
4.83701
20
-3.81929
11
4.80945
21
-3.81929
0
LINE
8
BLACK
6
CONTINUOUS
10
4.80945
20
-3.81929
11
4.80887
21
-3.81923
0
LINE
8
BLACK
6
CONTINUOUS
10
4.80887
20
-3.81923
11
4.80832
21
-3.81907
0
LINE
8
BLACK
6
CONTINUOUS
10
4.80832
20
-3.81907
11
4.80781
21
-3.81879
0
LINE
8
BLACK
6
CONTINUOUS
10
4.80781
20
-3.81879
11
4.80736
21
-3.81843
0
LINE
8
BLACK
6
CONTINUOUS
10
4.80736
20
-3.81843
11
4.80699
21
-3.81798
0
LINE
8
BLACK
6
CONTINUOUS
10
4.80699
20
-3.81798
11
4.80672
21
-3.81747
0
LINE
8
BLACK
6
CONTINUOUS
10
4.80672
20
-3.81747
11
4.80655
21
-3.81691
0
LINE
8
BLACK
6
CONTINUOUS
10
4.80655
20
-3.81691
11
4.8065
21
-3.81634
0
LINE
8
BLACK
6
CONTINUOUS
10
4.8065
20
-3.81634
11
4.8065
21
-3.81043
0
LINE
8
BLACK
6
CONTINUOUS
10
4.8065
20
-3.81043
11
4.80655
21
-3.80986
0
LINE
8
BLACK
6
CONTINUOUS
10
4.80655
20
-3.80986
11
4.80672
21
-3.8093
0
LINE
8
BLACK
6
CONTINUOUS
10
4.80672
20
-3.8093
11
4.80699
21
-3.80879
0
LINE
8
BLACK
6
CONTINUOUS
10
4.80699
20
-3.80879
11
4.80736
21
-3.80835
0
LINE
8
BLACK
6
CONTINUOUS
10
4.80736
20
-3.80835
11
4.80781
21
-3.80798
0
LINE
8
BLACK
6
CONTINUOUS
10
4.80781
20
-3.80798
11
4.80832
21
-3.80771
0
LINE
8
BLACK
6
CONTINUOUS
10
4.80832
20
-3.80771
11
4.80887
21
-3.80754
0
LINE
8
BLACK
6
CONTINUOUS
10
4.80887
20
-3.80754
11
4.80945
21
-3.80748
0
LINE
8
BLACK
6
CONTINUOUS
10
4.80945
20
-3.80748
11
4.83701
21
-3.80748
0
LINE
8
BLACK
6
CONTINUOUS
10
4.83701
20
-3.80748
11
4.83758
21
-3.80754
0
LINE
8
BLACK
6
CONTINUOUS
10
4.88933
20
-3.7791
11
4.8909
21
-3.77957
0
LINE
8
BLACK
6
CONTINUOUS
10
4.8909
20
-3.77957
11
4.89234
21
-3.78035
0
LINE
8
BLACK
6
CONTINUOUS
10
4.89234
20
-3.78035
11
4.89361
21
-3.78139
0
LINE
8
BLACK
6
CONTINUOUS
10
4.89361
20
-3.78139
11
4.89465
21
-3.78266
0
LINE
8
BLACK
6
CONTINUOUS
10
4.89465
20
-3.78266
11
4.89543
21
-3.7841
0
LINE
8
BLACK
6
CONTINUOUS
10
4.89543
20
-3.7841
11
4.8959
21
-3.78567
0
LINE
8
BLACK
6
CONTINUOUS
10
4.8959
20
-3.78567
11
4.89606
21
-3.7873
0
LINE
8
BLACK
6
CONTINUOUS
10
4.89606
20
-3.7873
11
4.89606
21
-3.80404
0
LINE
8
BLACK
6
CONTINUOUS
10
4.89606
20
-3.80404
11
4.8959
21
-3.80567
0
LINE
8
BLACK
6
CONTINUOUS
10
4.8959
20
-3.80567
11
4.89543
21
-3.80724
0
LINE
8
BLACK
6
CONTINUOUS
10
4.89543
20
-3.80724
11
4.89465
21
-3.80868
0
LINE
8
BLACK
6
CONTINUOUS
10
4.89465
20
-3.80868
11
4.89361
21
-3.80995
0
LINE
8
BLACK
6
CONTINUOUS
10
4.89361
20
-3.80995
11
4.89234
21
-3.81099
0
LINE
8
BLACK
6
CONTINUOUS
10
4.89234
20
-3.81099
11
4.8909
21
-3.81176
0
LINE
8
BLACK
6
CONTINUOUS
10
4.8909
20
-3.81176
11
4.88933
21
-3.81224
0
LINE
8
BLACK
6
CONTINUOUS
10
4.88933
20
-3.81224
11
4.8877
21
-3.8124
0
LINE
8
BLACK
6
CONTINUOUS
10
4.8877
20
-3.8124
11
4.87096
21
-3.8124
0
LINE
8
BLACK
6
CONTINUOUS
10
4.87096
20
-3.8124
11
4.86933
21
-3.81224
0
LINE
8
BLACK
6
CONTINUOUS
10
4.86933
20
-3.81224
11
4.86776
21
-3.81176
0
LINE
8
BLACK
6
CONTINUOUS
10
4.86776
20
-3.81176
11
4.86632
21
-3.81099
0
LINE
8
BLACK
6
CONTINUOUS
10
4.86632
20
-3.81099
11
4.86505
21
-3.80995
0
LINE
8
BLACK
6
CONTINUOUS
10
4.86505
20
-3.80995
11
4.86401
21
-3.80868
0
LINE
8
BLACK
6
CONTINUOUS
10
4.86401
20
-3.80868
11
4.86324
21
-3.80724
0
LINE
8
BLACK
6
CONTINUOUS
10
4.86324
20
-3.80724
11
4.86276
21
-3.80567
0
LINE
8
BLACK
6
CONTINUOUS
10
4.86276
20
-3.80567
11
4.8626
21
-3.80404
0
LINE
8
BLACK
6
CONTINUOUS
10
4.8626
20
-3.80404
11
4.8626
21
-3.7873
0
LINE
8
BLACK
6
CONTINUOUS
10
4.8626
20
-3.7873
11
4.86276
21
-3.78567
0
LINE
8
BLACK
6
CONTINUOUS
10
4.86276
20
-3.78567
11
4.86324
21
-3.7841
0
LINE
8
BLACK
6
CONTINUOUS
10
4.86324
20
-3.7841
11
4.86401
21
-3.78266
0
LINE
8
BLACK
6
CONTINUOUS
10
4.86401
20
-3.78266
11
4.86505
21
-3.78139
0
LINE
8
BLACK
6
CONTINUOUS
10
4.86505
20
-3.78139
11
4.86632
21
-3.78035
0
LINE
8
BLACK
6
CONTINUOUS
10
4.86632
20
-3.78035
11
4.86776
21
-3.77957
0
LINE
8
BLACK
6
CONTINUOUS
10
4.86776
20
-3.77957
11
4.86933
21
-3.7791
0
LINE
8
BLACK
6
CONTINUOUS
10
4.86933
20
-3.7791
11
4.87096
21
-3.77894
0
LINE
8
BLACK
6
CONTINUOUS
10
4.87096
20
-3.77894
11
4.8877
21
-3.77894
0
LINE
8
BLACK
6
CONTINUOUS
10
4.8877
20
-3.77894
11
4.88933
21
-3.7791
0
LINE
8
BLACK
6
CONTINUOUS
10
4.93067
20
-3.7791
11
4.93224
21
-3.77957
0
LINE
8
BLACK
6
CONTINUOUS
10
4.93224
20
-3.77957
11
4.93368
21
-3.78035
0
LINE
8
BLACK
6
CONTINUOUS
10
4.93368
20
-3.78035
11
4.93495
21
-3.78139
0
LINE
8
BLACK
6
CONTINUOUS
10
4.93495
20
-3.78139
11
4.93599
21
-3.78266
0
LINE
8
BLACK
6
CONTINUOUS
10
4.93599
20
-3.78266
11
4.93676
21
-3.7841
0
LINE
8
BLACK
6
CONTINUOUS
10
4.93676
20
-3.7841
11
4.93724
21
-3.78567
0
LINE
8
BLACK
6
CONTINUOUS
10
4.93724
20
-3.78567
11
4.9374
21
-3.7873
0
LINE
8
BLACK
6
CONTINUOUS
10
4.9374
20
-3.7873
11
4.9374
21
-3.80404
0
LINE
8
BLACK
6
CONTINUOUS
10
4.9374
20
-3.80404
11
4.93724
21
-3.80567
0
LINE
8
BLACK
6
CONTINUOUS
10
4.93724
20
-3.80567
11
4.93676
21
-3.80724
0
LINE
8
BLACK
6
CONTINUOUS
10
4.93676
20
-3.80724
11
4.93599
21
-3.80868
0
LINE
8
BLACK
6
CONTINUOUS
10
4.93599
20
-3.80868
11
4.93495
21
-3.80995
0
LINE
8
BLACK
6
CONTINUOUS
10
4.93495
20
-3.80995
11
4.93368
21
-3.81099
0
LINE
8
BLACK
6
CONTINUOUS
10
4.93368
20
-3.81099
11
4.93224
21
-3.81176
0
LINE
8
BLACK
6
CONTINUOUS
10
4.93224
20
-3.81176
11
4.93067
21
-3.81224
0
LINE
8
BLACK
6
CONTINUOUS
10
4.93067
20
-3.81224
11
4.92904
21
-3.8124
0
LINE
8
BLACK
6
CONTINUOUS
10
4.92904
20
-3.8124
11
4.9123
21
-3.8124
0
LINE
8
BLACK
6
CONTINUOUS
10
4.9123
20
-3.8124
11
4.91067
21
-3.81224
0
LINE
8
BLACK
6
CONTINUOUS
10
4.91067
20
-3.81224
11
4.9091
21
-3.81176
0
LINE
8
BLACK
6
CONTINUOUS
10
4.9091
20
-3.81176
11
4.90766
21
-3.81099
0
LINE
8
BLACK
6
CONTINUOUS
10
4.90766
20
-3.81099
11
4.90639
21
-3.80995
0
LINE
8
BLACK
6
CONTINUOUS
10
4.90639
20
-3.80995
11
4.90535
21
-3.80868
0
LINE
8
BLACK
6
CONTINUOUS
10
4.90535
20
-3.80868
11
4.90457
21
-3.80724
0
LINE
8
BLACK
6
CONTINUOUS
10
4.90457
20
-3.80724
11
4.9041
21
-3.80567
0
LINE
8
BLACK
6
CONTINUOUS
10
4.9041
20
-3.80567
11
4.90394
21
-3.80404
0
LINE
8
BLACK
6
CONTINUOUS
10
4.90394
20
-3.80404
11
4.90394
21
-3.7873
0
LINE
8
BLACK
6
CONTINUOUS
10
4.90394
20
-3.7873
11
4.9041
21
-3.78567
0
LINE
8
BLACK
6
CONTINUOUS
10
4.9041
20
-3.78567
11
4.90457
21
-3.7841
0
LINE
8
BLACK
6
CONTINUOUS
10
4.90457
20
-3.7841
11
4.90535
21
-3.78266
0
LINE
8
BLACK
6
CONTINUOUS
10
4.90535
20
-3.78266
11
4.90639
21
-3.78139
0
LINE
8
BLACK
6
CONTINUOUS
10
4.90639
20
-3.78139
11
4.90766
21
-3.78035
0
LINE
8
BLACK
6
CONTINUOUS
10
4.90766
20
-3.78035
11
4.9091
21
-3.77957
0
LINE
8
BLACK
6
CONTINUOUS
10
4.9091
20
-3.77957
11
4.91067
21
-3.7791
0
LINE
8
BLACK
6
CONTINUOUS
10
4.91067
20
-3.7791
11
4.9123
21
-3.77894
0
LINE
8
BLACK
6
CONTINUOUS
10
4.9123
20
-3.77894
11
4.92904
21
-3.77894
0
LINE
8
BLACK
6
CONTINUOUS
10
4.92904
20
-3.77894
11
4.93067
21
-3.7791
0
LINE
8
BLACK
6
CONTINUOUS
10
4.99113
20
-3.78195
11
4.99168
21
-3.78211
0
LINE
8
BLACK
6
CONTINUOUS
10
4.99168
20
-3.78211
11
4.99219
21
-3.78239
0
LINE
8
BLACK
6
CONTINUOUS
10
4.99219
20
-3.78239
11
4.99264
21
-3.78275
0
LINE
8
BLACK
6
CONTINUOUS
10
4.99264
20
-3.78275
11
4.99301
21
-3.7832
0
LINE
8
BLACK
6
CONTINUOUS
10
4.99301
20
-3.7832
11
4.99328
21
-3.78371
0
LINE
8
BLACK
6
CONTINUOUS
10
4.99328
20
-3.78371
11
4.99345
21
-3.78427
0
LINE
8
BLACK
6
CONTINUOUS
10
4.99345
20
-3.78427
11
4.9935
21
-3.78484
0
LINE
8
BLACK
6
CONTINUOUS
10
4.9935
20
-3.78484
11
4.9935
21
-3.79075
0
LINE
8
BLACK
6
CONTINUOUS
10
4.9935
20
-3.79075
11
4.99345
21
-3.79132
0
LINE
8
BLACK
6
CONTINUOUS
10
4.99345
20
-3.79132
11
4.99328
21
-3.79188
0
LINE
8
BLACK
6
CONTINUOUS
10
4.99328
20
-3.79188
11
4.99301
21
-3.79239
0
LINE
8
BLACK
6
CONTINUOUS
10
4.99301
20
-3.79239
11
4.99264
21
-3.79284
0
LINE
8
BLACK
6
CONTINUOUS
10
4.99264
20
-3.79284
11
4.99219
21
-3.7932
0
LINE
8
BLACK
6
CONTINUOUS
10
4.99219
20
-3.7932
11
4.99168
21
-3.79348
0
LINE
8
BLACK
6
CONTINUOUS
10
4.99168
20
-3.79348
11
4.99113
21
-3.79364
0
LINE
8
BLACK
6
CONTINUOUS
10
4.99113
20
-3.79364
11
4.99055
21
-3.7937
0
LINE
8
BLACK
6
CONTINUOUS
10
4.99055
20
-3.7937
11
4.96299
21
-3.7937
0
LINE
8
BLACK
6
CONTINUOUS
10
4.96299
20
-3.7937
11
4.96242
21
-3.79364
0
LINE
8
BLACK
6
CONTINUOUS
10
4.96242
20
-3.79364
11
4.96186
21
-3.79348
0
LINE
8
BLACK
6
CONTINUOUS
10
4.96186
20
-3.79348
11
4.96135
21
-3.7932
0
LINE
8
BLACK
6
CONTINUOUS
10
4.96135
20
-3.7932
11
4.9609
21
-3.79284
0
LINE
8
BLACK
6
CONTINUOUS
10
4.9609
20
-3.79284
11
4.96054
21
-3.79239
0
LINE
8
BLACK
6
CONTINUOUS
10
4.96054
20
-3.79239
11
4.96026
21
-3.79188
0
LINE
8
BLACK
6
CONTINUOUS
10
4.96026
20
-3.79188
11
4.9601
21
-3.79132
0
LINE
8
BLACK
6
CONTINUOUS
10
4.9601
20
-3.79132
11
4.96004
21
-3.79075
0
LINE
8
BLACK
6
CONTINUOUS
10
4.96004
20
-3.79075
11
4.96004
21
-3.78484
0
LINE
8
BLACK
6
CONTINUOUS
10
4.96004
20
-3.78484
11
4.9601
21
-3.78427
0
LINE
8
BLACK
6
CONTINUOUS
10
4.9601
20
-3.78427
11
4.96026
21
-3.78371
0
LINE
8
BLACK
6
CONTINUOUS
10
4.96026
20
-3.78371
11
4.96054
21
-3.7832
0
LINE
8
BLACK
6
CONTINUOUS
10
4.96054
20
-3.7832
11
4.9609
21
-3.78275
0
LINE
8
BLACK
6
CONTINUOUS
10
4.9609
20
-3.78275
11
4.96135
21
-3.78239
0
LINE
8
BLACK
6
CONTINUOUS
10
4.96135
20
-3.78239
11
4.96186
21
-3.78211
0
LINE
8
BLACK
6
CONTINUOUS
10
4.96186
20
-3.78211
11
4.96242
21
-3.78195
0
LINE
8
BLACK
6
CONTINUOUS
10
4.96242
20
-3.78195
11
4.96299
21
-3.78189
0
LINE
8
BLACK
6
CONTINUOUS
10
4.96299
20
-3.78189
11
4.99055
21
-3.78189
0
LINE
8
BLACK
6
CONTINUOUS
10
4.99055
20
-3.78189
11
4.99113
21
-3.78195
0
LINE
8
BLACK
6
CONTINUOUS
10
4.83758
20
-3.78195
11
4.83814
21
-3.78211
0
LINE
8
BLACK
6
CONTINUOUS
10
4.83814
20
-3.78211
11
4.83865
21
-3.78239
0
LINE
8
BLACK
6
CONTINUOUS
10
4.83865
20
-3.78239
11
4.8391
21
-3.78275
0
LINE
8
BLACK
6
CONTINUOUS
10
4.8391
20
-3.78275
11
4.83946
21
-3.7832
0
LINE
8
BLACK
6
CONTINUOUS
10
4.83946
20
-3.7832
11
4.83974
21
-3.78371
0
LINE
8
BLACK
6
CONTINUOUS
10
4.83974
20
-3.78371
11
4.8399
21
-3.78427
0
LINE
8
BLACK
6
CONTINUOUS
10
4.8399
20
-3.78427
11
4.83996
21
-3.78484
0
LINE
8
BLACK
6
CONTINUOUS
10
4.83996
20
-3.78484
11
4.83996
21
-3.79075
0
LINE
8
BLACK
6
CONTINUOUS
10
4.83996
20
-3.79075
11
4.8399
21
-3.79132
0
LINE
8
BLACK
6
CONTINUOUS
10
4.8399
20
-3.79132
11
4.83974
21
-3.79188
0
LINE
8
BLACK
6
CONTINUOUS
10
4.83974
20
-3.79188
11
4.83946
21
-3.79239
0
LINE
8
BLACK
6
CONTINUOUS
10
4.83946
20
-3.79239
11
4.8391
21
-3.79284
0
LINE
8
BLACK
6
CONTINUOUS
10
4.8391
20
-3.79284
11
4.83865
21
-3.7932
0
LINE
8
BLACK
6
CONTINUOUS
10
4.83865
20
-3.7932
11
4.83814
21
-3.79348
0
LINE
8
BLACK
6
CONTINUOUS
10
4.83814
20
-3.79348
11
4.83758
21
-3.79364
0
LINE
8
BLACK
6
CONTINUOUS
10
4.83758
20
-3.79364
11
4.83701
21
-3.7937
0
LINE
8
BLACK
6
CONTINUOUS
10
4.83701
20
-3.7937
11
4.80945
21
-3.7937
0
LINE
8
BLACK
6
CONTINUOUS
10
4.80945
20
-3.7937
11
4.80887
21
-3.79364
0
LINE
8
BLACK
6
CONTINUOUS
10
4.80887
20
-3.79364
11
4.80832
21
-3.79348
0
LINE
8
BLACK
6
CONTINUOUS
10
4.80832
20
-3.79348
11
4.80781
21
-3.7932
0
LINE
8
BLACK
6
CONTINUOUS
10
4.80781
20
-3.7932
11
4.80736
21
-3.79284
0
LINE
8
BLACK
6
CONTINUOUS
10
4.80736
20
-3.79284
11
4.80699
21
-3.79239
0
LINE
8
BLACK
6
CONTINUOUS
10
4.80699
20
-3.79239
11
4.80672
21
-3.79188
0
LINE
8
BLACK
6
CONTINUOUS
10
4.80672
20
-3.79188
11
4.80655
21
-3.79132
0
LINE
8
BLACK
6
CONTINUOUS
10
4.80655
20
-3.79132
11
4.8065
21
-3.79075
0
LINE
8
BLACK
6
CONTINUOUS
10
4.8065
20
-3.79075
11
4.8065
21
-3.78484
0
LINE
8
BLACK
6
CONTINUOUS
10
4.8065
20
-3.78484
11
4.80655
21
-3.78427
0
LINE
8
BLACK
6
CONTINUOUS
10
4.80655
20
-3.78427
11
4.80672
21
-3.78371
0
LINE
8
BLACK
6
CONTINUOUS
10
4.80672
20
-3.78371
11
4.80699
21
-3.7832
0
LINE
8
BLACK
6
CONTINUOUS
10
4.80699
20
-3.7832
11
4.80736
21
-3.78275
0
LINE
8
BLACK
6
CONTINUOUS
10
4.80736
20
-3.78275
11
4.80781
21
-3.78239
0
LINE
8
BLACK
6
CONTINUOUS
10
4.80781
20
-3.78239
11
4.80832
21
-3.78211
0
LINE
8
BLACK
6
CONTINUOUS
10
4.80832
20
-3.78211
11
4.80887
21
-3.78195
0
LINE
8
BLACK
6
CONTINUOUS
10
4.80887
20
-3.78195
11
4.80945
21
-3.78189
0
LINE
8
BLACK
6
CONTINUOUS
10
4.80945
20
-3.78189
11
4.83701
21
-3.78189
0
LINE
8
BLACK
6
CONTINUOUS
10
4.83701
20
-3.78189
11
4.83758
21
-3.78195
0
LINE
8
BLACK
6
CONTINUOUS
10
4.93067
20
-3.73776
11
4.93224
21
-3.73824
0
LINE
8
BLACK
6
CONTINUOUS
10
4.93224
20
-3.73824
11
4.93368
21
-3.73901
0
LINE
8
BLACK
6
CONTINUOUS
10
4.93368
20
-3.73901
11
4.93495
21
-3.74005
0
LINE
8
BLACK
6
CONTINUOUS
10
4.93495
20
-3.74005
11
4.93599
21
-3.74132
0
LINE
8
BLACK
6
CONTINUOUS
10
4.93599
20
-3.74132
11
4.93676
21
-3.74276
0
LINE
8
BLACK
6
CONTINUOUS
10
4.93676
20
-3.74276
11
4.93724
21
-3.74433
0
LINE
8
BLACK
6
CONTINUOUS
10
4.93724
20
-3.74433
11
4.9374
21
-3.74596
0
LINE
8
BLACK
6
CONTINUOUS
10
4.9374
20
-3.74596
11
4.9374
21
-3.7627
0
LINE
8
BLACK
6
CONTINUOUS
10
4.9374
20
-3.7627
11
4.93724
21
-3.76433
0
LINE
8
BLACK
6
CONTINUOUS
10
4.93724
20
-3.76433
11
4.93676
21
-3.7659
0
LINE
8
BLACK
6
CONTINUOUS
10
4.93676
20
-3.7659
11
4.93599
21
-3.76734
0
LINE
8
BLACK
6
CONTINUOUS
10
4.93599
20
-3.76734
11
4.93495
21
-3.76861
0
LINE
8
BLACK
6
CONTINUOUS
10
4.93495
20
-3.76861
11
4.93368
21
-3.76965
0
LINE
8
BLACK
6
CONTINUOUS
10
4.93368
20
-3.76965
11
4.93224
21
-3.77043
0
LINE
8
BLACK
6
CONTINUOUS
10
4.93224
20
-3.77043
11
4.93067
21
-3.7709
0
LINE
8
BLACK
6
CONTINUOUS
10
4.93067
20
-3.7709
11
4.92904
21
-3.77106
0
LINE
8
BLACK
6
CONTINUOUS
10
4.92904
20
-3.77106
11
4.9123
21
-3.77106
0
LINE
8
BLACK
6
CONTINUOUS
10
4.9123
20
-3.77106
11
4.91067
21
-3.7709
0
LINE
8
BLACK
6
CONTINUOUS
10
4.91067
20
-3.7709
11
4.9091
21
-3.77043
0
LINE
8
BLACK
6
CONTINUOUS
10
4.9091
20
-3.77043
11
4.90766
21
-3.76965
0
LINE
8
BLACK
6
CONTINUOUS
10
4.90766
20
-3.76965
11
4.90639
21
-3.76861
0
LINE
8
BLACK
6
CONTINUOUS
10
4.90639
20
-3.76861
11
4.90535
21
-3.76734
0
LINE
8
BLACK
6
CONTINUOUS
10
4.90535
20
-3.76734
11
4.90457
21
-3.7659
0
LINE
8
BLACK
6
CONTINUOUS
10
4.90457
20
-3.7659
11
4.9041
21
-3.76433
0
LINE
8
BLACK
6
CONTINUOUS
10
4.9041
20
-3.76433
11
4.90394
21
-3.7627
0
LINE
8
BLACK
6
CONTINUOUS
10
4.90394
20
-3.7627
11
4.90394
21
-3.74596
0
LINE
8
BLACK
6
CONTINUOUS
10
4.90394
20
-3.74596
11
4.9041
21
-3.74433
0
LINE
8
BLACK
6
CONTINUOUS
10
4.9041
20
-3.74433
11
4.90457
21
-3.74276
0
LINE
8
BLACK
6
CONTINUOUS
10
4.90457
20
-3.74276
11
4.90535
21
-3.74132
0
LINE
8
BLACK
6
CONTINUOUS
10
4.90535
20
-3.74132
11
4.90639
21
-3.74005
0
LINE
8
BLACK
6
CONTINUOUS
10
4.90639
20
-3.74005
11
4.90766
21
-3.73901
0
LINE
8
BLACK
6
CONTINUOUS
10
4.90766
20
-3.73901
11
4.9091
21
-3.73824
0
LINE
8
BLACK
6
CONTINUOUS
10
4.9091
20
-3.73824
11
4.91067
21
-3.73776
0
LINE
8
BLACK
6
CONTINUOUS
10
4.91067
20
-3.73776
11
4.9123
21
-3.7376
0
LINE
8
BLACK
6
CONTINUOUS
10
4.9123
20
-3.7376
11
4.92904
21
-3.7376
0
LINE
8
BLACK
6
CONTINUOUS
10
4.92904
20
-3.7376
11
4.93067
21
-3.73776
0
LINE
8
BLACK
6
CONTINUOUS
10
4.88933
20
-3.73776
11
4.8909
21
-3.73824
0
LINE
8
BLACK
6
CONTINUOUS
10
4.8909
20
-3.73824
11
4.89234
21
-3.73901
0
LINE
8
BLACK
6
CONTINUOUS
10
4.89234
20
-3.73901
11
4.89361
21
-3.74005
0
LINE
8
BLACK
6
CONTINUOUS
10
4.89361
20
-3.74005
11
4.89465
21
-3.74132
0
LINE
8
BLACK
6
CONTINUOUS
10
4.89465
20
-3.74132
11
4.89543
21
-3.74276
0
LINE
8
BLACK
6
CONTINUOUS
10
4.89543
20
-3.74276
11
4.8959
21
-3.74433
0
LINE
8
BLACK
6
CONTINUOUS
10
4.8959
20
-3.74433
11
4.89606
21
-3.74596
0
LINE
8
BLACK
6
CONTINUOUS
10
4.89606
20
-3.74596
11
4.89606
21
-3.7627
0
LINE
8
BLACK
6
CONTINUOUS
10
4.89606
20
-3.7627
11
4.8959
21
-3.76433
0
LINE
8
BLACK
6
CONTINUOUS
10
4.8959
20
-3.76433
11
4.89543
21
-3.7659
0
LINE
8
BLACK
6
CONTINUOUS
10
4.89543
20
-3.7659
11
4.89465
21
-3.76734
0
LINE
8
BLACK
6
CONTINUOUS
10
4.89465
20
-3.76734
11
4.89361
21
-3.76861
0
LINE
8
BLACK
6
CONTINUOUS
10
4.89361
20
-3.76861
11
4.89234
21
-3.76965
0
LINE
8
BLACK
6
CONTINUOUS
10
4.89234
20
-3.76965
11
4.8909
21
-3.77043
0
LINE
8
BLACK
6
CONTINUOUS
10
4.8909
20
-3.77043
11
4.88933
21
-3.7709
0
LINE
8
BLACK
6
CONTINUOUS
10
4.88933
20
-3.7709
11
4.8877
21
-3.77106
0
LINE
8
BLACK
6
CONTINUOUS
10
4.8877
20
-3.77106
11
4.87096
21
-3.77106
0
LINE
8
BLACK
6
CONTINUOUS
10
4.87096
20
-3.77106
11
4.86933
21
-3.7709
0
LINE
8
BLACK
6
CONTINUOUS
10
4.86933
20
-3.7709
11
4.86776
21
-3.77043
0
LINE
8
BLACK
6
CONTINUOUS
10
4.86776
20
-3.77043
11
4.86632
21
-3.76965
0
LINE
8
BLACK
6
CONTINUOUS
10
4.86632
20
-3.76965
11
4.86505
21
-3.76861
0
LINE
8
BLACK
6
CONTINUOUS
10
4.86505
20
-3.76861
11
4.86401
21
-3.76734
0
LINE
8
BLACK
6
CONTINUOUS
10
4.86401
20
-3.76734
11
4.86324
21
-3.7659
0
LINE
8
BLACK
6
CONTINUOUS
10
4.86324
20
-3.7659
11
4.86276
21
-3.76433
0
LINE
8
BLACK
6
CONTINUOUS
10
4.86276
20
-3.76433
11
4.8626
21
-3.7627
0
LINE
8
BLACK
6
CONTINUOUS
10
4.8626
20
-3.7627
11
4.8626
21
-3.74596
0
LINE
8
BLACK
6
CONTINUOUS
10
4.8626
20
-3.74596
11
4.86276
21
-3.74433
0
LINE
8
BLACK
6
CONTINUOUS
10
4.86276
20
-3.74433
11
4.86324
21
-3.74276
0
LINE
8
BLACK
6
CONTINUOUS
10
4.86324
20
-3.74276
11
4.86401
21
-3.74132
0
LINE
8
BLACK
6
CONTINUOUS
10
4.86401
20
-3.74132
11
4.86505
21
-3.74005
0
LINE
8
BLACK
6
CONTINUOUS
10
4.86505
20
-3.74005
11
4.86632
21
-3.73901
0
LINE
8
BLACK
6
CONTINUOUS
10
4.86632
20
-3.73901
11
4.86776
21
-3.73824
0
LINE
8
BLACK
6
CONTINUOUS
10
4.86776
20
-3.73824
11
4.86933
21
-3.73776
0
LINE
8
BLACK
6
CONTINUOUS
10
4.86933
20
-3.73776
11
4.87096
21
-3.7376
0
LINE
8
BLACK
6
CONTINUOUS
10
4.87096
20
-3.7376
11
4.8877
21
-3.7376
0
LINE
8
BLACK
6
CONTINUOUS
10
4.8877
20
-3.7376
11
4.88933
21
-3.73776
0
LINE
8
BLACK
6
CONTINUOUS
10
4.83758
20
-3.75636
11
4.83814
21
-3.75652
0
LINE
8
BLACK
6
CONTINUOUS
10
4.83814
20
-3.75652
11
4.83865
21
-3.7568
0
LINE
8
BLACK
6
CONTINUOUS
10
4.83865
20
-3.7568
11
4.8391
21
-3.75716
0
LINE
8
BLACK
6
CONTINUOUS
10
4.8391
20
-3.75716
11
4.83946
21
-3.75761
0
LINE
8
BLACK
6
CONTINUOUS
10
4.83946
20
-3.75761
11
4.83974
21
-3.75812
0
LINE
8
BLACK
6
CONTINUOUS
10
4.83974
20
-3.75812
11
4.8399
21
-3.75868
0
LINE
8
BLACK
6
CONTINUOUS
10
4.8399
20
-3.75868
11
4.83996
21
-3.75925
0
LINE
8
BLACK
6
CONTINUOUS
10
4.83996
20
-3.75925
11
4.83996
21
-3.76516
0
LINE
8
BLACK
6
CONTINUOUS
10
4.83996
20
-3.76516
11
4.8399
21
-3.76573
0
LINE
8
BLACK
6
CONTINUOUS
10
4.8399
20
-3.76573
11
4.83974
21
-3.76629
0
LINE
8
BLACK
6
CONTINUOUS
10
4.83974
20
-3.76629
11
4.83946
21
-3.7668
0
LINE
8
BLACK
6
CONTINUOUS
10
4.83946
20
-3.7668
11
4.8391
21
-3.76725
0
LINE
8
BLACK
6
CONTINUOUS
10
4.8391
20
-3.76725
11
4.83865
21
-3.76761
0
LINE
8
BLACK
6
CONTINUOUS
10
4.83865
20
-3.76761
11
4.83814
21
-3.76789
0
LINE
8
BLACK
6
CONTINUOUS
10
4.83814
20
-3.76789
11
4.83758
21
-3.76805
0
LINE
8
BLACK
6
CONTINUOUS
10
4.83758
20
-3.76805
11
4.83701
21
-3.76811
0
LINE
8
BLACK
6
CONTINUOUS
10
4.83701
20
-3.76811
11
4.80945
21
-3.76811
0
LINE
8
BLACK
6
CONTINUOUS
10
4.80945
20
-3.76811
11
4.80887
21
-3.76805
0
LINE
8
BLACK
6
CONTINUOUS
10
4.80887
20
-3.76805
11
4.80832
21
-3.76789
0
LINE
8
BLACK
6
CONTINUOUS
10
4.80832
20
-3.76789
11
4.80781
21
-3.76761
0
LINE
8
BLACK
6
CONTINUOUS
10
4.80781
20
-3.76761
11
4.80736
21
-3.76725
0
LINE
8
BLACK
6
CONTINUOUS
10
4.80736
20
-3.76725
11
4.80699
21
-3.7668
0
LINE
8
BLACK
6
CONTINUOUS
10
4.80699
20
-3.7668
11
4.80672
21
-3.76629
0
LINE
8
BLACK
6
CONTINUOUS
10
4.80672
20
-3.76629
11
4.80655
21
-3.76573
0
LINE
8
BLACK
6
CONTINUOUS
10
4.80655
20
-3.76573
11
4.8065
21
-3.76516
0
LINE
8
BLACK
6
CONTINUOUS
10
4.8065
20
-3.76516
11
4.8065
21
-3.75925
0
LINE
8
BLACK
6
CONTINUOUS
10
4.8065
20
-3.75925
11
4.80655
21
-3.75868
0
LINE
8
BLACK
6
CONTINUOUS
10
4.80655
20
-3.75868
11
4.80672
21
-3.75812
0
LINE
8
BLACK
6
CONTINUOUS
10
4.80672
20
-3.75812
11
4.80699
21
-3.75761
0
LINE
8
BLACK
6
CONTINUOUS
10
4.80699
20
-3.75761
11
4.80736
21
-3.75716
0
LINE
8
BLACK
6
CONTINUOUS
10
4.80736
20
-3.75716
11
4.80781
21
-3.7568
0
LINE
8
BLACK
6
CONTINUOUS
10
4.80781
20
-3.7568
11
4.80832
21
-3.75652
0
LINE
8
BLACK
6
CONTINUOUS
10
4.80832
20
-3.75652
11
4.80887
21
-3.75636
0
LINE
8
BLACK
6
CONTINUOUS
10
4.80887
20
-3.75636
11
4.80945
21
-3.7563
0
LINE
8
BLACK
6
CONTINUOUS
10
4.80945
20
-3.7563
11
4.83701
21
-3.7563
0
LINE
8
BLACK
6
CONTINUOUS
10
4.83701
20
-3.7563
11
4.83758
21
-3.75636
0
LINE
8
BLACK
6
CONTINUOUS
10
4.99113
20
-3.75636
11
4.99168
21
-3.75652
0
LINE
8
BLACK
6
CONTINUOUS
10
4.99168
20
-3.75652
11
4.99219
21
-3.7568
0
LINE
8
BLACK
6
CONTINUOUS
10
4.99219
20
-3.7568
11
4.99264
21
-3.75716
0
LINE
8
BLACK
6
CONTINUOUS
10
4.99264
20
-3.75716
11
4.99301
21
-3.75761
0
LINE
8
BLACK
6
CONTINUOUS
10
4.99301
20
-3.75761
11
4.99328
21
-3.75812
0
LINE
8
BLACK
6
CONTINUOUS
10
4.99328
20
-3.75812
11
4.99345
21
-3.75868
0
LINE
8
BLACK
6
CONTINUOUS
10
4.99345
20
-3.75868
11
4.9935
21
-3.75925
0
LINE
8
BLACK
6
CONTINUOUS
10
4.9935
20
-3.75925
11
4.9935
21
-3.76516
0
LINE
8
BLACK
6
CONTINUOUS
10
4.9935
20
-3.76516
11
4.99345
21
-3.76573
0
LINE
8
BLACK
6
CONTINUOUS
10
4.99345
20
-3.76573
11
4.99328
21
-3.76629
0
LINE
8
BLACK
6
CONTINUOUS
10
4.99328
20
-3.76629
11
4.99301
21
-3.7668
0
LINE
8
BLACK
6
CONTINUOUS
10
4.99301
20
-3.7668
11
4.99264
21
-3.76725
0
LINE
8
BLACK
6
CONTINUOUS
10
4.99264
20
-3.76725
11
4.99219
21
-3.76761
0
LINE
8
BLACK
6
CONTINUOUS
10
4.99219
20
-3.76761
11
4.99168
21
-3.76789
0
LINE
8
BLACK
6
CONTINUOUS
10
4.99168
20
-3.76789
11
4.99113
21
-3.76805
0
LINE
8
BLACK
6
CONTINUOUS
10
4.99113
20
-3.76805
11
4.99055
21
-3.76811
0
LINE
8
BLACK
6
CONTINUOUS
10
4.99055
20
-3.76811
11
4.96299
21
-3.76811
0
LINE
8
BLACK
6
CONTINUOUS
10
4.96299
20
-3.76811
11
4.96242
21
-3.76805
0
LINE
8
BLACK
6
CONTINUOUS
10
4.96242
20
-3.76805
11
4.96186
21
-3.76789
0
LINE
8
BLACK
6
CONTINUOUS
10
4.96186
20
-3.76789
11
4.96135
21
-3.76761
0
LINE
8
BLACK
6
CONTINUOUS
10
4.96135
20
-3.76761
11
4.9609
21
-3.76725
0
LINE
8
BLACK
6
CONTINUOUS
10
4.9609
20
-3.76725
11
4.96054
21
-3.7668
0
LINE
8
BLACK
6
CONTINUOUS
10
4.96054
20
-3.7668
11
4.96026
21
-3.76629
0
LINE
8
BLACK
6
CONTINUOUS
10
4.96026
20
-3.76629
11
4.9601
21
-3.76573
0
LINE
8
BLACK
6
CONTINUOUS
10
4.9601
20
-3.76573
11
4.96004
21
-3.76516
0
LINE
8
BLACK
6
CONTINUOUS
10
4.96004
20
-3.76516
11
4.96004
21
-3.75925
0
LINE
8
BLACK
6
CONTINUOUS
10
4.96004
20
-3.75925
11
4.9601
21
-3.75868
0
LINE
8
BLACK
6
CONTINUOUS
10
4.9601
20
-3.75868
11
4.96026
21
-3.75812
0
LINE
8
BLACK
6
CONTINUOUS
10
4.96026
20
-3.75812
11
4.96054
21
-3.75761
0
LINE
8
BLACK
6
CONTINUOUS
10
4.96054
20
-3.75761
11
4.9609
21
-3.75716
0
LINE
8
BLACK
6
CONTINUOUS
10
4.9609
20
-3.75716
11
4.96135
21
-3.7568
0
LINE
8
BLACK
6
CONTINUOUS
10
4.96135
20
-3.7568
11
4.96186
21
-3.75652
0
LINE
8
BLACK
6
CONTINUOUS
10
4.96186
20
-3.75652
11
4.96242
21
-3.75636
0
LINE
8
BLACK
6
CONTINUOUS
10
4.96242
20
-3.75636
11
4.96299
21
-3.7563
0
LINE
8
BLACK
6
CONTINUOUS
10
4.96299
20
-3.7563
11
4.99055
21
-3.7563
0
LINE
8
BLACK
6
CONTINUOUS
10
4.99055
20
-3.7563
11
4.99113
21
-3.75636
0
LINE
8
BLACK
6
CONTINUOUS
10
4.83758
20
-3.73077
11
4.83814
21
-3.73093
0
LINE
8
BLACK
6
CONTINUOUS
10
4.83814
20
-3.73093
11
4.83865
21
-3.73121
0
LINE
8
BLACK
6
CONTINUOUS
10
4.83865
20
-3.73121
11
4.8391
21
-3.73157
0
LINE
8
BLACK
6
CONTINUOUS
10
4.8391
20
-3.73157
11
4.83946
21
-3.73202
0
LINE
8
BLACK
6
CONTINUOUS
10
4.83946
20
-3.73202
11
4.83974
21
-3.73253
0
LINE
8
BLACK
6
CONTINUOUS
10
4.83974
20
-3.73253
11
4.8399
21
-3.73309
0
LINE
8
BLACK
6
CONTINUOUS
10
4.8399
20
-3.73309
11
4.83996
21
-3.73366
0
LINE
8
BLACK
6
CONTINUOUS
10
4.83996
20
-3.73366
11
4.83996
21
-3.73957
0
LINE
8
BLACK
6
CONTINUOUS
10
4.83996
20
-3.73957
11
4.8399
21
-3.74014
0
LINE
8
BLACK
6
CONTINUOUS
10
4.8399
20
-3.74014
11
4.83974
21
-3.7407
0
LINE
8
BLACK
6
CONTINUOUS
10
4.83974
20
-3.7407
11
4.83946
21
-3.74121
0
LINE
8
BLACK
6
CONTINUOUS
10
4.83946
20
-3.74121
11
4.8391
21
-3.74165
0
LINE
8
BLACK
6
CONTINUOUS
10
4.8391
20
-3.74165
11
4.83865
21
-3.74202
0
LINE
8
BLACK
6
CONTINUOUS
10
4.83865
20
-3.74202
11
4.83814
21
-3.74229
0
LINE
8
BLACK
6
CONTINUOUS
10
4.83814
20
-3.74229
11
4.83758
21
-3.74246
0
LINE
8
BLACK
6
CONTINUOUS
10
4.83758
20
-3.74246
11
4.83701
21
-3.74252
0
LINE
8
BLACK
6
CONTINUOUS
10
4.83701
20
-3.74252
11
4.80945
21
-3.74252
0
LINE
8
BLACK
6
CONTINUOUS
10
4.80945
20
-3.74252
11
4.80887
21
-3.74246
0
LINE
8
BLACK
6
CONTINUOUS
10
4.80887
20
-3.74246
11
4.80832
21
-3.74229
0
LINE
8
BLACK
6
CONTINUOUS
10
4.80832
20
-3.74229
11
4.80781
21
-3.74202
0
LINE
8
BLACK
6
CONTINUOUS
10
4.80781
20
-3.74202
11
4.80736
21
-3.74165
0
LINE
8
BLACK
6
CONTINUOUS
10
4.80736
20
-3.74165
11
4.80699
21
-3.74121
0
LINE
8
BLACK
6
CONTINUOUS
10
4.80699
20
-3.74121
11
4.80672
21
-3.7407
0
LINE
8
BLACK
6
CONTINUOUS
10
4.80672
20
-3.7407
11
4.80655
21
-3.74014
0
LINE
8
BLACK
6
CONTINUOUS
10
4.80655
20
-3.74014
11
4.8065
21
-3.73957
0
LINE
8
BLACK
6
CONTINUOUS
10
4.8065
20
-3.73957
11
4.8065
21
-3.73366
0
LINE
8
BLACK
6
CONTINUOUS
10
4.8065
20
-3.73366
11
4.80655
21
-3.73309
0
LINE
8
BLACK
6
CONTINUOUS
10
4.80655
20
-3.73309
11
4.80672
21
-3.73253
0
LINE
8
BLACK
6
CONTINUOUS
10
4.80672
20
-3.73253
11
4.80699
21
-3.73202
0
LINE
8
BLACK
6
CONTINUOUS
10
4.80699
20
-3.73202
11
4.80736
21
-3.73157
0
LINE
8
BLACK
6
CONTINUOUS
10
4.80736
20
-3.73157
11
4.80781
21
-3.73121
0
LINE
8
BLACK
6
CONTINUOUS
10
4.80781
20
-3.73121
11
4.80832
21
-3.73093
0
LINE
8
BLACK
6
CONTINUOUS
10
4.80832
20
-3.73093
11
4.80887
21
-3.73077
0
LINE
8
BLACK
6
CONTINUOUS
10
4.80887
20
-3.73077
11
4.80945
21
-3.73071
0
LINE
8
BLACK
6
CONTINUOUS
10
4.80945
20
-3.73071
11
4.83701
21
-3.73071
0
LINE
8
BLACK
6
CONTINUOUS
10
4.83701
20
-3.73071
11
4.83758
21
-3.73077
0
LINE
8
BLACK
6
CONTINUOUS
10
4.99113
20
-3.73077
11
4.99168
21
-3.73093
0
LINE
8
BLACK
6
CONTINUOUS
10
4.99168
20
-3.73093
11
4.99219
21
-3.73121
0
LINE
8
BLACK
6
CONTINUOUS
10
4.99219
20
-3.73121
11
4.99264
21
-3.73157
0
LINE
8
BLACK
6
CONTINUOUS
10
4.99264
20
-3.73157
11
4.99301
21
-3.73202
0
LINE
8
BLACK
6
CONTINUOUS
10
4.99301
20
-3.73202
11
4.99328
21
-3.73253
0
LINE
8
BLACK
6
CONTINUOUS
10
4.99328
20
-3.73253
11
4.99345
21
-3.73309
0
LINE
8
BLACK
6
CONTINUOUS
10
4.99345
20
-3.73309
11
4.9935
21
-3.73366
0
LINE
8
BLACK
6
CONTINUOUS
10
4.9935
20
-3.73366
11
4.9935
21
-3.73957
0
LINE
8
BLACK
6
CONTINUOUS
10
4.9935
20
-3.73957
11
4.99345
21
-3.74014
0
LINE
8
BLACK
6
CONTINUOUS
10
4.99345
20
-3.74014
11
4.99328
21
-3.7407
0
LINE
8
BLACK
6
CONTINUOUS
10
4.99328
20
-3.7407
11
4.99301
21
-3.74121
0
LINE
8
BLACK
6
CONTINUOUS
10
4.99301
20
-3.74121
11
4.99264
21
-3.74165
0
LINE
8
BLACK
6
CONTINUOUS
10
4.99264
20
-3.74165
11
4.99219
21
-3.74202
0
LINE
8
BLACK
6
CONTINUOUS
10
4.99219
20
-3.74202
11
4.99168
21
-3.74229
0
LINE
8
BLACK
6
CONTINUOUS
10
4.99168
20
-3.74229
11
4.99113
21
-3.74246
0
LINE
8
BLACK
6
CONTINUOUS
10
4.99113
20
-3.74246
11
4.99055
21
-3.74252
0
LINE
8
BLACK
6
CONTINUOUS
10
4.99055
20
-3.74252
11
4.96299
21
-3.74252
0
LINE
8
BLACK
6
CONTINUOUS
10
4.96299
20
-3.74252
11
4.96242
21
-3.74246
0
LINE
8
BLACK
6
CONTINUOUS
10
4.96242
20
-3.74246
11
4.96186
21
-3.74229
0
LINE
8
BLACK
6
CONTINUOUS
10
4.96186
20
-3.74229
11
4.96135
21
-3.74202
0
LINE
8
BLACK
6
CONTINUOUS
10
4.96135
20
-3.74202
11
4.9609
21
-3.74165
0
LINE
8
BLACK
6
CONTINUOUS
10
4.9609
20
-3.74165
11
4.96054
21
-3.74121
0
LINE
8
BLACK
6
CONTINUOUS
10
4.96054
20
-3.74121
11
4.96026
21
-3.7407
0
LINE
8
BLACK
6
CONTINUOUS
10
4.96026
20
-3.7407
11
4.9601
21
-3.74014
0
LINE
8
BLACK
6
CONTINUOUS
10
4.9601
20
-3.74014
11
4.96004
21
-3.73957
0
LINE
8
BLACK
6
CONTINUOUS
10
4.96004
20
-3.73957
11
4.96004
21
-3.73366
0
LINE
8
BLACK
6
CONTINUOUS
10
4.96004
20
-3.73366
11
4.9601
21
-3.73309
0
LINE
8
BLACK
6
CONTINUOUS
10
4.9601
20
-3.73309
11
4.96026
21
-3.73253
0
LINE
8
BLACK
6
CONTINUOUS
10
4.96026
20
-3.73253
11
4.96054
21
-3.73202
0
LINE
8
BLACK
6
CONTINUOUS
10
4.96054
20
-3.73202
11
4.9609
21
-3.73157
0
LINE
8
BLACK
6
CONTINUOUS
10
4.9609
20
-3.73157
11
4.96135
21
-3.73121
0
LINE
8
BLACK
6
CONTINUOUS
10
4.96135
20
-3.73121
11
4.96186
21
-3.73093
0
LINE
8
BLACK
6
CONTINUOUS
10
4.96186
20
-3.73093
11
4.96242
21
-3.73077
0
LINE
8
BLACK
6
CONTINUOUS
10
4.96242
20
-3.73077
11
4.96299
21
-3.73071
0
LINE
8
BLACK
6
CONTINUOUS
10
4.96299
20
-3.73071
11
4.99055
21
-3.73071
0
LINE
8
BLACK
6
CONTINUOUS
10
4.99055
20
-3.73071
11
4.99113
21
-3.73077
0
LINE
8
BLACK
6
CONTINUOUS
10
4.94191
20
-3.68155
11
4.94247
21
-3.68172
0
LINE
8
BLACK
6
CONTINUOUS
10
4.94247
20
-3.68172
11
4.94298
21
-3.68199
0
LINE
8
BLACK
6
CONTINUOUS
10
4.94298
20
-3.68199
11
4.94343
21
-3.68236
0
LINE
8
BLACK
6
CONTINUOUS
10
4.94343
20
-3.68236
11
4.94379
21
-3.68281
0
LINE
8
BLACK
6
CONTINUOUS
10
4.94379
20
-3.68281
11
4.94407
21
-3.68332
0
LINE
8
BLACK
6
CONTINUOUS
10
4.94407
20
-3.68332
11
4.94423
21
-3.68387
0
LINE
8
BLACK
6
CONTINUOUS
10
4.94423
20
-3.68387
11
4.94429
21
-3.68445
0
LINE
8
BLACK
6
CONTINUOUS
10
4.94429
20
-3.68445
11
4.94429
21
-3.71201
0
LINE
8
BLACK
6
CONTINUOUS
10
4.94429
20
-3.71201
11
4.94423
21
-3.71258
0
LINE
8
BLACK
6
CONTINUOUS
10
4.94423
20
-3.71258
11
4.94407
21
-3.71314
0
LINE
8
BLACK
6
CONTINUOUS
10
4.94407
20
-3.71314
11
4.94379
21
-3.71365
0
LINE
8
BLACK
6
CONTINUOUS
10
4.94379
20
-3.71365
11
4.94343
21
-3.7141
0
LINE
8
BLACK
6
CONTINUOUS
10
4.94343
20
-3.7141
11
4.94298
21
-3.71446
0
LINE
8
BLACK
6
CONTINUOUS
10
4.94298
20
-3.71446
11
4.94247
21
-3.71474
0
LINE
8
BLACK
6
CONTINUOUS
10
4.94247
20
-3.71474
11
4.94191
21
-3.7149
0
LINE
8
BLACK
6
CONTINUOUS
10
4.94191
20
-3.7149
11
4.94134
21
-3.71496
0
LINE
8
BLACK
6
CONTINUOUS
10
4.94134
20
-3.71496
11
4.93543
21
-3.71496
0
LINE
8
BLACK
6
CONTINUOUS
10
4.93543
20
-3.71496
11
4.93486
21
-3.7149
0
LINE
8
BLACK
6
CONTINUOUS
10
4.93486
20
-3.7149
11
4.9343
21
-3.71474
0
LINE
8
BLACK
6
CONTINUOUS
10
4.9343
20
-3.71474
11
4.93379
21
-3.71446
0
LINE
8
BLACK
6
CONTINUOUS
10
4.93379
20
-3.71446
11
4.93335
21
-3.7141
0
LINE
8
BLACK
6
CONTINUOUS
10
4.93335
20
-3.7141
11
4.93298
21
-3.71365
0
LINE
8
BLACK
6
CONTINUOUS
10
4.93298
20
-3.71365
11
4.93271
21
-3.71314
0
LINE
8
BLACK
6
CONTINUOUS
10
4.93271
20
-3.71314
11
4.93254
21
-3.71258
0
LINE
8
BLACK
6
CONTINUOUS
10
4.93254
20
-3.71258
11
4.93248
21
-3.71201
0
LINE
8
BLACK
6
CONTINUOUS
10
4.93248
20
-3.71201
11
4.93248
21
-3.68445
0
LINE
8
BLACK
6
CONTINUOUS
10
4.93248
20
-3.68445
11
4.93254
21
-3.68387
0
LINE
8
BLACK
6
CONTINUOUS
10
4.93254
20
-3.68387
11
4.93271
21
-3.68332
0
LINE
8
BLACK
6
CONTINUOUS
10
4.93271
20
-3.68332
11
4.93298
21
-3.68281
0
LINE
8
BLACK
6
CONTINUOUS
10
4.93298
20
-3.68281
11
4.93335
21
-3.68236
0
LINE
8
BLACK
6
CONTINUOUS
10
4.93335
20
-3.68236
11
4.93379
21
-3.68199
0
LINE
8
BLACK
6
CONTINUOUS
10
4.93379
20
-3.68199
11
4.9343
21
-3.68172
0
LINE
8
BLACK
6
CONTINUOUS
10
4.9343
20
-3.68172
11
4.93486
21
-3.68155
0
LINE
8
BLACK
6
CONTINUOUS
10
4.93486
20
-3.68155
11
4.93543
21
-3.6815
0
LINE
8
BLACK
6
CONTINUOUS
10
4.93543
20
-3.6815
11
4.94134
21
-3.6815
0
LINE
8
BLACK
6
CONTINUOUS
10
4.94134
20
-3.6815
11
4.94191
21
-3.68155
0
LINE
8
BLACK
6
CONTINUOUS
10
4.91632
20
-3.68155
11
4.91688
21
-3.68172
0
LINE
8
BLACK
6
CONTINUOUS
10
4.91688
20
-3.68172
11
4.91739
21
-3.68199
0
LINE
8
BLACK
6
CONTINUOUS
10
4.91739
20
-3.68199
11
4.91784
21
-3.68236
0
LINE
8
BLACK
6
CONTINUOUS
10
4.91784
20
-3.68236
11
4.9182
21
-3.68281
0
LINE
8
BLACK
6
CONTINUOUS
10
4.9182
20
-3.68281
11
4.91848
21
-3.68332
0
LINE
8
BLACK
6
CONTINUOUS
10
4.91848
20
-3.68332
11
4.91864
21
-3.68387
0
LINE
8
BLACK
6
CONTINUOUS
10
4.91864
20
-3.68387
11
4.9187
21
-3.68445
0
LINE
8
BLACK
6
CONTINUOUS
10
4.9187
20
-3.68445
11
4.9187
21
-3.71201
0
LINE
8
BLACK
6
CONTINUOUS
10
4.9187
20
-3.71201
11
4.91864
21
-3.71258
0
LINE
8
BLACK
6
CONTINUOUS
10
4.91864
20
-3.71258
11
4.91848
21
-3.71314
0
LINE
8
BLACK
6
CONTINUOUS
10
4.91848
20
-3.71314
11
4.9182
21
-3.71365
0
LINE
8
BLACK
6
CONTINUOUS
10
4.9182
20
-3.71365
11
4.91784
21
-3.7141
0
LINE
8
BLACK
6
CONTINUOUS
10
4.91784
20
-3.7141
11
4.91739
21
-3.71446
0
LINE
8
BLACK
6
CONTINUOUS
10
4.91739
20
-3.71446
11
4.91688
21
-3.71474
0
LINE
8
BLACK
6
CONTINUOUS
10
4.91688
20
-3.71474
11
4.91632
21
-3.7149
0
LINE
8
BLACK
6
CONTINUOUS
10
4.91632
20
-3.7149
11
4.91575
21
-3.71496
0
LINE
8
BLACK
6
CONTINUOUS
10
4.91575
20
-3.71496
11
4.90984
21
-3.71496
0
LINE
8
BLACK
6
CONTINUOUS
10
4.90984
20
-3.71496
11
4.90927
21
-3.7149
0
LINE
8
BLACK
6
CONTINUOUS
10
4.90927
20
-3.7149
11
4.90871
21
-3.71474
0
LINE
8
BLACK
6
CONTINUOUS
10
4.90871
20
-3.71474
11
4.9082
21
-3.71446
0
LINE
8
BLACK
6
CONTINUOUS
10
4.9082
20
-3.71446
11
4.90775
21
-3.7141
0
LINE
8
BLACK
6
CONTINUOUS
10
4.90775
20
-3.7141
11
4.90739
21
-3.71365
0
LINE
8
BLACK
6
CONTINUOUS
10
4.90739
20
-3.71365
11
4.90711
21
-3.71314
0
LINE
8
BLACK
6
CONTINUOUS
10
4.90711
20
-3.71314
11
4.90695
21
-3.71258
0
LINE
8
BLACK
6
CONTINUOUS
10
4.90695
20
-3.71258
11
4.90689
21
-3.71201
0
LINE
8
BLACK
6
CONTINUOUS
10
4.90689
20
-3.71201
11
4.90689
21
-3.68445
0
LINE
8
BLACK
6
CONTINUOUS
10
4.90689
20
-3.68445
11
4.90695
21
-3.68387
0
LINE
8
BLACK
6
CONTINUOUS
10
4.90695
20
-3.68387
11
4.90711
21
-3.68332
0
LINE
8
BLACK
6
CONTINUOUS
10
4.90711
20
-3.68332
11
4.90739
21
-3.68281
0
LINE
8
BLACK
6
CONTINUOUS
10
4.90739
20
-3.68281
11
4.90775
21
-3.68236
0
LINE
8
BLACK
6
CONTINUOUS
10
4.90775
20
-3.68236
11
4.9082
21
-3.68199
0
LINE
8
BLACK
6
CONTINUOUS
10
4.9082
20
-3.68199
11
4.90871
21
-3.68172
0
LINE
8
BLACK
6
CONTINUOUS
10
4.90871
20
-3.68172
11
4.90927
21
-3.68155
0
LINE
8
BLACK
6
CONTINUOUS
10
4.90927
20
-3.68155
11
4.90984
21
-3.6815
0
LINE
8
BLACK
6
CONTINUOUS
10
4.90984
20
-3.6815
11
4.91575
21
-3.6815
0
LINE
8
BLACK
6
CONTINUOUS
10
4.91575
20
-3.6815
11
4.91632
21
-3.68155
0
LINE
8
BLACK
6
CONTINUOUS
10
4.89073
20
-3.68155
11
4.89129
21
-3.68172
0
LINE
8
BLACK
6
CONTINUOUS
10
4.89129
20
-3.68172
11
4.8918
21
-3.68199
0
LINE
8
BLACK
6
CONTINUOUS
10
4.8918
20
-3.68199
11
4.89225
21
-3.68236
0
LINE
8
BLACK
6
CONTINUOUS
10
4.89225
20
-3.68236
11
4.89261
21
-3.68281
0
LINE
8
BLACK
6
CONTINUOUS
10
4.89261
20
-3.68281
11
4.89289
21
-3.68332
0
LINE
8
BLACK
6
CONTINUOUS
10
4.89289
20
-3.68332
11
4.89305
21
-3.68387
0
LINE
8
BLACK
6
CONTINUOUS
10
4.89305
20
-3.68387
11
4.89311
21
-3.68445
0
LINE
8
BLACK
6
CONTINUOUS
10
4.89311
20
-3.68445
11
4.89311
21
-3.71201
0
LINE
8
BLACK
6
CONTINUOUS
10
4.89311
20
-3.71201
11
4.89305
21
-3.71258
0
LINE
8
BLACK
6
CONTINUOUS
10
4.89305
20
-3.71258
11
4.89289
21
-3.71314
0
LINE
8
BLACK
6
CONTINUOUS
10
4.89289
20
-3.71314
11
4.89261
21
-3.71365
0
LINE
8
BLACK
6
CONTINUOUS
10
4.89261
20
-3.71365
11
4.89225
21
-3.7141
0
LINE
8
BLACK
6
CONTINUOUS
10
4.89225
20
-3.7141
11
4.8918
21
-3.71446
0
LINE
8
BLACK
6
CONTINUOUS
10
4.8918
20
-3.71446
11
4.89129
21
-3.71474
0
LINE
8
BLACK
6
CONTINUOUS
10
4.89129
20
-3.71474
11
4.89073
21
-3.7149
0
LINE
8
BLACK
6
CONTINUOUS
10
4.89073
20
-3.7149
11
4.89016
21
-3.71496
0
LINE
8
BLACK
6
CONTINUOUS
10
4.89016
20
-3.71496
11
4.88425
21
-3.71496
0
LINE
8
BLACK
6
CONTINUOUS
10
4.88425
20
-3.71496
11
4.88368
21
-3.7149
0
LINE
8
BLACK
6
CONTINUOUS
10
4.88368
20
-3.7149
11
4.88312
21
-3.71474
0
LINE
8
BLACK
6
CONTINUOUS
10
4.88312
20
-3.71474
11
4.88261
21
-3.71446
0
LINE
8
BLACK
6
CONTINUOUS
10
4.88261
20
-3.71446
11
4.88216
21
-3.7141
0
LINE
8
BLACK
6
CONTINUOUS
10
4.88216
20
-3.7141
11
4.8818
21
-3.71365
0
LINE
8
BLACK
6
CONTINUOUS
10
4.8818
20
-3.71365
11
4.88152
21
-3.71314
0
LINE
8
BLACK
6
CONTINUOUS
10
4.88152
20
-3.71314
11
4.88136
21
-3.71258
0
LINE
8
BLACK
6
CONTINUOUS
10
4.88136
20
-3.71258
11
4.8813
21
-3.71201
0
LINE
8
BLACK
6
CONTINUOUS
10
4.8813
20
-3.71201
11
4.8813
21
-3.68445
0
LINE
8
BLACK
6
CONTINUOUS
10
4.8813
20
-3.68445
11
4.88136
21
-3.68387
0
LINE
8
BLACK
6
CONTINUOUS
10
4.88136
20
-3.68387
11
4.88152
21
-3.68332
0
LINE
8
BLACK
6
CONTINUOUS
10
4.88152
20
-3.68332
11
4.8818
21
-3.68281
0
LINE
8
BLACK
6
CONTINUOUS
10
4.8818
20
-3.68281
11
4.88216
21
-3.68236
0
LINE
8
BLACK
6
CONTINUOUS
10
4.88216
20
-3.68236
11
4.88261
21
-3.68199
0
LINE
8
BLACK
6
CONTINUOUS
10
4.88261
20
-3.68199
11
4.88312
21
-3.68172
0
LINE
8
BLACK
6
CONTINUOUS
10
4.88312
20
-3.68172
11
4.88368
21
-3.68155
0
LINE
8
BLACK
6
CONTINUOUS
10
4.88368
20
-3.68155
11
4.88425
21
-3.6815
0
LINE
8
BLACK
6
CONTINUOUS
10
4.88425
20
-3.6815
11
4.89016
21
-3.6815
0
LINE
8
BLACK
6
CONTINUOUS
10
4.89016
20
-3.6815
11
4.89073
21
-3.68155
0
LINE
8
BLACK
6
CONTINUOUS
10
4.86514
20
-3.68155
11
4.8657
21
-3.68172
0
LINE
8
BLACK
6
CONTINUOUS
10
4.8657
20
-3.68172
11
4.86621
21
-3.68199
0
LINE
8
BLACK
6
CONTINUOUS
10
4.86621
20
-3.68199
11
4.86665
21
-3.68236
0
LINE
8
BLACK
6
CONTINUOUS
10
4.86665
20
-3.68236
11
4.86702
21
-3.68281
0
LINE
8
BLACK
6
CONTINUOUS
10
4.86702
20
-3.68281
11
4.86729
21
-3.68332
0
LINE
8
BLACK
6
CONTINUOUS
10
4.86729
20
-3.68332
11
4.86746
21
-3.68387
0
LINE
8
BLACK
6
CONTINUOUS
10
4.86746
20
-3.68387
11
4.86752
21
-3.68445
0
LINE
8
BLACK
6
CONTINUOUS
10
4.86752
20
-3.68445
11
4.86752
21
-3.71201
0
LINE
8
BLACK
6
CONTINUOUS
10
4.86752
20
-3.71201
11
4.86746
21
-3.71258
0
LINE
8
BLACK
6
CONTINUOUS
10
4.86746
20
-3.71258
11
4.86729
21
-3.71314
0
LINE
8
BLACK
6
CONTINUOUS
10
4.86729
20
-3.71314
11
4.86702
21
-3.71365
0
LINE
8
BLACK
6
CONTINUOUS
10
4.86702
20
-3.71365
11
4.86665
21
-3.7141
0
LINE
8
BLACK
6
CONTINUOUS
10
4.86665
20
-3.7141
11
4.86621
21
-3.71446
0
LINE
8
BLACK
6
CONTINUOUS
10
4.86621
20
-3.71446
11
4.8657
21
-3.71474
0
LINE
8
BLACK
6
CONTINUOUS
10
4.8657
20
-3.71474
11
4.86514
21
-3.7149
0
LINE
8
BLACK
6
CONTINUOUS
10
4.86514
20
-3.7149
11
4.86457
21
-3.71496
0
LINE
8
BLACK
6
CONTINUOUS
10
4.86457
20
-3.71496
11
4.85866
21
-3.71496
0
LINE
8
BLACK
6
CONTINUOUS
10
4.85866
20
-3.71496
11
4.85809
21
-3.7149
0
LINE
8
BLACK
6
CONTINUOUS
10
4.85809
20
-3.7149
11
4.85753
21
-3.71474
0
LINE
8
BLACK
6
CONTINUOUS
10
4.85753
20
-3.71474
11
4.85702
21
-3.71446
0
LINE
8
BLACK
6
CONTINUOUS
10
4.85702
20
-3.71446
11
4.85657
21
-3.7141
0
LINE
8
BLACK
6
CONTINUOUS
10
4.85657
20
-3.7141
11
4.85621
21
-3.71365
0
LINE
8
BLACK
6
CONTINUOUS
10
4.85621
20
-3.71365
11
4.85593
21
-3.71314
0
LINE
8
BLACK
6
CONTINUOUS
10
4.85593
20
-3.71314
11
4.85577
21
-3.71258
0
LINE
8
BLACK
6
CONTINUOUS
10
4.85577
20
-3.71258
11
4.85571
21
-3.71201
0
LINE
8
BLACK
6
CONTINUOUS
10
4.85571
20
-3.71201
11
4.85571
21
-3.68445
0
LINE
8
BLACK
6
CONTINUOUS
10
4.85571
20
-3.68445
11
4.85577
21
-3.68387
0
LINE
8
BLACK
6
CONTINUOUS
10
4.85577
20
-3.68387
11
4.85593
21
-3.68332
0
LINE
8
BLACK
6
CONTINUOUS
10
4.85593
20
-3.68332
11
4.85621
21
-3.68281
0
LINE
8
BLACK
6
CONTINUOUS
10
4.85621
20
-3.68281
11
4.85657
21
-3.68236
0
LINE
8
BLACK
6
CONTINUOUS
10
4.85657
20
-3.68236
11
4.85702
21
-3.68199
0
LINE
8
BLACK
6
CONTINUOUS
10
4.85702
20
-3.68199
11
4.85753
21
-3.68172
0
LINE
8
BLACK
6
CONTINUOUS
10
4.85753
20
-3.68172
11
4.85809
21
-3.68155
0
LINE
8
BLACK
6
CONTINUOUS
10
4.85809
20
-3.68155
11
4.85866
21
-3.6815
0
LINE
8
BLACK
6
CONTINUOUS
10
4.85866
20
-3.6815
11
4.86457
21
-3.6815
0
LINE
8
BLACK
6
CONTINUOUS
10
4.86457
20
-3.6815
11
4.86514
21
-3.68155
0
LINE
8
BLACK
6
CONTINUOUS
10
5.12456
20
-3.59763
11
5.12636
21
-3.59817
0
LINE
8
BLACK
6
CONTINUOUS
10
5.12636
20
-3.59817
11
5.12802
21
-3.59906
0
LINE
8
BLACK
6
CONTINUOUS
10
5.12802
20
-3.59906
11
5.12947
21
-3.60025
0
LINE
8
BLACK
6
CONTINUOUS
10
5.12947
20
-3.60025
11
5.13067
21
-3.60171
0
LINE
8
BLACK
6
CONTINUOUS
10
5.13067
20
-3.60171
11
5.13155
21
-3.60336
0
LINE
8
BLACK
6
CONTINUOUS
10
5.13155
20
-3.60336
11
5.1321
21
-3.60517
0
LINE
8
BLACK
6
CONTINUOUS
10
5.1321
20
-3.60517
11
5.13228
21
-3.60704
0
LINE
8
BLACK
6
CONTINUOUS
10
5.13228
20
-3.60704
11
5.13228
21
-3.64296
0
LINE
8
BLACK
6
CONTINUOUS
10
5.13228
20
-3.64296
11
5.1321
21
-3.64483
0
LINE
8
BLACK
6
CONTINUOUS
10
5.1321
20
-3.64483
11
5.13155
21
-3.64663
0
LINE
8
BLACK
6
CONTINUOUS
10
5.13155
20
-3.64663
11
5.13067
21
-3.64829
0
LINE
8
BLACK
6
CONTINUOUS
10
5.13067
20
-3.64829
11
5.12947
21
-3.64975
0
LINE
8
BLACK
6
CONTINUOUS
10
5.12947
20
-3.64975
11
5.12802
21
-3.65094
0
LINE
8
BLACK
6
CONTINUOUS
10
5.12802
20
-3.65094
11
5.12636
21
-3.65183
0
LINE
8
BLACK
6
CONTINUOUS
10
5.12636
20
-3.65183
11
5.12456
21
-3.65237
0
LINE
8
BLACK
6
CONTINUOUS
10
5.12456
20
-3.65237
11
5.12269
21
-3.65256
0
LINE
8
BLACK
6
CONTINUOUS
10
5.12269
20
-3.65256
11
5.10349
21
-3.65256
0
LINE
8
BLACK
6
CONTINUOUS
10
5.10349
20
-3.65256
11
5.10162
21
-3.65237
0
LINE
8
BLACK
6
CONTINUOUS
10
5.10162
20
-3.65237
11
5.09982
21
-3.65183
0
LINE
8
BLACK
6
CONTINUOUS
10
5.09982
20
-3.65183
11
5.09816
21
-3.65094
0
LINE
8
BLACK
6
CONTINUOUS
10
5.09816
20
-3.65094
11
5.09671
21
-3.64975
0
LINE
8
BLACK
6
CONTINUOUS
10
5.09671
20
-3.64975
11
5.09551
21
-3.64829
0
LINE
8
BLACK
6
CONTINUOUS
10
5.09551
20
-3.64829
11
5.09463
21
-3.64663
0
LINE
8
BLACK
6
CONTINUOUS
10
5.09463
20
-3.64663
11
5.09408
21
-3.64483
0
LINE
8
BLACK
6
CONTINUOUS
10
5.09408
20
-3.64483
11
5.0939
21
-3.64296
0
LINE
8
BLACK
6
CONTINUOUS
10
5.0939
20
-3.64296
11
5.0939
21
-3.60704
0
LINE
8
BLACK
6
CONTINUOUS
10
5.0939
20
-3.60704
11
5.09408
21
-3.60517
0
LINE
8
BLACK
6
CONTINUOUS
10
5.09408
20
-3.60517
11
5.09463
21
-3.60336
0
LINE
8
BLACK
6
CONTINUOUS
10
5.09463
20
-3.60336
11
5.09551
21
-3.60171
0
LINE
8
BLACK
6
CONTINUOUS
10
5.09551
20
-3.60171
11
5.09671
21
-3.60025
0
LINE
8
BLACK
6
CONTINUOUS
10
5.09671
20
-3.60025
11
5.09816
21
-3.59906
0
LINE
8
BLACK
6
CONTINUOUS
10
5.09816
20
-3.59906
11
5.09982
21
-3.59817
0
LINE
8
BLACK
6
CONTINUOUS
10
5.09982
20
-3.59817
11
5.10162
21
-3.59763
0
LINE
8
BLACK
6
CONTINUOUS
10
5.10162
20
-3.59763
11
5.10349
21
-3.59744
0
LINE
8
BLACK
6
CONTINUOUS
10
5.10349
20
-3.59744
11
5.12269
21
-3.59744
0
LINE
8
BLACK
6
CONTINUOUS
10
5.12269
20
-3.59744
11
5.12456
21
-3.59763
0
LINE
8
BLACK
6
CONTINUOUS
10
5.19838
20
-3.59763
11
5.20018
21
-3.59817
0
LINE
8
BLACK
6
CONTINUOUS
10
5.20018
20
-3.59817
11
5.20184
21
-3.59906
0
LINE
8
BLACK
6
CONTINUOUS
10
5.20184
20
-3.59906
11
5.20329
21
-3.60025
0
LINE
8
BLACK
6
CONTINUOUS
10
5.20329
20
-3.60025
11
5.20449
21
-3.60171
0
LINE
8
BLACK
6
CONTINUOUS
10
5.20449
20
-3.60171
11
5.20537
21
-3.60336
0
LINE
8
BLACK
6
CONTINUOUS
10
5.20537
20
-3.60336
11
5.20592
21
-3.60517
0
LINE
8
BLACK
6
CONTINUOUS
10
5.20592
20
-3.60517
11
5.2061
21
-3.60704
0
LINE
8
BLACK
6
CONTINUOUS
10
5.2061
20
-3.60704
11
5.2061
21
-3.64296
0
LINE
8
BLACK
6
CONTINUOUS
10
5.2061
20
-3.64296
11
5.20592
21
-3.64483
0
LINE
8
BLACK
6
CONTINUOUS
10
5.20592
20
-3.64483
11
5.20537
21
-3.64663
0
LINE
8
BLACK
6
CONTINUOUS
10
5.20537
20
-3.64663
11
5.20449
21
-3.64829
0
LINE
8
BLACK
6
CONTINUOUS
10
5.20449
20
-3.64829
11
5.20329
21
-3.64975
0
LINE
8
BLACK
6
CONTINUOUS
10
5.20329
20
-3.64975
11
5.20184
21
-3.65094
0
LINE
8
BLACK
6
CONTINUOUS
10
5.20184
20
-3.65094
11
5.20018
21
-3.65183
0
LINE
8
BLACK
6
CONTINUOUS
10
5.20018
20
-3.65183
11
5.19838
21
-3.65237
0
LINE
8
BLACK
6
CONTINUOUS
10
5.19838
20
-3.65237
11
5.19651
21
-3.65256
0
LINE
8
BLACK
6
CONTINUOUS
10
5.19651
20
-3.65256
11
5.17731
21
-3.65256
0
LINE
8
BLACK
6
CONTINUOUS
10
5.17731
20
-3.65256
11
5.17544
21
-3.65237
0
LINE
8
BLACK
6
CONTINUOUS
10
5.17544
20
-3.65237
11
5.17364
21
-3.65183
0
LINE
8
BLACK
6
CONTINUOUS
10
5.17364
20
-3.65183
11
5.17198
21
-3.65094
0
LINE
8
BLACK
6
CONTINUOUS
10
5.17198
20
-3.65094
11
5.17053
21
-3.64975
0
LINE
8
BLACK
6
CONTINUOUS
10
5.17053
20
-3.64975
11
5.16933
21
-3.64829
0
LINE
8
BLACK
6
CONTINUOUS
10
5.16933
20
-3.64829
11
5.16845
21
-3.64663
0
LINE
8
BLACK
6
CONTINUOUS
10
5.16845
20
-3.64663
11
5.1679
21
-3.64483
0
LINE
8
BLACK
6
CONTINUOUS
10
5.1679
20
-3.64483
11
5.16772
21
-3.64296
0
LINE
8
BLACK
6
CONTINUOUS
10
5.16772
20
-3.64296
11
5.16772
21
-3.60704
0
LINE
8
BLACK
6
CONTINUOUS
10
5.16772
20
-3.60704
11
5.1679
21
-3.60517
0
LINE
8
BLACK
6
CONTINUOUS
10
5.1679
20
-3.60517
11
5.16845
21
-3.60336
0
LINE
8
BLACK
6
CONTINUOUS
10
5.16845
20
-3.60336
11
5.16933
21
-3.60171
0
LINE
8
BLACK
6
CONTINUOUS
10
5.16933
20
-3.60171
11
5.17053
21
-3.60025
0
LINE
8
BLACK
6
CONTINUOUS
10
5.17053
20
-3.60025
11
5.17198
21
-3.59906
0
LINE
8
BLACK
6
CONTINUOUS
10
5.17198
20
-3.59906
11
5.17364
21
-3.59817
0
LINE
8
BLACK
6
CONTINUOUS
10
5.17364
20
-3.59817
11
5.17544
21
-3.59763
0
LINE
8
BLACK
6
CONTINUOUS
10
5.17544
20
-3.59763
11
5.17731
21
-3.59744
0
LINE
8
BLACK
6
CONTINUOUS
10
5.17731
20
-3.59744
11
5.19651
21
-3.59744
0
LINE
8
BLACK
6
CONTINUOUS
10
5.19651
20
-3.59744
11
5.19838
21
-3.59763
  0
ENDSEC
  0
EOF
