%TF.GenerationSoftware,KiCad,Pcbnew,5.1.9+dfsg1-1~bpo10+1*%
%TF.CreationDate,Date%
%TF.ProjectId,test,74657374-2e6b-4696-9361-645f70636258,v2*%
%TF.SameCoordinates,Original*%
%TF.FileFunction,Soldermask,Top*%
%TF.FilePolarity,Negative*%
%FSLAX46Y46*%
G04 Gerber Fmt 4.6, Leading zero omitted, Abs format (unit mm)*
G04 Created by KiCad*
%MOMM*%
%LPD*%
G01*
G04 APERTURE LIST*
%ADD10C,0.100000*%
G04 APERTURE END LIST*
%TO.C,R2*%
G36*
G01*
X131209000Y-97636750D02*
X131209000Y-96673250D01*
G75*
G02*
X131478250Y-96404000I269250J0D01*
G01*
X132016750Y-96404000D01*
G75*
G02*
X132286000Y-96673250I0J-269250D01*
G01*
X132286000Y-97636750D01*
G75*
G02*
X132016750Y-97906000I-269250J0D01*
G01*
X131478250Y-97906000D01*
G75*
G02*
X131209000Y-97636750I0J269250D01*
G01*
G37*
G36*
G01*
X129334000Y-97636750D02*
X129334000Y-96673250D01*
G75*
G02*
X129603250Y-96404000I269250J0D01*
G01*
X130141750Y-96404000D01*
G75*
G02*
X130411000Y-96673250I0J-269250D01*
G01*
X130411000Y-97636750D01*
G75*
G02*
X130141750Y-97906000I-269250J0D01*
G01*
X129603250Y-97906000D01*
G75*
G02*
X129334000Y-97636750I0J269250D01*
G01*
G37*
%TD*%
%TO.C,R1*%
G36*
G01*
X131209000Y-92556750D02*
X131209000Y-91593250D01*
G75*
G02*
X131478250Y-91324000I269250J0D01*
G01*
X132016750Y-91324000D01*
G75*
G02*
X132286000Y-91593250I0J-269250D01*
G01*
X132286000Y-92556750D01*
G75*
G02*
X132016750Y-92826000I-269250J0D01*
G01*
X131478250Y-92826000D01*
G75*
G02*
X131209000Y-92556750I0J269250D01*
G01*
G37*
G36*
G01*
X129334000Y-92556750D02*
X129334000Y-91593250D01*
G75*
G02*
X129603250Y-91324000I269250J0D01*
G01*
X130141750Y-91324000D01*
G75*
G02*
X130411000Y-91593250I0J-269250D01*
G01*
X130411000Y-92556750D01*
G75*
G02*
X130141750Y-92826000I-269250J0D01*
G01*
X129603250Y-92826000D01*
G75*
G02*
X129334000Y-92556750I0J269250D01*
G01*
G37*
%TD*%
%TO.C,U2*%
G36*
G01*
X123284000Y-94310500D02*
X123284000Y-93559500D01*
G75*
G02*
X123384500Y-93459000I100500J0D01*
G01*
X123585500Y-93459000D01*
G75*
G02*
X123686000Y-93559500I0J-100500D01*
G01*
X123686000Y-94310500D01*
G75*
G02*
X123585500Y-94411000I-100500J0D01*
G01*
X123384500Y-94411000D01*
G75*
G02*
X123284000Y-94310500I0J100500D01*
G01*
G37*
G36*
G01*
X123934000Y-94310500D02*
X123934000Y-93559500D01*
G75*
G02*
X124034500Y-93459000I100500J0D01*
G01*
X124235500Y-93459000D01*
G75*
G02*
X124336000Y-93559500I0J-100500D01*
G01*
X124336000Y-94310500D01*
G75*
G02*
X124235500Y-94411000I-100500J0D01*
G01*
X124034500Y-94411000D01*
G75*
G02*
X123934000Y-94310500I0J100500D01*
G01*
G37*
G36*
G01*
X124584000Y-94310500D02*
X124584000Y-93559500D01*
G75*
G02*
X124684500Y-93459000I100500J0D01*
G01*
X124885500Y-93459000D01*
G75*
G02*
X124986000Y-93559500I0J-100500D01*
G01*
X124986000Y-94310500D01*
G75*
G02*
X124885500Y-94411000I-100500J0D01*
G01*
X124684500Y-94411000D01*
G75*
G02*
X124584000Y-94310500I0J100500D01*
G01*
G37*
G36*
G01*
X125234000Y-94310500D02*
X125234000Y-93559500D01*
G75*
G02*
X125334500Y-93459000I100500J0D01*
G01*
X125535500Y-93459000D01*
G75*
G02*
X125636000Y-93559500I0J-100500D01*
G01*
X125636000Y-94310500D01*
G75*
G02*
X125535500Y-94411000I-100500J0D01*
G01*
X125334500Y-94411000D01*
G75*
G02*
X125234000Y-94310500I0J100500D01*
G01*
G37*
G36*
G01*
X125934000Y-95010500D02*
X125934000Y-94809500D01*
G75*
G02*
X126034500Y-94709000I100500J0D01*
G01*
X126785500Y-94709000D01*
G75*
G02*
X126886000Y-94809500I0J-100500D01*
G01*
X126886000Y-95010500D01*
G75*
G02*
X126785500Y-95111000I-100500J0D01*
G01*
X126034500Y-95111000D01*
G75*
G02*
X125934000Y-95010500I0J100500D01*
G01*
G37*
G36*
G01*
X125934000Y-95660500D02*
X125934000Y-95459500D01*
G75*
G02*
X126034500Y-95359000I100500J0D01*
G01*
X126785500Y-95359000D01*
G75*
G02*
X126886000Y-95459500I0J-100500D01*
G01*
X126886000Y-95660500D01*
G75*
G02*
X126785500Y-95761000I-100500J0D01*
G01*
X126034500Y-95761000D01*
G75*
G02*
X125934000Y-95660500I0J100500D01*
G01*
G37*
G36*
G01*
X125934000Y-96310500D02*
X125934000Y-96109500D01*
G75*
G02*
X126034500Y-96009000I100500J0D01*
G01*
X126785500Y-96009000D01*
G75*
G02*
X126886000Y-96109500I0J-100500D01*
G01*
X126886000Y-96310500D01*
G75*
G02*
X126785500Y-96411000I-100500J0D01*
G01*
X126034500Y-96411000D01*
G75*
G02*
X125934000Y-96310500I0J100500D01*
G01*
G37*
G36*
G01*
X125934000Y-96960500D02*
X125934000Y-96759500D01*
G75*
G02*
X126034500Y-96659000I100500J0D01*
G01*
X126785500Y-96659000D01*
G75*
G02*
X126886000Y-96759500I0J-100500D01*
G01*
X126886000Y-96960500D01*
G75*
G02*
X126785500Y-97061000I-100500J0D01*
G01*
X126034500Y-97061000D01*
G75*
G02*
X125934000Y-96960500I0J100500D01*
G01*
G37*
G36*
G01*
X125234000Y-98210500D02*
X125234000Y-97459500D01*
G75*
G02*
X125334500Y-97359000I100500J0D01*
G01*
X125535500Y-97359000D01*
G75*
G02*
X125636000Y-97459500I0J-100500D01*
G01*
X125636000Y-98210500D01*
G75*
G02*
X125535500Y-98311000I-100500J0D01*
G01*
X125334500Y-98311000D01*
G75*
G02*
X125234000Y-98210500I0J100500D01*
G01*
G37*
G36*
G01*
X124584000Y-98210500D02*
X124584000Y-97459500D01*
G75*
G02*
X124684500Y-97359000I100500J0D01*
G01*
X124885500Y-97359000D01*
G75*
G02*
X124986000Y-97459500I0J-100500D01*
G01*
X124986000Y-98210500D01*
G75*
G02*
X124885500Y-98311000I-100500J0D01*
G01*
X124684500Y-98311000D01*
G75*
G02*
X124584000Y-98210500I0J100500D01*
G01*
G37*
G36*
G01*
X123934000Y-98210500D02*
X123934000Y-97459500D01*
G75*
G02*
X124034500Y-97359000I100500J0D01*
G01*
X124235500Y-97359000D01*
G75*
G02*
X124336000Y-97459500I0J-100500D01*
G01*
X124336000Y-98210500D01*
G75*
G02*
X124235500Y-98311000I-100500J0D01*
G01*
X124034500Y-98311000D01*
G75*
G02*
X123934000Y-98210500I0J100500D01*
G01*
G37*
G36*
G01*
X123284000Y-98210500D02*
X123284000Y-97459500D01*
G75*
G02*
X123384500Y-97359000I100500J0D01*
G01*
X123585500Y-97359000D01*
G75*
G02*
X123686000Y-97459500I0J-100500D01*
G01*
X123686000Y-98210500D01*
G75*
G02*
X123585500Y-98311000I-100500J0D01*
G01*
X123384500Y-98311000D01*
G75*
G02*
X123284000Y-98210500I0J100500D01*
G01*
G37*
G36*
G01*
X122034000Y-96960500D02*
X122034000Y-96759500D01*
G75*
G02*
X122134500Y-96659000I100500J0D01*
G01*
X122885500Y-96659000D01*
G75*
G02*
X122986000Y-96759500I0J-100500D01*
G01*
X122986000Y-96960500D01*
G75*
G02*
X122885500Y-97061000I-100500J0D01*
G01*
X122134500Y-97061000D01*
G75*
G02*
X122034000Y-96960500I0J100500D01*
G01*
G37*
G36*
G01*
X122034000Y-96310500D02*
X122034000Y-96109500D01*
G75*
G02*
X122134500Y-96009000I100500J0D01*
G01*
X122885500Y-96009000D01*
G75*
G02*
X122986000Y-96109500I0J-100500D01*
G01*
X122986000Y-96310500D01*
G75*
G02*
X122885500Y-96411000I-100500J0D01*
G01*
X122134500Y-96411000D01*
G75*
G02*
X122034000Y-96310500I0J100500D01*
G01*
G37*
G36*
G01*
X122034000Y-95660500D02*
X122034000Y-95459500D01*
G75*
G02*
X122134500Y-95359000I100500J0D01*
G01*
X122885500Y-95359000D01*
G75*
G02*
X122986000Y-95459500I0J-100500D01*
G01*
X122986000Y-95660500D01*
G75*
G02*
X122885500Y-95761000I-100500J0D01*
G01*
X122134500Y-95761000D01*
G75*
G02*
X122034000Y-95660500I0J100500D01*
G01*
G37*
G36*
G01*
X122034000Y-95010500D02*
X122034000Y-94809500D01*
G75*
G02*
X122134500Y-94709000I100500J0D01*
G01*
X122885500Y-94709000D01*
G75*
G02*
X122986000Y-94809500I0J-100500D01*
G01*
X122986000Y-95010500D01*
G75*
G02*
X122885500Y-95111000I-100500J0D01*
G01*
X122134500Y-95111000D01*
G75*
G02*
X122034000Y-95010500I0J100500D01*
G01*
G37*
G36*
G01*
X123359000Y-96723858D02*
X123359000Y-95046142D01*
G75*
G02*
X123621142Y-94784000I262142J0D01*
G01*
X125298858Y-94784000D01*
G75*
G02*
X125561000Y-95046142I0J-262142D01*
G01*
X125561000Y-96723858D01*
G75*
G02*
X125298858Y-96986000I-262142J0D01*
G01*
X123621142Y-96986000D01*
G75*
G02*
X123359000Y-96723858I0J262142D01*
G01*
G37*
%TD*%
%TO.C,U1*%
G36*
G01*
X130059000Y-104150001D02*
X130059000Y-103499999D01*
G75*
G02*
X130109999Y-103449000I50999J0D01*
G01*
X131170001Y-103449000D01*
G75*
G02*
X131221000Y-103499999I0J-50999D01*
G01*
X131221000Y-104150001D01*
G75*
G02*
X131170001Y-104201000I-50999J0D01*
G01*
X130109999Y-104201000D01*
G75*
G02*
X130059000Y-104150001I0J50999D01*
G01*
G37*
G36*
G01*
X130059000Y-106050001D02*
X130059000Y-105399999D01*
G75*
G02*
X130109999Y-105349000I50999J0D01*
G01*
X131170001Y-105349000D01*
G75*
G02*
X131221000Y-105399999I0J-50999D01*
G01*
X131221000Y-106050001D01*
G75*
G02*
X131170001Y-106101000I-50999J0D01*
G01*
X130109999Y-106101000D01*
G75*
G02*
X130059000Y-106050001I0J50999D01*
G01*
G37*
G36*
G01*
X127859000Y-106050001D02*
X127859000Y-105399999D01*
G75*
G02*
X127909999Y-105349000I50999J0D01*
G01*
X128970001Y-105349000D01*
G75*
G02*
X129021000Y-105399999I0J-50999D01*
G01*
X129021000Y-106050001D01*
G75*
G02*
X128970001Y-106101000I-50999J0D01*
G01*
X127909999Y-106101000D01*
G75*
G02*
X127859000Y-106050001I0J50999D01*
G01*
G37*
G36*
G01*
X127859000Y-105100001D02*
X127859000Y-104449999D01*
G75*
G02*
X127909999Y-104399000I50999J0D01*
G01*
X128970001Y-104399000D01*
G75*
G02*
X129021000Y-104449999I0J-50999D01*
G01*
X129021000Y-105100001D01*
G75*
G02*
X128970001Y-105151000I-50999J0D01*
G01*
X127909999Y-105151000D01*
G75*
G02*
X127859000Y-105100001I0J50999D01*
G01*
G37*
G36*
G01*
X127859000Y-104150001D02*
X127859000Y-103499999D01*
G75*
G02*
X127909999Y-103449000I50999J0D01*
G01*
X128970001Y-103449000D01*
G75*
G02*
X129021000Y-103499999I0J-50999D01*
G01*
X129021000Y-104150001D01*
G75*
G02*
X128970001Y-104201000I-50999J0D01*
G01*
X127909999Y-104201000D01*
G75*
G02*
X127859000Y-104150001I0J50999D01*
G01*
G37*
%TD*%
%TO.C,C2*%
G36*
G01*
X135275600Y-104051000D02*
X133964400Y-104051000D01*
G75*
G02*
X133694000Y-103780600I0J270400D01*
G01*
X133694000Y-102969400D01*
G75*
G02*
X133964400Y-102699000I270400J0D01*
G01*
X135275600Y-102699000D01*
G75*
G02*
X135546000Y-102969400I0J-270400D01*
G01*
X135546000Y-103780600D01*
G75*
G02*
X135275600Y-104051000I-270400J0D01*
G01*
G37*
G36*
G01*
X135275600Y-106851000D02*
X133964400Y-106851000D01*
G75*
G02*
X133694000Y-106580600I0J270400D01*
G01*
X133694000Y-105769400D01*
G75*
G02*
X133964400Y-105499000I270400J0D01*
G01*
X135275600Y-105499000D01*
G75*
G02*
X135546000Y-105769400I0J-270400D01*
G01*
X135546000Y-106580600D01*
G75*
G02*
X135275600Y-106851000I-270400J0D01*
G01*
G37*
%TD*%
%TO.C,C1*%
G36*
G01*
X124503828Y-103926000D02*
X123146172Y-103926000D01*
G75*
G02*
X122874000Y-103653828I0J272172D01*
G01*
X122874000Y-102946172D01*
G75*
G02*
X123146172Y-102674000I272172J0D01*
G01*
X124503828Y-102674000D01*
G75*
G02*
X124776000Y-102946172I0J-272172D01*
G01*
X124776000Y-103653828D01*
G75*
G02*
X124503828Y-103926000I-272172J0D01*
G01*
G37*
G36*
G01*
X124503828Y-106876000D02*
X123146172Y-106876000D01*
G75*
G02*
X122874000Y-106603828I0J272172D01*
G01*
X122874000Y-105896172D01*
G75*
G02*
X123146172Y-105624000I272172J0D01*
G01*
X124503828Y-105624000D01*
G75*
G02*
X124776000Y-105896172I0J-272172D01*
G01*
X124776000Y-106603828D01*
G75*
G02*
X124503828Y-106876000I-272172J0D01*
G01*
G37*
%TD*%
D10*
G36*
X129022732Y-105150000D02*
G01*
X129023000Y-105151000D01*
X129023000Y-105349000D01*
X129022000Y-105350732D01*
X129021000Y-105351000D01*
X127859000Y-105351000D01*
X127857268Y-105350000D01*
X127857000Y-105349000D01*
X127857000Y-105151000D01*
X127858000Y-105149268D01*
X127859000Y-105149000D01*
X129021000Y-105149000D01*
X129022732Y-105150000D01*
G37*
G36*
X129022732Y-104200000D02*
G01*
X129023000Y-104201000D01*
X129023000Y-104399000D01*
X129022000Y-104400732D01*
X129021000Y-104401000D01*
X127859000Y-104401000D01*
X127857268Y-104400000D01*
X127857000Y-104399000D01*
X127857000Y-104201000D01*
X127858000Y-104199268D01*
X127859000Y-104199000D01*
X129021000Y-104199000D01*
X129022732Y-104200000D01*
G37*
G36*
X124942056Y-97357010D02*
G01*
X124955491Y-97358333D01*
X124955876Y-97358409D01*
X124962891Y-97360537D01*
X124963253Y-97360687D01*
X124969719Y-97364144D01*
X124970045Y-97364362D01*
X124975711Y-97369012D01*
X124975988Y-97369289D01*
X124980638Y-97374955D01*
X124980856Y-97375281D01*
X124984313Y-97381747D01*
X124984463Y-97382109D01*
X124986591Y-97389124D01*
X124986667Y-97389509D01*
X124987583Y-97398808D01*
X124992307Y-97422560D01*
X125001534Y-97444834D01*
X125014928Y-97464881D01*
X125031975Y-97481928D01*
X125052023Y-97495323D01*
X125074297Y-97504550D01*
X125097947Y-97509254D01*
X125122053Y-97509254D01*
X125145703Y-97504550D01*
X125167977Y-97495323D01*
X125188024Y-97481929D01*
X125205071Y-97464882D01*
X125218466Y-97444834D01*
X125227693Y-97422560D01*
X125232417Y-97398808D01*
X125233333Y-97389509D01*
X125233409Y-97389124D01*
X125235537Y-97382109D01*
X125235687Y-97381747D01*
X125239144Y-97375281D01*
X125239362Y-97374955D01*
X125244012Y-97369289D01*
X125244289Y-97369012D01*
X125249955Y-97364362D01*
X125250281Y-97364144D01*
X125256747Y-97360687D01*
X125257109Y-97360537D01*
X125264124Y-97358409D01*
X125264509Y-97358333D01*
X125277944Y-97357010D01*
X125278140Y-97357000D01*
X125334500Y-97357000D01*
X125336232Y-97358000D01*
X125336232Y-97360000D01*
X125334696Y-97360990D01*
X125315288Y-97362901D01*
X125296809Y-97368507D01*
X125279781Y-97377608D01*
X125264857Y-97389857D01*
X125252608Y-97404781D01*
X125243507Y-97421809D01*
X125237901Y-97440288D01*
X125236000Y-97459594D01*
X125236000Y-98210406D01*
X125237901Y-98229712D01*
X125243507Y-98248191D01*
X125252608Y-98265219D01*
X125264857Y-98280143D01*
X125279781Y-98292392D01*
X125296809Y-98301493D01*
X125315288Y-98307099D01*
X125334696Y-98309010D01*
X125336322Y-98310175D01*
X125336126Y-98312165D01*
X125334500Y-98313000D01*
X125278140Y-98313000D01*
X125277944Y-98312990D01*
X125264509Y-98311667D01*
X125264124Y-98311591D01*
X125257109Y-98309463D01*
X125256747Y-98309313D01*
X125250281Y-98305856D01*
X125249955Y-98305638D01*
X125244289Y-98300988D01*
X125244012Y-98300711D01*
X125239362Y-98295045D01*
X125239144Y-98294719D01*
X125235687Y-98288253D01*
X125235537Y-98287891D01*
X125233409Y-98280876D01*
X125233333Y-98280491D01*
X125232417Y-98271192D01*
X125227693Y-98247440D01*
X125218466Y-98225166D01*
X125205072Y-98205119D01*
X125188025Y-98188072D01*
X125167977Y-98174677D01*
X125145703Y-98165450D01*
X125122053Y-98160746D01*
X125097947Y-98160746D01*
X125074297Y-98165450D01*
X125052023Y-98174677D01*
X125031976Y-98188071D01*
X125014929Y-98205118D01*
X125001534Y-98225166D01*
X124992307Y-98247440D01*
X124987583Y-98271192D01*
X124986667Y-98280491D01*
X124986591Y-98280876D01*
X124984463Y-98287891D01*
X124984313Y-98288253D01*
X124980856Y-98294719D01*
X124980638Y-98295045D01*
X124975988Y-98300711D01*
X124975711Y-98300988D01*
X124970045Y-98305638D01*
X124969719Y-98305856D01*
X124963253Y-98309313D01*
X124962891Y-98309463D01*
X124955876Y-98311591D01*
X124955491Y-98311667D01*
X124942056Y-98312990D01*
X124941860Y-98313000D01*
X124885500Y-98313000D01*
X124883768Y-98312000D01*
X124883768Y-98310000D01*
X124885304Y-98309010D01*
X124904712Y-98307099D01*
X124923191Y-98301493D01*
X124940219Y-98292392D01*
X124955143Y-98280143D01*
X124967392Y-98265219D01*
X124976493Y-98248191D01*
X124982099Y-98229712D01*
X124984000Y-98210406D01*
X124984000Y-97459594D01*
X124982099Y-97440288D01*
X124976493Y-97421809D01*
X124967392Y-97404781D01*
X124955143Y-97389857D01*
X124940219Y-97377608D01*
X124923191Y-97368507D01*
X124904712Y-97362901D01*
X124885304Y-97360990D01*
X124883678Y-97359825D01*
X124883874Y-97357835D01*
X124885500Y-97357000D01*
X124941860Y-97357000D01*
X124942056Y-97357010D01*
G37*
G36*
X123642056Y-97357010D02*
G01*
X123655491Y-97358333D01*
X123655876Y-97358409D01*
X123662891Y-97360537D01*
X123663253Y-97360687D01*
X123669719Y-97364144D01*
X123670045Y-97364362D01*
X123675711Y-97369012D01*
X123675988Y-97369289D01*
X123680638Y-97374955D01*
X123680856Y-97375281D01*
X123684313Y-97381747D01*
X123684463Y-97382109D01*
X123686591Y-97389124D01*
X123686667Y-97389509D01*
X123687583Y-97398808D01*
X123692307Y-97422560D01*
X123701534Y-97444834D01*
X123714928Y-97464881D01*
X123731975Y-97481928D01*
X123752023Y-97495323D01*
X123774297Y-97504550D01*
X123797947Y-97509254D01*
X123822053Y-97509254D01*
X123845703Y-97504550D01*
X123867977Y-97495323D01*
X123888024Y-97481929D01*
X123905071Y-97464882D01*
X123918466Y-97444834D01*
X123927693Y-97422560D01*
X123932417Y-97398808D01*
X123933333Y-97389509D01*
X123933409Y-97389124D01*
X123935537Y-97382109D01*
X123935687Y-97381747D01*
X123939144Y-97375281D01*
X123939362Y-97374955D01*
X123944012Y-97369289D01*
X123944289Y-97369012D01*
X123949955Y-97364362D01*
X123950281Y-97364144D01*
X123956747Y-97360687D01*
X123957109Y-97360537D01*
X123964124Y-97358409D01*
X123964509Y-97358333D01*
X123977944Y-97357010D01*
X123978140Y-97357000D01*
X124034500Y-97357000D01*
X124036232Y-97358000D01*
X124036232Y-97360000D01*
X124034696Y-97360990D01*
X124015288Y-97362901D01*
X123996809Y-97368507D01*
X123979781Y-97377608D01*
X123964857Y-97389857D01*
X123952608Y-97404781D01*
X123943507Y-97421809D01*
X123937901Y-97440288D01*
X123936000Y-97459594D01*
X123936000Y-98210406D01*
X123937901Y-98229712D01*
X123943507Y-98248191D01*
X123952608Y-98265219D01*
X123964857Y-98280143D01*
X123979781Y-98292392D01*
X123996809Y-98301493D01*
X124015288Y-98307099D01*
X124034696Y-98309010D01*
X124036322Y-98310175D01*
X124036126Y-98312165D01*
X124034500Y-98313000D01*
X123978140Y-98313000D01*
X123977944Y-98312990D01*
X123964509Y-98311667D01*
X123964124Y-98311591D01*
X123957109Y-98309463D01*
X123956747Y-98309313D01*
X123950281Y-98305856D01*
X123949955Y-98305638D01*
X123944289Y-98300988D01*
X123944012Y-98300711D01*
X123939362Y-98295045D01*
X123939144Y-98294719D01*
X123935687Y-98288253D01*
X123935537Y-98287891D01*
X123933409Y-98280876D01*
X123933333Y-98280491D01*
X123932417Y-98271192D01*
X123927693Y-98247440D01*
X123918466Y-98225166D01*
X123905072Y-98205119D01*
X123888025Y-98188072D01*
X123867977Y-98174677D01*
X123845703Y-98165450D01*
X123822053Y-98160746D01*
X123797947Y-98160746D01*
X123774297Y-98165450D01*
X123752023Y-98174677D01*
X123731976Y-98188071D01*
X123714929Y-98205118D01*
X123701534Y-98225166D01*
X123692307Y-98247440D01*
X123687583Y-98271192D01*
X123686667Y-98280491D01*
X123686591Y-98280876D01*
X123684463Y-98287891D01*
X123684313Y-98288253D01*
X123680856Y-98294719D01*
X123680638Y-98295045D01*
X123675988Y-98300711D01*
X123675711Y-98300988D01*
X123670045Y-98305638D01*
X123669719Y-98305856D01*
X123663253Y-98309313D01*
X123662891Y-98309463D01*
X123655876Y-98311591D01*
X123655491Y-98311667D01*
X123642056Y-98312990D01*
X123641860Y-98313000D01*
X123585500Y-98313000D01*
X123583768Y-98312000D01*
X123583768Y-98310000D01*
X123585304Y-98309010D01*
X123604712Y-98307099D01*
X123623191Y-98301493D01*
X123640219Y-98292392D01*
X123655143Y-98280143D01*
X123667392Y-98265219D01*
X123676493Y-98248191D01*
X123682099Y-98229712D01*
X123684000Y-98210406D01*
X123684000Y-97459594D01*
X123682099Y-97440288D01*
X123676493Y-97421809D01*
X123667392Y-97404781D01*
X123655143Y-97389857D01*
X123640219Y-97377608D01*
X123623191Y-97368507D01*
X123604712Y-97362901D01*
X123585304Y-97360990D01*
X123583678Y-97359825D01*
X123583874Y-97357835D01*
X123585500Y-97357000D01*
X123641860Y-97357000D01*
X123642056Y-97357010D01*
G37*
G36*
X124292056Y-97357010D02*
G01*
X124305491Y-97358333D01*
X124305876Y-97358409D01*
X124312891Y-97360537D01*
X124313253Y-97360687D01*
X124319719Y-97364144D01*
X124320045Y-97364362D01*
X124325711Y-97369012D01*
X124325988Y-97369289D01*
X124330638Y-97374955D01*
X124330856Y-97375281D01*
X124334313Y-97381747D01*
X124334463Y-97382109D01*
X124336591Y-97389124D01*
X124336667Y-97389509D01*
X124337583Y-97398808D01*
X124342307Y-97422560D01*
X124351534Y-97444834D01*
X124364928Y-97464881D01*
X124381975Y-97481928D01*
X124402023Y-97495323D01*
X124424297Y-97504550D01*
X124447947Y-97509254D01*
X124472053Y-97509254D01*
X124495703Y-97504550D01*
X124517977Y-97495323D01*
X124538024Y-97481929D01*
X124555071Y-97464882D01*
X124568466Y-97444834D01*
X124577693Y-97422560D01*
X124582417Y-97398808D01*
X124583333Y-97389509D01*
X124583409Y-97389124D01*
X124585537Y-97382109D01*
X124585687Y-97381747D01*
X124589144Y-97375281D01*
X124589362Y-97374955D01*
X124594012Y-97369289D01*
X124594289Y-97369012D01*
X124599955Y-97364362D01*
X124600281Y-97364144D01*
X124606747Y-97360687D01*
X124607109Y-97360537D01*
X124614124Y-97358409D01*
X124614509Y-97358333D01*
X124627944Y-97357010D01*
X124628140Y-97357000D01*
X124684500Y-97357000D01*
X124686232Y-97358000D01*
X124686232Y-97360000D01*
X124684696Y-97360990D01*
X124665288Y-97362901D01*
X124646809Y-97368507D01*
X124629781Y-97377608D01*
X124614857Y-97389857D01*
X124602608Y-97404781D01*
X124593507Y-97421809D01*
X124587901Y-97440288D01*
X124586000Y-97459594D01*
X124586000Y-98210406D01*
X124587901Y-98229712D01*
X124593507Y-98248191D01*
X124602608Y-98265219D01*
X124614857Y-98280143D01*
X124629781Y-98292392D01*
X124646809Y-98301493D01*
X124665288Y-98307099D01*
X124684696Y-98309010D01*
X124686322Y-98310175D01*
X124686126Y-98312165D01*
X124684500Y-98313000D01*
X124628140Y-98313000D01*
X124627944Y-98312990D01*
X124614509Y-98311667D01*
X124614124Y-98311591D01*
X124607109Y-98309463D01*
X124606747Y-98309313D01*
X124600281Y-98305856D01*
X124599955Y-98305638D01*
X124594289Y-98300988D01*
X124594012Y-98300711D01*
X124589362Y-98295045D01*
X124589144Y-98294719D01*
X124585687Y-98288253D01*
X124585537Y-98287891D01*
X124583409Y-98280876D01*
X124583333Y-98280491D01*
X124582417Y-98271192D01*
X124577693Y-98247440D01*
X124568466Y-98225166D01*
X124555072Y-98205119D01*
X124538025Y-98188072D01*
X124517977Y-98174677D01*
X124495703Y-98165450D01*
X124472053Y-98160746D01*
X124447947Y-98160746D01*
X124424297Y-98165450D01*
X124402023Y-98174677D01*
X124381976Y-98188071D01*
X124364929Y-98205118D01*
X124351534Y-98225166D01*
X124342307Y-98247440D01*
X124337583Y-98271192D01*
X124336667Y-98280491D01*
X124336591Y-98280876D01*
X124334463Y-98287891D01*
X124334313Y-98288253D01*
X124330856Y-98294719D01*
X124330638Y-98295045D01*
X124325988Y-98300711D01*
X124325711Y-98300988D01*
X124320045Y-98305638D01*
X124319719Y-98305856D01*
X124313253Y-98309313D01*
X124312891Y-98309463D01*
X124305876Y-98311591D01*
X124305491Y-98311667D01*
X124292056Y-98312990D01*
X124291860Y-98313000D01*
X124235500Y-98313000D01*
X124233768Y-98312000D01*
X124233768Y-98310000D01*
X124235304Y-98309010D01*
X124254712Y-98307099D01*
X124273191Y-98301493D01*
X124290219Y-98292392D01*
X124305143Y-98280143D01*
X124317392Y-98265219D01*
X124326493Y-98248191D01*
X124332099Y-98229712D01*
X124334000Y-98210406D01*
X124334000Y-97459594D01*
X124332099Y-97440288D01*
X124326493Y-97421809D01*
X124317392Y-97404781D01*
X124305143Y-97389857D01*
X124290219Y-97377608D01*
X124273191Y-97368507D01*
X124254712Y-97362901D01*
X124235304Y-97360990D01*
X124233678Y-97359825D01*
X124233874Y-97357835D01*
X124235500Y-97357000D01*
X124291860Y-97357000D01*
X124292056Y-97357010D01*
G37*
G36*
X125562165Y-96722232D02*
G01*
X125563000Y-96723858D01*
X125563000Y-96812955D01*
X125562990Y-96813151D01*
X125559190Y-96851733D01*
X125559114Y-96852118D01*
X125549650Y-96883317D01*
X125549500Y-96883679D01*
X125534132Y-96912430D01*
X125533914Y-96912756D01*
X125513233Y-96937956D01*
X125512956Y-96938233D01*
X125487756Y-96958914D01*
X125487430Y-96959132D01*
X125458679Y-96974500D01*
X125458317Y-96974650D01*
X125427118Y-96984114D01*
X125426733Y-96984190D01*
X125388151Y-96987990D01*
X125387955Y-96988000D01*
X125298858Y-96988000D01*
X125297126Y-96987000D01*
X125297126Y-96985000D01*
X125298662Y-96984010D01*
X125349604Y-96978993D01*
X125398406Y-96964189D01*
X125443380Y-96940150D01*
X125482799Y-96907799D01*
X125515150Y-96868380D01*
X125539189Y-96823406D01*
X125553993Y-96774604D01*
X125559010Y-96723662D01*
X125560175Y-96722036D01*
X125562165Y-96722232D01*
G37*
G36*
X123360990Y-96723662D02*
G01*
X123366007Y-96774604D01*
X123380811Y-96823406D01*
X123404850Y-96868380D01*
X123437201Y-96907799D01*
X123476620Y-96940150D01*
X123521594Y-96964189D01*
X123570396Y-96978993D01*
X123621338Y-96984010D01*
X123622964Y-96985175D01*
X123622768Y-96987165D01*
X123621142Y-96988000D01*
X123532045Y-96988000D01*
X123531849Y-96987990D01*
X123493267Y-96984190D01*
X123492882Y-96984114D01*
X123461683Y-96974650D01*
X123461321Y-96974500D01*
X123432570Y-96959132D01*
X123432244Y-96958914D01*
X123407044Y-96938233D01*
X123406767Y-96937956D01*
X123386086Y-96912756D01*
X123385868Y-96912430D01*
X123370500Y-96883679D01*
X123370350Y-96883317D01*
X123360886Y-96852118D01*
X123360810Y-96851733D01*
X123357010Y-96813151D01*
X123357000Y-96812955D01*
X123357000Y-96723858D01*
X123358000Y-96722126D01*
X123360000Y-96722126D01*
X123360990Y-96723662D01*
G37*
G36*
X126887165Y-96308874D02*
G01*
X126888000Y-96310500D01*
X126888000Y-96366860D01*
X126887990Y-96367056D01*
X126886667Y-96380491D01*
X126886591Y-96380876D01*
X126884463Y-96387891D01*
X126884313Y-96388253D01*
X126880856Y-96394719D01*
X126880638Y-96395045D01*
X126875988Y-96400711D01*
X126875711Y-96400988D01*
X126870045Y-96405638D01*
X126869719Y-96405856D01*
X126863253Y-96409313D01*
X126862891Y-96409463D01*
X126855876Y-96411591D01*
X126855491Y-96411667D01*
X126846192Y-96412583D01*
X126822440Y-96417307D01*
X126800166Y-96426534D01*
X126780119Y-96439928D01*
X126763072Y-96456975D01*
X126749677Y-96477023D01*
X126740450Y-96499297D01*
X126735746Y-96522947D01*
X126735746Y-96547053D01*
X126740450Y-96570703D01*
X126749677Y-96592977D01*
X126763071Y-96613024D01*
X126780118Y-96630071D01*
X126800166Y-96643466D01*
X126822440Y-96652693D01*
X126846192Y-96657417D01*
X126855491Y-96658333D01*
X126855876Y-96658409D01*
X126862891Y-96660537D01*
X126863253Y-96660687D01*
X126869719Y-96664144D01*
X126870045Y-96664362D01*
X126875711Y-96669012D01*
X126875988Y-96669289D01*
X126880638Y-96674955D01*
X126880856Y-96675281D01*
X126884313Y-96681747D01*
X126884463Y-96682109D01*
X126886591Y-96689124D01*
X126886667Y-96689509D01*
X126887990Y-96702944D01*
X126888000Y-96703140D01*
X126888000Y-96759500D01*
X126887000Y-96761232D01*
X126885000Y-96761232D01*
X126884010Y-96759696D01*
X126882099Y-96740288D01*
X126876493Y-96721809D01*
X126867392Y-96704781D01*
X126855143Y-96689857D01*
X126840219Y-96677608D01*
X126823191Y-96668507D01*
X126804712Y-96662901D01*
X126785406Y-96661000D01*
X126034594Y-96661000D01*
X126015288Y-96662901D01*
X125996809Y-96668507D01*
X125979781Y-96677608D01*
X125964857Y-96689857D01*
X125952608Y-96704781D01*
X125943507Y-96721809D01*
X125937901Y-96740288D01*
X125935990Y-96759696D01*
X125934825Y-96761322D01*
X125932835Y-96761126D01*
X125932000Y-96759500D01*
X125932000Y-96703140D01*
X125932010Y-96702944D01*
X125933333Y-96689509D01*
X125933409Y-96689124D01*
X125935537Y-96682109D01*
X125935687Y-96681747D01*
X125939144Y-96675281D01*
X125939362Y-96674955D01*
X125944012Y-96669289D01*
X125944289Y-96669012D01*
X125949955Y-96664362D01*
X125950281Y-96664144D01*
X125956747Y-96660687D01*
X125957109Y-96660537D01*
X125964124Y-96658409D01*
X125964509Y-96658333D01*
X125973808Y-96657417D01*
X125997560Y-96652693D01*
X126019834Y-96643466D01*
X126039881Y-96630072D01*
X126056928Y-96613025D01*
X126070323Y-96592977D01*
X126079550Y-96570703D01*
X126084254Y-96547053D01*
X126084254Y-96522947D01*
X126079550Y-96499297D01*
X126070323Y-96477023D01*
X126056929Y-96456976D01*
X126039882Y-96439929D01*
X126019834Y-96426534D01*
X125997560Y-96417307D01*
X125973808Y-96412583D01*
X125964509Y-96411667D01*
X125964124Y-96411591D01*
X125957109Y-96409463D01*
X125956747Y-96409313D01*
X125950281Y-96405856D01*
X125949955Y-96405638D01*
X125944289Y-96400988D01*
X125944012Y-96400711D01*
X125939362Y-96395045D01*
X125939144Y-96394719D01*
X125935687Y-96388253D01*
X125935537Y-96387891D01*
X125933409Y-96380876D01*
X125933333Y-96380491D01*
X125932010Y-96367056D01*
X125932000Y-96366860D01*
X125932000Y-96310500D01*
X125933000Y-96308768D01*
X125935000Y-96308768D01*
X125935990Y-96310304D01*
X125937901Y-96329712D01*
X125943507Y-96348191D01*
X125952608Y-96365219D01*
X125964857Y-96380143D01*
X125979781Y-96392392D01*
X125996809Y-96401493D01*
X126015288Y-96407099D01*
X126034594Y-96409000D01*
X126785406Y-96409000D01*
X126804712Y-96407099D01*
X126823191Y-96401493D01*
X126840219Y-96392392D01*
X126855143Y-96380143D01*
X126867392Y-96365219D01*
X126876493Y-96348191D01*
X126882099Y-96329712D01*
X126884010Y-96310304D01*
X126885175Y-96308678D01*
X126887165Y-96308874D01*
G37*
G36*
X122987165Y-96308874D02*
G01*
X122988000Y-96310500D01*
X122988000Y-96366860D01*
X122987990Y-96367056D01*
X122986667Y-96380491D01*
X122986591Y-96380876D01*
X122984463Y-96387891D01*
X122984313Y-96388253D01*
X122980856Y-96394719D01*
X122980638Y-96395045D01*
X122975988Y-96400711D01*
X122975711Y-96400988D01*
X122970045Y-96405638D01*
X122969719Y-96405856D01*
X122963253Y-96409313D01*
X122962891Y-96409463D01*
X122955876Y-96411591D01*
X122955491Y-96411667D01*
X122946192Y-96412583D01*
X122922440Y-96417307D01*
X122900166Y-96426534D01*
X122880119Y-96439928D01*
X122863072Y-96456975D01*
X122849677Y-96477023D01*
X122840450Y-96499297D01*
X122835746Y-96522947D01*
X122835746Y-96547053D01*
X122840450Y-96570703D01*
X122849677Y-96592977D01*
X122863071Y-96613024D01*
X122880118Y-96630071D01*
X122900166Y-96643466D01*
X122922440Y-96652693D01*
X122946192Y-96657417D01*
X122955491Y-96658333D01*
X122955876Y-96658409D01*
X122962891Y-96660537D01*
X122963253Y-96660687D01*
X122969719Y-96664144D01*
X122970045Y-96664362D01*
X122975711Y-96669012D01*
X122975988Y-96669289D01*
X122980638Y-96674955D01*
X122980856Y-96675281D01*
X122984313Y-96681747D01*
X122984463Y-96682109D01*
X122986591Y-96689124D01*
X122986667Y-96689509D01*
X122987990Y-96702944D01*
X122988000Y-96703140D01*
X122988000Y-96759500D01*
X122987000Y-96761232D01*
X122985000Y-96761232D01*
X122984010Y-96759696D01*
X122982099Y-96740288D01*
X122976493Y-96721809D01*
X122967392Y-96704781D01*
X122955143Y-96689857D01*
X122940219Y-96677608D01*
X122923191Y-96668507D01*
X122904712Y-96662901D01*
X122885406Y-96661000D01*
X122134594Y-96661000D01*
X122115288Y-96662901D01*
X122096809Y-96668507D01*
X122079781Y-96677608D01*
X122064857Y-96689857D01*
X122052608Y-96704781D01*
X122043507Y-96721809D01*
X122037901Y-96740288D01*
X122035990Y-96759696D01*
X122034825Y-96761322D01*
X122032835Y-96761126D01*
X122032000Y-96759500D01*
X122032000Y-96703140D01*
X122032010Y-96702944D01*
X122033333Y-96689509D01*
X122033409Y-96689124D01*
X122035537Y-96682109D01*
X122035687Y-96681747D01*
X122039144Y-96675281D01*
X122039362Y-96674955D01*
X122044012Y-96669289D01*
X122044289Y-96669012D01*
X122049955Y-96664362D01*
X122050281Y-96664144D01*
X122056747Y-96660687D01*
X122057109Y-96660537D01*
X122064124Y-96658409D01*
X122064509Y-96658333D01*
X122073808Y-96657417D01*
X122097560Y-96652693D01*
X122119834Y-96643466D01*
X122139881Y-96630072D01*
X122156928Y-96613025D01*
X122170323Y-96592977D01*
X122179550Y-96570703D01*
X122184254Y-96547053D01*
X122184254Y-96522947D01*
X122179550Y-96499297D01*
X122170323Y-96477023D01*
X122156929Y-96456976D01*
X122139882Y-96439929D01*
X122119834Y-96426534D01*
X122097560Y-96417307D01*
X122073808Y-96412583D01*
X122064509Y-96411667D01*
X122064124Y-96411591D01*
X122057109Y-96409463D01*
X122056747Y-96409313D01*
X122050281Y-96405856D01*
X122049955Y-96405638D01*
X122044289Y-96400988D01*
X122044012Y-96400711D01*
X122039362Y-96395045D01*
X122039144Y-96394719D01*
X122035687Y-96388253D01*
X122035537Y-96387891D01*
X122033409Y-96380876D01*
X122033333Y-96380491D01*
X122032010Y-96367056D01*
X122032000Y-96366860D01*
X122032000Y-96310500D01*
X122033000Y-96308768D01*
X122035000Y-96308768D01*
X122035990Y-96310304D01*
X122037901Y-96329712D01*
X122043507Y-96348191D01*
X122052608Y-96365219D01*
X122064857Y-96380143D01*
X122079781Y-96392392D01*
X122096809Y-96401493D01*
X122115288Y-96407099D01*
X122134594Y-96409000D01*
X122885406Y-96409000D01*
X122904712Y-96407099D01*
X122923191Y-96401493D01*
X122940219Y-96392392D01*
X122955143Y-96380143D01*
X122967392Y-96365219D01*
X122976493Y-96348191D01*
X122982099Y-96329712D01*
X122984010Y-96310304D01*
X122985175Y-96308678D01*
X122987165Y-96308874D01*
G37*
G36*
X126887165Y-95658874D02*
G01*
X126888000Y-95660500D01*
X126888000Y-95716860D01*
X126887990Y-95717056D01*
X126886667Y-95730491D01*
X126886591Y-95730876D01*
X126884463Y-95737891D01*
X126884313Y-95738253D01*
X126880856Y-95744719D01*
X126880638Y-95745045D01*
X126875988Y-95750711D01*
X126875711Y-95750988D01*
X126870045Y-95755638D01*
X126869719Y-95755856D01*
X126863253Y-95759313D01*
X126862891Y-95759463D01*
X126855876Y-95761591D01*
X126855491Y-95761667D01*
X126846192Y-95762583D01*
X126822440Y-95767307D01*
X126800166Y-95776534D01*
X126780119Y-95789928D01*
X126763072Y-95806975D01*
X126749677Y-95827023D01*
X126740450Y-95849297D01*
X126735746Y-95872947D01*
X126735746Y-95897053D01*
X126740450Y-95920703D01*
X126749677Y-95942977D01*
X126763071Y-95963024D01*
X126780118Y-95980071D01*
X126800166Y-95993466D01*
X126822440Y-96002693D01*
X126846192Y-96007417D01*
X126855491Y-96008333D01*
X126855876Y-96008409D01*
X126862891Y-96010537D01*
X126863253Y-96010687D01*
X126869719Y-96014144D01*
X126870045Y-96014362D01*
X126875711Y-96019012D01*
X126875988Y-96019289D01*
X126880638Y-96024955D01*
X126880856Y-96025281D01*
X126884313Y-96031747D01*
X126884463Y-96032109D01*
X126886591Y-96039124D01*
X126886667Y-96039509D01*
X126887990Y-96052944D01*
X126888000Y-96053140D01*
X126888000Y-96109500D01*
X126887000Y-96111232D01*
X126885000Y-96111232D01*
X126884010Y-96109696D01*
X126882099Y-96090288D01*
X126876493Y-96071809D01*
X126867392Y-96054781D01*
X126855143Y-96039857D01*
X126840219Y-96027608D01*
X126823191Y-96018507D01*
X126804712Y-96012901D01*
X126785406Y-96011000D01*
X126034594Y-96011000D01*
X126015288Y-96012901D01*
X125996809Y-96018507D01*
X125979781Y-96027608D01*
X125964857Y-96039857D01*
X125952608Y-96054781D01*
X125943507Y-96071809D01*
X125937901Y-96090288D01*
X125935990Y-96109696D01*
X125934825Y-96111322D01*
X125932835Y-96111126D01*
X125932000Y-96109500D01*
X125932000Y-96053140D01*
X125932010Y-96052944D01*
X125933333Y-96039509D01*
X125933409Y-96039124D01*
X125935537Y-96032109D01*
X125935687Y-96031747D01*
X125939144Y-96025281D01*
X125939362Y-96024955D01*
X125944012Y-96019289D01*
X125944289Y-96019012D01*
X125949955Y-96014362D01*
X125950281Y-96014144D01*
X125956747Y-96010687D01*
X125957109Y-96010537D01*
X125964124Y-96008409D01*
X125964509Y-96008333D01*
X125973808Y-96007417D01*
X125997560Y-96002693D01*
X126019834Y-95993466D01*
X126039881Y-95980072D01*
X126056928Y-95963025D01*
X126070323Y-95942977D01*
X126079550Y-95920703D01*
X126084254Y-95897053D01*
X126084254Y-95872947D01*
X126079550Y-95849297D01*
X126070323Y-95827023D01*
X126056929Y-95806976D01*
X126039882Y-95789929D01*
X126019834Y-95776534D01*
X125997560Y-95767307D01*
X125973808Y-95762583D01*
X125964509Y-95761667D01*
X125964124Y-95761591D01*
X125957109Y-95759463D01*
X125956747Y-95759313D01*
X125950281Y-95755856D01*
X125949955Y-95755638D01*
X125944289Y-95750988D01*
X125944012Y-95750711D01*
X125939362Y-95745045D01*
X125939144Y-95744719D01*
X125935687Y-95738253D01*
X125935537Y-95737891D01*
X125933409Y-95730876D01*
X125933333Y-95730491D01*
X125932010Y-95717056D01*
X125932000Y-95716860D01*
X125932000Y-95660500D01*
X125933000Y-95658768D01*
X125935000Y-95658768D01*
X125935990Y-95660304D01*
X125937901Y-95679712D01*
X125943507Y-95698191D01*
X125952608Y-95715219D01*
X125964857Y-95730143D01*
X125979781Y-95742392D01*
X125996809Y-95751493D01*
X126015288Y-95757099D01*
X126034594Y-95759000D01*
X126785406Y-95759000D01*
X126804712Y-95757099D01*
X126823191Y-95751493D01*
X126840219Y-95742392D01*
X126855143Y-95730143D01*
X126867392Y-95715219D01*
X126876493Y-95698191D01*
X126882099Y-95679712D01*
X126884010Y-95660304D01*
X126885175Y-95658678D01*
X126887165Y-95658874D01*
G37*
G36*
X122987165Y-95658874D02*
G01*
X122988000Y-95660500D01*
X122988000Y-95716860D01*
X122987990Y-95717056D01*
X122986667Y-95730491D01*
X122986591Y-95730876D01*
X122984463Y-95737891D01*
X122984313Y-95738253D01*
X122980856Y-95744719D01*
X122980638Y-95745045D01*
X122975988Y-95750711D01*
X122975711Y-95750988D01*
X122970045Y-95755638D01*
X122969719Y-95755856D01*
X122963253Y-95759313D01*
X122962891Y-95759463D01*
X122955876Y-95761591D01*
X122955491Y-95761667D01*
X122946192Y-95762583D01*
X122922440Y-95767307D01*
X122900166Y-95776534D01*
X122880119Y-95789928D01*
X122863072Y-95806975D01*
X122849677Y-95827023D01*
X122840450Y-95849297D01*
X122835746Y-95872947D01*
X122835746Y-95897053D01*
X122840450Y-95920703D01*
X122849677Y-95942977D01*
X122863071Y-95963024D01*
X122880118Y-95980071D01*
X122900166Y-95993466D01*
X122922440Y-96002693D01*
X122946192Y-96007417D01*
X122955491Y-96008333D01*
X122955876Y-96008409D01*
X122962891Y-96010537D01*
X122963253Y-96010687D01*
X122969719Y-96014144D01*
X122970045Y-96014362D01*
X122975711Y-96019012D01*
X122975988Y-96019289D01*
X122980638Y-96024955D01*
X122980856Y-96025281D01*
X122984313Y-96031747D01*
X122984463Y-96032109D01*
X122986591Y-96039124D01*
X122986667Y-96039509D01*
X122987990Y-96052944D01*
X122988000Y-96053140D01*
X122988000Y-96109500D01*
X122987000Y-96111232D01*
X122985000Y-96111232D01*
X122984010Y-96109696D01*
X122982099Y-96090288D01*
X122976493Y-96071809D01*
X122967392Y-96054781D01*
X122955143Y-96039857D01*
X122940219Y-96027608D01*
X122923191Y-96018507D01*
X122904712Y-96012901D01*
X122885406Y-96011000D01*
X122134594Y-96011000D01*
X122115288Y-96012901D01*
X122096809Y-96018507D01*
X122079781Y-96027608D01*
X122064857Y-96039857D01*
X122052608Y-96054781D01*
X122043507Y-96071809D01*
X122037901Y-96090288D01*
X122035990Y-96109696D01*
X122034825Y-96111322D01*
X122032835Y-96111126D01*
X122032000Y-96109500D01*
X122032000Y-96053140D01*
X122032010Y-96052944D01*
X122033333Y-96039509D01*
X122033409Y-96039124D01*
X122035537Y-96032109D01*
X122035687Y-96031747D01*
X122039144Y-96025281D01*
X122039362Y-96024955D01*
X122044012Y-96019289D01*
X122044289Y-96019012D01*
X122049955Y-96014362D01*
X122050281Y-96014144D01*
X122056747Y-96010687D01*
X122057109Y-96010537D01*
X122064124Y-96008409D01*
X122064509Y-96008333D01*
X122073808Y-96007417D01*
X122097560Y-96002693D01*
X122119834Y-95993466D01*
X122139881Y-95980072D01*
X122156928Y-95963025D01*
X122170323Y-95942977D01*
X122179550Y-95920703D01*
X122184254Y-95897053D01*
X122184254Y-95872947D01*
X122179550Y-95849297D01*
X122170323Y-95827023D01*
X122156929Y-95806976D01*
X122139882Y-95789929D01*
X122119834Y-95776534D01*
X122097560Y-95767307D01*
X122073808Y-95762583D01*
X122064509Y-95761667D01*
X122064124Y-95761591D01*
X122057109Y-95759463D01*
X122056747Y-95759313D01*
X122050281Y-95755856D01*
X122049955Y-95755638D01*
X122044289Y-95750988D01*
X122044012Y-95750711D01*
X122039362Y-95745045D01*
X122039144Y-95744719D01*
X122035687Y-95738253D01*
X122035537Y-95737891D01*
X122033409Y-95730876D01*
X122033333Y-95730491D01*
X122032010Y-95717056D01*
X122032000Y-95716860D01*
X122032000Y-95660500D01*
X122033000Y-95658768D01*
X122035000Y-95658768D01*
X122035990Y-95660304D01*
X122037901Y-95679712D01*
X122043507Y-95698191D01*
X122052608Y-95715219D01*
X122064857Y-95730143D01*
X122079781Y-95742392D01*
X122096809Y-95751493D01*
X122115288Y-95757099D01*
X122134594Y-95759000D01*
X122885406Y-95759000D01*
X122904712Y-95757099D01*
X122923191Y-95751493D01*
X122940219Y-95742392D01*
X122955143Y-95730143D01*
X122967392Y-95715219D01*
X122976493Y-95698191D01*
X122982099Y-95679712D01*
X122984010Y-95660304D01*
X122985175Y-95658678D01*
X122987165Y-95658874D01*
G37*
G36*
X126887165Y-95008874D02*
G01*
X126888000Y-95010500D01*
X126888000Y-95066860D01*
X126887990Y-95067056D01*
X126886667Y-95080491D01*
X126886591Y-95080876D01*
X126884463Y-95087891D01*
X126884313Y-95088253D01*
X126880856Y-95094719D01*
X126880638Y-95095045D01*
X126875988Y-95100711D01*
X126875711Y-95100988D01*
X126870045Y-95105638D01*
X126869719Y-95105856D01*
X126863253Y-95109313D01*
X126862891Y-95109463D01*
X126855876Y-95111591D01*
X126855491Y-95111667D01*
X126846192Y-95112583D01*
X126822440Y-95117307D01*
X126800166Y-95126534D01*
X126780119Y-95139928D01*
X126763072Y-95156975D01*
X126749677Y-95177023D01*
X126740450Y-95199297D01*
X126735746Y-95222947D01*
X126735746Y-95247053D01*
X126740450Y-95270703D01*
X126749677Y-95292977D01*
X126763071Y-95313024D01*
X126780118Y-95330071D01*
X126800166Y-95343466D01*
X126822440Y-95352693D01*
X126846192Y-95357417D01*
X126855491Y-95358333D01*
X126855876Y-95358409D01*
X126862891Y-95360537D01*
X126863253Y-95360687D01*
X126869719Y-95364144D01*
X126870045Y-95364362D01*
X126875711Y-95369012D01*
X126875988Y-95369289D01*
X126880638Y-95374955D01*
X126880856Y-95375281D01*
X126884313Y-95381747D01*
X126884463Y-95382109D01*
X126886591Y-95389124D01*
X126886667Y-95389509D01*
X126887990Y-95402944D01*
X126888000Y-95403140D01*
X126888000Y-95459500D01*
X126887000Y-95461232D01*
X126885000Y-95461232D01*
X126884010Y-95459696D01*
X126882099Y-95440288D01*
X126876493Y-95421809D01*
X126867392Y-95404781D01*
X126855143Y-95389857D01*
X126840219Y-95377608D01*
X126823191Y-95368507D01*
X126804712Y-95362901D01*
X126785406Y-95361000D01*
X126034594Y-95361000D01*
X126015288Y-95362901D01*
X125996809Y-95368507D01*
X125979781Y-95377608D01*
X125964857Y-95389857D01*
X125952608Y-95404781D01*
X125943507Y-95421809D01*
X125937901Y-95440288D01*
X125935990Y-95459696D01*
X125934825Y-95461322D01*
X125932835Y-95461126D01*
X125932000Y-95459500D01*
X125932000Y-95403140D01*
X125932010Y-95402944D01*
X125933333Y-95389509D01*
X125933409Y-95389124D01*
X125935537Y-95382109D01*
X125935687Y-95381747D01*
X125939144Y-95375281D01*
X125939362Y-95374955D01*
X125944012Y-95369289D01*
X125944289Y-95369012D01*
X125949955Y-95364362D01*
X125950281Y-95364144D01*
X125956747Y-95360687D01*
X125957109Y-95360537D01*
X125964124Y-95358409D01*
X125964509Y-95358333D01*
X125973808Y-95357417D01*
X125997560Y-95352693D01*
X126019834Y-95343466D01*
X126039881Y-95330072D01*
X126056928Y-95313025D01*
X126070323Y-95292977D01*
X126079550Y-95270703D01*
X126084254Y-95247053D01*
X126084254Y-95222947D01*
X126079550Y-95199297D01*
X126070323Y-95177023D01*
X126056929Y-95156976D01*
X126039882Y-95139929D01*
X126019834Y-95126534D01*
X125997560Y-95117307D01*
X125973808Y-95112583D01*
X125964509Y-95111667D01*
X125964124Y-95111591D01*
X125957109Y-95109463D01*
X125956747Y-95109313D01*
X125950281Y-95105856D01*
X125949955Y-95105638D01*
X125944289Y-95100988D01*
X125944012Y-95100711D01*
X125939362Y-95095045D01*
X125939144Y-95094719D01*
X125935687Y-95088253D01*
X125935537Y-95087891D01*
X125933409Y-95080876D01*
X125933333Y-95080491D01*
X125932010Y-95067056D01*
X125932000Y-95066860D01*
X125932000Y-95010500D01*
X125933000Y-95008768D01*
X125935000Y-95008768D01*
X125935990Y-95010304D01*
X125937901Y-95029712D01*
X125943507Y-95048191D01*
X125952608Y-95065219D01*
X125964857Y-95080143D01*
X125979781Y-95092392D01*
X125996809Y-95101493D01*
X126015288Y-95107099D01*
X126034594Y-95109000D01*
X126785406Y-95109000D01*
X126804712Y-95107099D01*
X126823191Y-95101493D01*
X126840219Y-95092392D01*
X126855143Y-95080143D01*
X126867392Y-95065219D01*
X126876493Y-95048191D01*
X126882099Y-95029712D01*
X126884010Y-95010304D01*
X126885175Y-95008678D01*
X126887165Y-95008874D01*
G37*
G36*
X122987165Y-95008874D02*
G01*
X122988000Y-95010500D01*
X122988000Y-95066860D01*
X122987990Y-95067056D01*
X122986667Y-95080491D01*
X122986591Y-95080876D01*
X122984463Y-95087891D01*
X122984313Y-95088253D01*
X122980856Y-95094719D01*
X122980638Y-95095045D01*
X122975988Y-95100711D01*
X122975711Y-95100988D01*
X122970045Y-95105638D01*
X122969719Y-95105856D01*
X122963253Y-95109313D01*
X122962891Y-95109463D01*
X122955876Y-95111591D01*
X122955491Y-95111667D01*
X122946192Y-95112583D01*
X122922440Y-95117307D01*
X122900166Y-95126534D01*
X122880119Y-95139928D01*
X122863072Y-95156975D01*
X122849677Y-95177023D01*
X122840450Y-95199297D01*
X122835746Y-95222947D01*
X122835746Y-95247053D01*
X122840450Y-95270703D01*
X122849677Y-95292977D01*
X122863071Y-95313024D01*
X122880118Y-95330071D01*
X122900166Y-95343466D01*
X122922440Y-95352693D01*
X122946192Y-95357417D01*
X122955491Y-95358333D01*
X122955876Y-95358409D01*
X122962891Y-95360537D01*
X122963253Y-95360687D01*
X122969719Y-95364144D01*
X122970045Y-95364362D01*
X122975711Y-95369012D01*
X122975988Y-95369289D01*
X122980638Y-95374955D01*
X122980856Y-95375281D01*
X122984313Y-95381747D01*
X122984463Y-95382109D01*
X122986591Y-95389124D01*
X122986667Y-95389509D01*
X122987990Y-95402944D01*
X122988000Y-95403140D01*
X122988000Y-95459500D01*
X122987000Y-95461232D01*
X122985000Y-95461232D01*
X122984010Y-95459696D01*
X122982099Y-95440288D01*
X122976493Y-95421809D01*
X122967392Y-95404781D01*
X122955143Y-95389857D01*
X122940219Y-95377608D01*
X122923191Y-95368507D01*
X122904712Y-95362901D01*
X122885406Y-95361000D01*
X122134594Y-95361000D01*
X122115288Y-95362901D01*
X122096809Y-95368507D01*
X122079781Y-95377608D01*
X122064857Y-95389857D01*
X122052608Y-95404781D01*
X122043507Y-95421809D01*
X122037901Y-95440288D01*
X122035990Y-95459696D01*
X122034825Y-95461322D01*
X122032835Y-95461126D01*
X122032000Y-95459500D01*
X122032000Y-95403140D01*
X122032010Y-95402944D01*
X122033333Y-95389509D01*
X122033409Y-95389124D01*
X122035537Y-95382109D01*
X122035687Y-95381747D01*
X122039144Y-95375281D01*
X122039362Y-95374955D01*
X122044012Y-95369289D01*
X122044289Y-95369012D01*
X122049955Y-95364362D01*
X122050281Y-95364144D01*
X122056747Y-95360687D01*
X122057109Y-95360537D01*
X122064124Y-95358409D01*
X122064509Y-95358333D01*
X122073808Y-95357417D01*
X122097560Y-95352693D01*
X122119834Y-95343466D01*
X122139881Y-95330072D01*
X122156928Y-95313025D01*
X122170323Y-95292977D01*
X122179550Y-95270703D01*
X122184254Y-95247053D01*
X122184254Y-95222947D01*
X122179550Y-95199297D01*
X122170323Y-95177023D01*
X122156929Y-95156976D01*
X122139882Y-95139929D01*
X122119834Y-95126534D01*
X122097560Y-95117307D01*
X122073808Y-95112583D01*
X122064509Y-95111667D01*
X122064124Y-95111591D01*
X122057109Y-95109463D01*
X122056747Y-95109313D01*
X122050281Y-95105856D01*
X122049955Y-95105638D01*
X122044289Y-95100988D01*
X122044012Y-95100711D01*
X122039362Y-95095045D01*
X122039144Y-95094719D01*
X122035687Y-95088253D01*
X122035537Y-95087891D01*
X122033409Y-95080876D01*
X122033333Y-95080491D01*
X122032010Y-95067056D01*
X122032000Y-95066860D01*
X122032000Y-95010500D01*
X122033000Y-95008768D01*
X122035000Y-95008768D01*
X122035990Y-95010304D01*
X122037901Y-95029712D01*
X122043507Y-95048191D01*
X122052608Y-95065219D01*
X122064857Y-95080143D01*
X122079781Y-95092392D01*
X122096809Y-95101493D01*
X122115288Y-95107099D01*
X122134594Y-95109000D01*
X122885406Y-95109000D01*
X122904712Y-95107099D01*
X122923191Y-95101493D01*
X122940219Y-95092392D01*
X122955143Y-95080143D01*
X122967392Y-95065219D01*
X122976493Y-95048191D01*
X122982099Y-95029712D01*
X122984010Y-95010304D01*
X122985175Y-95008678D01*
X122987165Y-95008874D01*
G37*
G36*
X123622874Y-94783000D02*
G01*
X123622874Y-94785000D01*
X123621338Y-94785990D01*
X123570396Y-94791007D01*
X123521594Y-94805811D01*
X123476620Y-94829850D01*
X123437201Y-94862201D01*
X123404850Y-94901620D01*
X123380811Y-94946594D01*
X123366007Y-94995396D01*
X123360990Y-95046338D01*
X123359825Y-95047964D01*
X123357835Y-95047768D01*
X123357000Y-95046142D01*
X123357000Y-94957045D01*
X123357010Y-94956849D01*
X123360810Y-94918267D01*
X123360886Y-94917882D01*
X123370350Y-94886683D01*
X123370500Y-94886321D01*
X123385868Y-94857570D01*
X123386086Y-94857244D01*
X123406767Y-94832044D01*
X123407044Y-94831767D01*
X123432244Y-94811086D01*
X123432570Y-94810868D01*
X123461321Y-94795500D01*
X123461683Y-94795350D01*
X123492882Y-94785886D01*
X123493267Y-94785810D01*
X123531849Y-94782010D01*
X123532045Y-94782000D01*
X123621142Y-94782000D01*
X123622874Y-94783000D01*
G37*
G36*
X125388151Y-94782010D02*
G01*
X125426733Y-94785810D01*
X125427118Y-94785886D01*
X125458317Y-94795350D01*
X125458679Y-94795500D01*
X125487430Y-94810868D01*
X125487756Y-94811086D01*
X125512956Y-94831767D01*
X125513233Y-94832044D01*
X125533914Y-94857244D01*
X125534132Y-94857570D01*
X125549500Y-94886321D01*
X125549650Y-94886683D01*
X125559114Y-94917882D01*
X125559190Y-94918267D01*
X125562990Y-94956849D01*
X125563000Y-94957045D01*
X125563000Y-95046142D01*
X125562000Y-95047874D01*
X125560000Y-95047874D01*
X125559010Y-95046338D01*
X125553993Y-94995396D01*
X125539189Y-94946594D01*
X125515150Y-94901620D01*
X125482799Y-94862201D01*
X125443380Y-94829850D01*
X125398406Y-94805811D01*
X125349604Y-94791007D01*
X125298662Y-94785990D01*
X125297036Y-94784825D01*
X125297232Y-94782835D01*
X125298858Y-94782000D01*
X125387955Y-94782000D01*
X125388151Y-94782010D01*
G37*
G36*
X124942056Y-93457010D02*
G01*
X124955491Y-93458333D01*
X124955876Y-93458409D01*
X124962891Y-93460537D01*
X124963253Y-93460687D01*
X124969719Y-93464144D01*
X124970045Y-93464362D01*
X124975711Y-93469012D01*
X124975988Y-93469289D01*
X124980638Y-93474955D01*
X124980856Y-93475281D01*
X124984313Y-93481747D01*
X124984463Y-93482109D01*
X124986591Y-93489124D01*
X124986667Y-93489509D01*
X124987583Y-93498808D01*
X124992307Y-93522560D01*
X125001534Y-93544834D01*
X125014928Y-93564881D01*
X125031975Y-93581928D01*
X125052023Y-93595323D01*
X125074297Y-93604550D01*
X125097947Y-93609254D01*
X125122053Y-93609254D01*
X125145703Y-93604550D01*
X125167977Y-93595323D01*
X125188024Y-93581929D01*
X125205071Y-93564882D01*
X125218466Y-93544834D01*
X125227693Y-93522560D01*
X125232417Y-93498808D01*
X125233333Y-93489509D01*
X125233409Y-93489124D01*
X125235537Y-93482109D01*
X125235687Y-93481747D01*
X125239144Y-93475281D01*
X125239362Y-93474955D01*
X125244012Y-93469289D01*
X125244289Y-93469012D01*
X125249955Y-93464362D01*
X125250281Y-93464144D01*
X125256747Y-93460687D01*
X125257109Y-93460537D01*
X125264124Y-93458409D01*
X125264509Y-93458333D01*
X125277944Y-93457010D01*
X125278140Y-93457000D01*
X125334500Y-93457000D01*
X125336232Y-93458000D01*
X125336232Y-93460000D01*
X125334696Y-93460990D01*
X125315288Y-93462901D01*
X125296809Y-93468507D01*
X125279781Y-93477608D01*
X125264857Y-93489857D01*
X125252608Y-93504781D01*
X125243507Y-93521809D01*
X125237901Y-93540288D01*
X125236000Y-93559594D01*
X125236000Y-94310406D01*
X125237901Y-94329712D01*
X125243507Y-94348191D01*
X125252608Y-94365219D01*
X125264857Y-94380143D01*
X125279781Y-94392392D01*
X125296809Y-94401493D01*
X125315288Y-94407099D01*
X125334696Y-94409010D01*
X125336322Y-94410175D01*
X125336126Y-94412165D01*
X125334500Y-94413000D01*
X125278140Y-94413000D01*
X125277944Y-94412990D01*
X125264509Y-94411667D01*
X125264124Y-94411591D01*
X125257109Y-94409463D01*
X125256747Y-94409313D01*
X125250281Y-94405856D01*
X125249955Y-94405638D01*
X125244289Y-94400988D01*
X125244012Y-94400711D01*
X125239362Y-94395045D01*
X125239144Y-94394719D01*
X125235687Y-94388253D01*
X125235537Y-94387891D01*
X125233409Y-94380876D01*
X125233333Y-94380491D01*
X125232417Y-94371192D01*
X125227693Y-94347440D01*
X125218466Y-94325166D01*
X125205072Y-94305119D01*
X125188025Y-94288072D01*
X125167977Y-94274677D01*
X125145703Y-94265450D01*
X125122053Y-94260746D01*
X125097947Y-94260746D01*
X125074297Y-94265450D01*
X125052023Y-94274677D01*
X125031976Y-94288071D01*
X125014929Y-94305118D01*
X125001534Y-94325166D01*
X124992307Y-94347440D01*
X124987583Y-94371192D01*
X124986667Y-94380491D01*
X124986591Y-94380876D01*
X124984463Y-94387891D01*
X124984313Y-94388253D01*
X124980856Y-94394719D01*
X124980638Y-94395045D01*
X124975988Y-94400711D01*
X124975711Y-94400988D01*
X124970045Y-94405638D01*
X124969719Y-94405856D01*
X124963253Y-94409313D01*
X124962891Y-94409463D01*
X124955876Y-94411591D01*
X124955491Y-94411667D01*
X124942056Y-94412990D01*
X124941860Y-94413000D01*
X124885500Y-94413000D01*
X124883768Y-94412000D01*
X124883768Y-94410000D01*
X124885304Y-94409010D01*
X124904712Y-94407099D01*
X124923191Y-94401493D01*
X124940219Y-94392392D01*
X124955143Y-94380143D01*
X124967392Y-94365219D01*
X124976493Y-94348191D01*
X124982099Y-94329712D01*
X124984000Y-94310406D01*
X124984000Y-93559594D01*
X124982099Y-93540288D01*
X124976493Y-93521809D01*
X124967392Y-93504781D01*
X124955143Y-93489857D01*
X124940219Y-93477608D01*
X124923191Y-93468507D01*
X124904712Y-93462901D01*
X124885304Y-93460990D01*
X124883678Y-93459825D01*
X124883874Y-93457835D01*
X124885500Y-93457000D01*
X124941860Y-93457000D01*
X124942056Y-93457010D01*
G37*
G36*
X123642056Y-93457010D02*
G01*
X123655491Y-93458333D01*
X123655876Y-93458409D01*
X123662891Y-93460537D01*
X123663253Y-93460687D01*
X123669719Y-93464144D01*
X123670045Y-93464362D01*
X123675711Y-93469012D01*
X123675988Y-93469289D01*
X123680638Y-93474955D01*
X123680856Y-93475281D01*
X123684313Y-93481747D01*
X123684463Y-93482109D01*
X123686591Y-93489124D01*
X123686667Y-93489509D01*
X123687583Y-93498808D01*
X123692307Y-93522560D01*
X123701534Y-93544834D01*
X123714928Y-93564881D01*
X123731975Y-93581928D01*
X123752023Y-93595323D01*
X123774297Y-93604550D01*
X123797947Y-93609254D01*
X123822053Y-93609254D01*
X123845703Y-93604550D01*
X123867977Y-93595323D01*
X123888024Y-93581929D01*
X123905071Y-93564882D01*
X123918466Y-93544834D01*
X123927693Y-93522560D01*
X123932417Y-93498808D01*
X123933333Y-93489509D01*
X123933409Y-93489124D01*
X123935537Y-93482109D01*
X123935687Y-93481747D01*
X123939144Y-93475281D01*
X123939362Y-93474955D01*
X123944012Y-93469289D01*
X123944289Y-93469012D01*
X123949955Y-93464362D01*
X123950281Y-93464144D01*
X123956747Y-93460687D01*
X123957109Y-93460537D01*
X123964124Y-93458409D01*
X123964509Y-93458333D01*
X123977944Y-93457010D01*
X123978140Y-93457000D01*
X124034500Y-93457000D01*
X124036232Y-93458000D01*
X124036232Y-93460000D01*
X124034696Y-93460990D01*
X124015288Y-93462901D01*
X123996809Y-93468507D01*
X123979781Y-93477608D01*
X123964857Y-93489857D01*
X123952608Y-93504781D01*
X123943507Y-93521809D01*
X123937901Y-93540288D01*
X123936000Y-93559594D01*
X123936000Y-94310406D01*
X123937901Y-94329712D01*
X123943507Y-94348191D01*
X123952608Y-94365219D01*
X123964857Y-94380143D01*
X123979781Y-94392392D01*
X123996809Y-94401493D01*
X124015288Y-94407099D01*
X124034696Y-94409010D01*
X124036322Y-94410175D01*
X124036126Y-94412165D01*
X124034500Y-94413000D01*
X123978140Y-94413000D01*
X123977944Y-94412990D01*
X123964509Y-94411667D01*
X123964124Y-94411591D01*
X123957109Y-94409463D01*
X123956747Y-94409313D01*
X123950281Y-94405856D01*
X123949955Y-94405638D01*
X123944289Y-94400988D01*
X123944012Y-94400711D01*
X123939362Y-94395045D01*
X123939144Y-94394719D01*
X123935687Y-94388253D01*
X123935537Y-94387891D01*
X123933409Y-94380876D01*
X123933333Y-94380491D01*
X123932417Y-94371192D01*
X123927693Y-94347440D01*
X123918466Y-94325166D01*
X123905072Y-94305119D01*
X123888025Y-94288072D01*
X123867977Y-94274677D01*
X123845703Y-94265450D01*
X123822053Y-94260746D01*
X123797947Y-94260746D01*
X123774297Y-94265450D01*
X123752023Y-94274677D01*
X123731976Y-94288071D01*
X123714929Y-94305118D01*
X123701534Y-94325166D01*
X123692307Y-94347440D01*
X123687583Y-94371192D01*
X123686667Y-94380491D01*
X123686591Y-94380876D01*
X123684463Y-94387891D01*
X123684313Y-94388253D01*
X123680856Y-94394719D01*
X123680638Y-94395045D01*
X123675988Y-94400711D01*
X123675711Y-94400988D01*
X123670045Y-94405638D01*
X123669719Y-94405856D01*
X123663253Y-94409313D01*
X123662891Y-94409463D01*
X123655876Y-94411591D01*
X123655491Y-94411667D01*
X123642056Y-94412990D01*
X123641860Y-94413000D01*
X123585500Y-94413000D01*
X123583768Y-94412000D01*
X123583768Y-94410000D01*
X123585304Y-94409010D01*
X123604712Y-94407099D01*
X123623191Y-94401493D01*
X123640219Y-94392392D01*
X123655143Y-94380143D01*
X123667392Y-94365219D01*
X123676493Y-94348191D01*
X123682099Y-94329712D01*
X123684000Y-94310406D01*
X123684000Y-93559594D01*
X123682099Y-93540288D01*
X123676493Y-93521809D01*
X123667392Y-93504781D01*
X123655143Y-93489857D01*
X123640219Y-93477608D01*
X123623191Y-93468507D01*
X123604712Y-93462901D01*
X123585304Y-93460990D01*
X123583678Y-93459825D01*
X123583874Y-93457835D01*
X123585500Y-93457000D01*
X123641860Y-93457000D01*
X123642056Y-93457010D01*
G37*
G36*
X124292056Y-93457010D02*
G01*
X124305491Y-93458333D01*
X124305876Y-93458409D01*
X124312891Y-93460537D01*
X124313253Y-93460687D01*
X124319719Y-93464144D01*
X124320045Y-93464362D01*
X124325711Y-93469012D01*
X124325988Y-93469289D01*
X124330638Y-93474955D01*
X124330856Y-93475281D01*
X124334313Y-93481747D01*
X124334463Y-93482109D01*
X124336591Y-93489124D01*
X124336667Y-93489509D01*
X124337583Y-93498808D01*
X124342307Y-93522560D01*
X124351534Y-93544834D01*
X124364928Y-93564881D01*
X124381975Y-93581928D01*
X124402023Y-93595323D01*
X124424297Y-93604550D01*
X124447947Y-93609254D01*
X124472053Y-93609254D01*
X124495703Y-93604550D01*
X124517977Y-93595323D01*
X124538024Y-93581929D01*
X124555071Y-93564882D01*
X124568466Y-93544834D01*
X124577693Y-93522560D01*
X124582417Y-93498808D01*
X124583333Y-93489509D01*
X124583409Y-93489124D01*
X124585537Y-93482109D01*
X124585687Y-93481747D01*
X124589144Y-93475281D01*
X124589362Y-93474955D01*
X124594012Y-93469289D01*
X124594289Y-93469012D01*
X124599955Y-93464362D01*
X124600281Y-93464144D01*
X124606747Y-93460687D01*
X124607109Y-93460537D01*
X124614124Y-93458409D01*
X124614509Y-93458333D01*
X124627944Y-93457010D01*
X124628140Y-93457000D01*
X124684500Y-93457000D01*
X124686232Y-93458000D01*
X124686232Y-93460000D01*
X124684696Y-93460990D01*
X124665288Y-93462901D01*
X124646809Y-93468507D01*
X124629781Y-93477608D01*
X124614857Y-93489857D01*
X124602608Y-93504781D01*
X124593507Y-93521809D01*
X124587901Y-93540288D01*
X124586000Y-93559594D01*
X124586000Y-94310406D01*
X124587901Y-94329712D01*
X124593507Y-94348191D01*
X124602608Y-94365219D01*
X124614857Y-94380143D01*
X124629781Y-94392392D01*
X124646809Y-94401493D01*
X124665288Y-94407099D01*
X124684696Y-94409010D01*
X124686322Y-94410175D01*
X124686126Y-94412165D01*
X124684500Y-94413000D01*
X124628140Y-94413000D01*
X124627944Y-94412990D01*
X124614509Y-94411667D01*
X124614124Y-94411591D01*
X124607109Y-94409463D01*
X124606747Y-94409313D01*
X124600281Y-94405856D01*
X124599955Y-94405638D01*
X124594289Y-94400988D01*
X124594012Y-94400711D01*
X124589362Y-94395045D01*
X124589144Y-94394719D01*
X124585687Y-94388253D01*
X124585537Y-94387891D01*
X124583409Y-94380876D01*
X124583333Y-94380491D01*
X124582417Y-94371192D01*
X124577693Y-94347440D01*
X124568466Y-94325166D01*
X124555072Y-94305119D01*
X124538025Y-94288072D01*
X124517977Y-94274677D01*
X124495703Y-94265450D01*
X124472053Y-94260746D01*
X124447947Y-94260746D01*
X124424297Y-94265450D01*
X124402023Y-94274677D01*
X124381976Y-94288071D01*
X124364929Y-94305118D01*
X124351534Y-94325166D01*
X124342307Y-94347440D01*
X124337583Y-94371192D01*
X124336667Y-94380491D01*
X124336591Y-94380876D01*
X124334463Y-94387891D01*
X124334313Y-94388253D01*
X124330856Y-94394719D01*
X124330638Y-94395045D01*
X124325988Y-94400711D01*
X124325711Y-94400988D01*
X124320045Y-94405638D01*
X124319719Y-94405856D01*
X124313253Y-94409313D01*
X124312891Y-94409463D01*
X124305876Y-94411591D01*
X124305491Y-94411667D01*
X124292056Y-94412990D01*
X124291860Y-94413000D01*
X124235500Y-94413000D01*
X124233768Y-94412000D01*
X124233768Y-94410000D01*
X124235304Y-94409010D01*
X124254712Y-94407099D01*
X124273191Y-94401493D01*
X124290219Y-94392392D01*
X124305143Y-94380143D01*
X124317392Y-94365219D01*
X124326493Y-94348191D01*
X124332099Y-94329712D01*
X124334000Y-94310406D01*
X124334000Y-93559594D01*
X124332099Y-93540288D01*
X124326493Y-93521809D01*
X124317392Y-93504781D01*
X124305143Y-93489857D01*
X124290219Y-93477608D01*
X124273191Y-93468507D01*
X124254712Y-93462901D01*
X124235304Y-93460990D01*
X124233678Y-93459825D01*
X124233874Y-93457835D01*
X124235500Y-93457000D01*
X124291860Y-93457000D01*
X124292056Y-93457010D01*
G37*
M02*
